<?xml version="1.0" encoding="UTF-8"?>
<svg width="20px" height="20px" viewBox="0 0 20 20" version="1.1" xmlns="http://www.w3.org/2000/svg" xmlns:xlink="http://www.w3.org/1999/xlink">
    <!-- Generator: Sketch 59.1 (86144) - https://sketch.com -->
    <title>icon-insta</title>
    <desc>Created with Sketch.</desc>
    <g id="Landing" stroke="none" stroke-width="1" fill="none" fill-rule="evenodd">
        <g id="02-Balance_center" transform="translate(-1320.000000, -7874.000000)" fill="#30C5CA">
            <g id="Footer" transform="translate(0.000000, 7859.000000)">
                <g id="Social-Media" transform="translate(1236.000000, 15.000000)">
                    <path d="M102.225621,14.480723 C102.225621,16.545646 100.545646,18.2255031 98.480723,18.2255031 L89.5191587,18.2255031 C87.454354,18.2256214 85.7744969,16.545646 85.7744969,14.480723 L85.7744969,5.51927695 C85.7744969,3.45447232 87.454354,1.77449693 89.5191587,1.77449693 L98.4806047,1.77449693 C100.545528,1.77449693 102.225503,3.45447232 102.225503,5.51927695 L102.225503,14.480723 L102.225621,14.480723 Z M94,4.84674262 C96.8416794,4.84674262 99.153494,7.15855722 99.153494,10.0002366 C99.153494,12.8417977 96.8416794,15.153494 94,15.153494 C91.1583206,15.153494 88.846506,12.8417977 88.846506,10.0002366 C88.846506,7.15855722 91.1583206,4.84674262 94,4.84674262 Z M94,6.62112125 C92.1367782,6.62112125 90.6210029,8.13689652 90.6210029,10.0001183 C90.6210029,11.8632218 92.1368965,13.3788788 94,13.3788788 C95.8631035,13.3788788 97.3789971,11.8632218 97.3789971,10.0001183 C97.3789971,8.13689652 95.8632218,6.62112125 94,6.62112125 Z M98.4806047,0 L89.5191587,0 C86.4758964,0 84,2.47601472 84,5.51927695 L84,14.480723 C84,17.5241036 86.4758964,20 89.5191587,20 L98.4806047,20 C101.524104,20 104,17.5239853 104,14.480723 L104,5.51927695 C104.000118,2.47601472 101.524104,0 98.4806047,0 L98.4806047,0 Z M99.3696277,3.34208752 C99.0277413,3.34208752 98.6918882,3.48049828 98.4504383,3.72301286 C98.2078054,3.96434444 98.06833,4.30031586 98.06833,4.64338527 C98.06833,4.98538998 98.2079237,5.32124309 98.4504383,5.56375767 C98.6917699,5.80508926 99.0277413,5.94468302 99.3696277,5.94468302 C99.7126971,5.94468302 100.047486,5.80508926 100.29,5.56375767 C100.532515,5.32124309 100.670925,4.98527168 100.670925,4.64338527 C100.670925,4.30031586 100.532515,3.96434444 100.29,3.72301286 C100.048669,3.48049828 99.7126971,3.34208752 99.3696277,3.34208752 L99.3696277,3.34208752 Z" id="icon-insta"></path>
                </g>
            </g>
        </g>
    </g>
</svg>