<?xml version="1.0" encoding="UTF-8"?>
<svg width="20px" height="18px" viewBox="0 0 20 18" version="1.1" xmlns="http://www.w3.org/2000/svg" xmlns:xlink="http://www.w3.org/1999/xlink">
    <!-- Generator: Sketch 59.1 (86144) - https://sketch.com -->
    <title>icon-twitter</title>
    <desc>Created with Sketch.</desc>
    <g id="Landing" stroke="none" stroke-width="1" fill="none" fill-rule="evenodd">
        <g id="02-Balance_center" transform="translate(-1278.000000, -7875.000000)" fill="#30C5CA">
            <g id="Footer" transform="translate(0.000000, 7859.000000)">
                <g id="Social-Media" transform="translate(1236.000000, 15.000000)">
                    <path d="M61.2,1 C60.6548474,1.8529685 59.7780151,2.23129666 58.8,2.63636364 C58.0943049,1.55134408 57.0273676,1 56.4,1 C53.5819828,1 51.7444797,3.03466726 52.4,5.09090909 C51.7444797,5.90038768 51.7797239,6.24584281 52.4,6.72727273 C48.4400716,6.38886931 45.4170827,4.58200634 43.6,1.81818182 C43.0386351,2.50293166 42.8367821,3.28438691 42.8,4.27272727 C42.8367821,5.69219186 43.5608896,7.08323988 44.4,7.54545455 C43.9907618,7.87622953 43.3569006,7.66976387 42.8,6.72727273 L42.8,6.72727273 C42.8026059,9.5896639 44.2171789,11.427093 46,12.4545455 C45.7519024,11.9496011 45.3887806,12.003236 45.2,12.4545455 C44.7501135,12.003236 44.4921902,11.9755535 44.4,12.4545455 C44.7645315,13.7270514 46.278963,15.0413957 47.6,14.9090909 C46.6709209,16.2957611 44.9007022,17.022428 42.8,17.3636364 C42.6477452,17.022428 42.3204016,17.0016661 42,17.3636364 C43.8156089,18.2473807 45.9735135,19 48.4,19 C55.8381438,19 59.964382,12.0770562 60.4,5.90909091 C59.964382,5.87385858 59.961178,5.67662042 60.4,5.09090909 C60.7557739,4.84210695 61.4521133,4.04219666 62,2.63636364 C61.2652124,3.49200602 60.4738205,3.7365352 59.6,3.45454545 C60.4914426,3.28438691 61.1418578,2.39393163 61.2,1" id="icon-twitter"></path>
                </g>
            </g>
        </g>
    </g>
</svg>