<?xml version="1.0" encoding="UTF-8"?>
<svg width="335px" height="160px" viewBox="0 0 335 160" version="1.1" xmlns="http://www.w3.org/2000/svg" xmlns:xlink="http://www.w3.org/1999/xlink">
    <!-- Generator: Sketch 57.1 (83088) - https://sketch.com -->
    <title>Image-01_mobile</title>
    <desc>Created with Sketch.</desc>
    <g id="Landing" stroke="none" stroke-width="1" fill="none" fill-rule="evenodd">
        <g id="03-balance_mobile" transform="translate(-20.000000, -1177.000000)">
            <g id="02---Slides" transform="translate(0.000000, 869.000000)">
                <g id="Image-01_mobile" transform="translate(0.000000, 292.000000)">
                    <rect id="Image-Bg" x="0" y="0" width="375" height="192"></rect>
                    <g id="Image-01" transform="translate(20.000000, 16.000000)">
                        <g id="Anxiety" transform="translate(0.000000, 116.000000)">
                            <rect id="Rectangle" fill="#FFF0DE" x="0" y="0" width="148" height="44" rx="5.04"></rect>
                            <path d="M16.504,27 L19.948,16.99 L21.544,16.99 L24.932,27 L23.728,27 L22.748,24.116 L18.618,24.116 L17.652,27 L16.504,27 Z M20.69,17.998 L18.954,23.15 L22.426,23.15 L20.69,17.998 Z M26.612,27 L26.612,19.678 L27.774,19.678 L27.774,20.994 C28.236,20.168 28.866,19.594 30.182,19.552 L30.182,20.644 C28.712,20.714 27.774,21.176 27.774,22.982 L27.774,27 L26.612,27 Z M34.662,27.126 C32.59,27.126 31.12,25.67 31.12,23.416 L31.12,23.304 C31.12,21.092 32.534,19.552 34.55,19.552 C36.244,19.552 37.84,20.574 37.84,23.192 L37.84,23.57 L32.324,23.57 C32.38,25.236 33.178,26.16 34.676,26.16 C35.81,26.16 36.468,25.74 36.622,24.886 L37.784,24.886 C37.532,26.356 36.314,27.126 34.662,27.126 Z M32.366,22.632 L36.65,22.632 C36.538,21.12 35.754,20.518 34.55,20.518 C33.36,20.518 32.562,21.33 32.366,22.632 Z M43.986,29.548 L45.372,26.244 L42.502,19.678 L43.748,19.678 L45.988,24.928 L48.018,19.678 L49.208,19.678 L45.162,29.548 L43.986,29.548 Z M53.576,26.16 C55.046,26.16 55.97,25.054 55.97,23.402 L55.97,23.304 C55.97,21.61 55.032,20.518 53.576,20.518 C52.106,20.518 51.182,21.61 51.182,23.29 L51.182,23.402 C51.182,25.068 52.092,26.16 53.576,26.16 Z M53.562,27.126 C51.476,27.126 49.978,25.544 49.978,23.402 L49.978,23.29 C49.978,21.092 51.504,19.552 53.576,19.552 C55.648,19.552 57.174,21.078 57.174,23.276 L57.174,23.388 C57.174,25.6 55.648,27.126 53.562,27.126 Z M61.458,27.126 C60.002,27.126 58.91,26.328 58.91,24.312 L58.91,19.678 L60.072,19.678 L60.072,24.256 C60.072,25.544 60.618,26.118 61.766,26.118 C62.802,26.118 63.782,25.432 63.782,24.116 L63.782,19.678 L64.944,19.678 L64.944,27 L63.782,27 L63.782,25.838 C63.446,26.524 62.634,27.126 61.458,27.126 Z M73.274,27.126 C71.524,27.126 70.474,26.244 70.404,24.746 L71.538,24.746 C71.622,25.614 72.084,26.16 73.26,26.16 C74.366,26.16 74.856,25.782 74.856,24.998 C74.856,24.228 74.282,23.976 73.148,23.766 C71.244,23.416 70.6,22.884 70.6,21.61 C70.6,20.252 71.93,19.552 73.078,19.552 C74.394,19.552 75.528,20.084 75.724,21.666 L74.604,21.666 C74.436,20.868 73.988,20.518 73.064,20.518 C72.224,20.518 71.678,20.938 71.678,21.568 C71.678,22.226 72.042,22.492 73.386,22.73 C74.898,23.01 75.962,23.346 75.962,24.9 C75.962,26.23 75.052,27.126 73.274,27.126 Z M79.952,27.098 C78.622,27.098 77.978,26.314 77.978,25.166 L77.978,20.658 L76.928,20.658 L76.928,19.678 L77.978,19.678 L77.978,18.012 L79.14,18.012 L79.14,19.678 L80.848,19.678 L80.848,20.658 L79.14,20.658 L79.14,25.054 C79.14,25.768 79.462,26.118 80.05,26.118 C80.414,26.118 80.694,26.062 80.946,25.964 L80.946,26.944 C80.708,27.028 80.428,27.098 79.952,27.098 Z M82.696,27 L82.696,19.678 L83.858,19.678 L83.858,20.994 C84.32,20.168 84.95,19.594 86.266,19.552 L86.266,20.644 C84.796,20.714 83.858,21.176 83.858,22.982 L83.858,27 L82.696,27 Z M90.746,27.126 C88.674,27.126 87.204,25.67 87.204,23.416 L87.204,23.304 C87.204,21.092 88.618,19.552 90.634,19.552 C92.328,19.552 93.924,20.574 93.924,23.192 L93.924,23.57 L88.408,23.57 C88.464,25.236 89.262,26.16 90.76,26.16 C91.894,26.16 92.552,25.74 92.706,24.886 L93.868,24.886 C93.616,26.356 92.398,27.126 90.746,27.126 Z M88.45,22.632 L92.734,22.632 C92.622,21.12 91.838,20.518 90.634,20.518 C89.444,20.518 88.646,21.33 88.45,22.632 Z M98.04,27.126 C96.29,27.126 95.24,26.244 95.17,24.746 L96.304,24.746 C96.388,25.614 96.85,26.16 98.026,26.16 C99.132,26.16 99.622,25.782 99.622,24.998 C99.622,24.228 99.048,23.976 97.914,23.766 C96.01,23.416 95.366,22.884 95.366,21.61 C95.366,20.252 96.696,19.552 97.844,19.552 C99.16,19.552 100.294,20.084 100.49,21.666 L99.37,21.666 C99.202,20.868 98.754,20.518 97.83,20.518 C96.99,20.518 96.444,20.938 96.444,21.568 C96.444,22.226 96.808,22.492 98.152,22.73 C99.664,23.01 100.728,23.346 100.728,24.9 C100.728,26.23 99.818,27.126 98.04,27.126 Z M104.76,27.126 C103.01,27.126 101.96,26.244 101.89,24.746 L103.024,24.746 C103.108,25.614 103.57,26.16 104.746,26.16 C105.852,26.16 106.342,25.782 106.342,24.998 C106.342,24.228 105.768,23.976 104.634,23.766 C102.73,23.416 102.086,22.884 102.086,21.61 C102.086,20.252 103.416,19.552 104.564,19.552 C105.88,19.552 107.014,20.084 107.21,21.666 L106.09,21.666 C105.922,20.868 105.474,20.518 104.55,20.518 C103.71,20.518 103.164,20.938 103.164,21.568 C103.164,22.226 103.528,22.492 104.872,22.73 C106.384,23.01 107.448,23.346 107.448,24.9 C107.448,26.23 106.538,27.126 104.76,27.126 Z M112.208,27.126 C110.136,27.126 108.666,25.67 108.666,23.416 L108.666,23.304 C108.666,21.092 110.08,19.552 112.096,19.552 C113.79,19.552 115.386,20.574 115.386,23.192 L115.386,23.57 L109.87,23.57 C109.926,25.236 110.724,26.16 112.222,26.16 C113.356,26.16 114.014,25.74 114.168,24.886 L115.33,24.886 C115.078,26.356 113.86,27.126 112.208,27.126 Z M109.912,22.632 L114.196,22.632 C114.084,21.12 113.3,20.518 112.096,20.518 C110.906,20.518 110.108,21.33 109.912,22.632 Z M119.922,27.126 C118.004,27.126 116.618,25.768 116.618,23.486 L116.618,23.374 C116.618,21.134 118.018,19.552 120.034,19.552 C121.252,19.552 122.008,20.14 122.428,20.854 L122.428,16.178 L123.59,16.178 L123.59,27 L122.428,27 L122.428,25.74 C122.008,26.454 120.986,27.126 119.922,27.126 Z M120.048,26.16 C121.406,26.16 122.47,25.264 122.47,23.388 L122.47,23.276 C122.47,21.4 121.574,20.518 120.146,20.518 C118.69,20.518 117.822,21.54 117.822,23.318 L117.822,23.43 C117.822,25.278 118.816,26.16 120.048,26.16 Z M127.272,24.172 L127.272,23.472 C127.272,22.338 128.014,21.638 128.714,20.952 C129.26,20.406 129.736,19.902 129.736,19.23 C129.736,18.404 129.274,17.83 128.238,17.83 C127.188,17.83 126.474,18.544 126.376,19.65 L125.284,19.65 C125.382,18.012 126.544,16.864 128.252,16.864 C130.156,16.864 130.912,18.012 130.912,19.188 C130.912,20.224 130.212,20.882 129.54,21.526 C128.91,22.128 128.308,22.716 128.308,23.57 L128.308,24.172 L127.272,24.172 Z M127.762,27.07 C127.272,27.07 126.866,26.678 126.866,26.174 C126.866,25.67 127.272,25.278 127.762,25.278 C128.252,25.278 128.658,25.67 128.658,26.174 C128.658,26.678 128.252,27.07 127.762,27.07 Z" id="Areyoustressed?" fill="#000000" fill-rule="nonzero"></path>
                        </g>
                        <g id="Sleeping" transform="translate(57.000000, 0.000000)">
                            <rect id="Rectangle" fill="#FEF2EC" x="0.88" y="0" width="221" height="44" rx="5.04"></rect>
                            <path d="M20.14,27 L20.14,16.99 L21.358,16.99 L21.358,21.526 L26.622,21.526 L26.622,16.99 L27.84,16.99 L27.84,27 L26.622,27 L26.622,22.548 L21.358,22.548 L21.358,27 L20.14,27 Z M32.11,27.126 C30.752,27.126 29.674,26.468 29.674,24.97 C29.674,23.276 31.466,22.702 33.342,22.702 L34.392,22.702 L34.392,22.17 C34.392,21.008 33.944,20.518 32.824,20.518 C31.816,20.518 31.256,20.938 31.144,21.834 L29.982,21.834 C30.136,20.168 31.466,19.552 32.88,19.552 C34.28,19.552 35.554,20.126 35.554,22.17 L35.554,27 L34.392,27 L34.392,26.076 C33.846,26.762 33.188,27.126 32.11,27.126 Z M32.222,26.202 C33.454,26.202 34.392,25.572 34.392,24.438 L34.392,23.528 L33.384,23.528 C31.914,23.528 30.836,23.892 30.836,24.97 C30.836,25.726 31.2,26.202 32.222,26.202 Z M39.46,27 L36.8,19.678 L38.06,19.678 L40.23,25.824 L42.372,19.678 L43.576,19.678 L40.944,27 L39.46,27 Z M47.888,27.126 C45.816,27.126 44.346,25.67 44.346,23.416 L44.346,23.304 C44.346,21.092 45.76,19.552 47.776,19.552 C49.47,19.552 51.066,20.574 51.066,23.192 L51.066,23.57 L45.55,23.57 C45.606,25.236 46.404,26.16 47.902,26.16 C49.036,26.16 49.694,25.74 49.848,24.886 L51.01,24.886 C50.758,26.356 49.54,27.126 47.888,27.126 Z M45.592,22.632 L49.876,22.632 C49.764,21.12 48.98,20.518 47.776,20.518 C46.586,20.518 45.788,21.33 45.592,22.632 Z M57.212,29.548 L58.598,26.244 L55.728,19.678 L56.974,19.678 L59.214,24.928 L61.244,19.678 L62.434,19.678 L58.388,29.548 L57.212,29.548 Z M66.802,26.16 C68.272,26.16 69.196,25.054 69.196,23.402 L69.196,23.304 C69.196,21.61 68.258,20.518 66.802,20.518 C65.332,20.518 64.408,21.61 64.408,23.29 L64.408,23.402 C64.408,25.068 65.318,26.16 66.802,26.16 Z M66.788,27.126 C64.702,27.126 63.204,25.544 63.204,23.402 L63.204,23.29 C63.204,21.092 64.73,19.552 66.802,19.552 C68.874,19.552 70.4,21.078 70.4,23.276 L70.4,23.388 C70.4,25.6 68.874,27.126 66.788,27.126 Z M74.684,27.126 C73.228,27.126 72.136,26.328 72.136,24.312 L72.136,19.678 L73.298,19.678 L73.298,24.256 C73.298,25.544 73.844,26.118 74.992,26.118 C76.028,26.118 77.008,25.432 77.008,24.116 L77.008,19.678 L78.17,19.678 L78.17,27 L77.008,27 L77.008,25.838 C76.672,26.524 75.86,27.126 74.684,27.126 Z M84.232,27 L84.232,19.678 L85.394,19.678 L85.394,20.798 C85.73,20.112 86.528,19.552 87.578,19.552 C88.516,19.552 89.342,19.944 89.72,20.924 C90.224,19.972 91.316,19.552 92.226,19.552 C93.542,19.552 94.69,20.336 94.69,22.464 L94.69,27 L93.528,27 L93.528,22.38 C93.528,21.092 92.982,20.56 91.974,20.56 C91.022,20.56 90.042,21.204 90.042,22.52 L90.042,27 L88.88,27 L88.88,22.38 C88.88,21.092 88.334,20.56 87.326,20.56 C86.374,20.56 85.394,21.204 85.394,22.52 L85.394,27 L84.232,27 Z M99.968,27.126 C97.896,27.126 96.426,25.67 96.426,23.416 L96.426,23.304 C96.426,21.092 97.84,19.552 99.856,19.552 C101.55,19.552 103.146,20.574 103.146,23.192 L103.146,23.57 L97.63,23.57 C97.686,25.236 98.484,26.16 99.982,26.16 C101.116,26.16 101.774,25.74 101.928,24.886 L103.09,24.886 C102.838,26.356 101.62,27.126 99.968,27.126 Z M97.672,22.632 L101.956,22.632 C101.844,21.12 101.06,20.518 99.856,20.518 C98.666,20.518 97.868,21.33 97.672,22.632 Z M107.682,27.126 C105.764,27.126 104.378,25.768 104.378,23.486 L104.378,23.374 C104.378,21.134 105.778,19.552 107.794,19.552 C109.012,19.552 109.768,20.14 110.188,20.854 L110.188,16.178 L111.35,16.178 L111.35,27 L110.188,27 L110.188,25.74 C109.768,26.454 108.746,27.126 107.682,27.126 Z M107.808,26.16 C109.166,26.16 110.23,25.264 110.23,23.388 L110.23,23.276 C110.23,21.4 109.334,20.518 107.906,20.518 C106.45,20.518 105.582,21.54 105.582,23.318 L105.582,23.43 C105.582,25.278 106.576,26.16 107.808,26.16 Z M113.73,27 L113.73,19.678 L114.892,19.678 L114.892,27 L113.73,27 Z M114.29,18.152 C113.87,18.152 113.52,17.802 113.52,17.382 C113.52,16.962 113.87,16.612 114.29,16.612 C114.71,16.612 115.06,16.962 115.06,17.382 C115.06,17.802 114.71,18.152 114.29,18.152 Z M119.498,27.098 C118.168,27.098 117.524,26.314 117.524,25.166 L117.524,20.658 L116.474,20.658 L116.474,19.678 L117.524,19.678 L117.524,18.012 L118.686,18.012 L118.686,19.678 L120.394,19.678 L120.394,20.658 L118.686,20.658 L118.686,25.054 C118.686,25.768 119.008,26.118 119.596,26.118 C119.96,26.118 120.24,26.062 120.492,25.964 L120.492,26.944 C120.254,27.028 119.974,27.098 119.498,27.098 Z M124.146,27.126 C122.788,27.126 121.71,26.468 121.71,24.97 C121.71,23.276 123.502,22.702 125.378,22.702 L126.428,22.702 L126.428,22.17 C126.428,21.008 125.98,20.518 124.86,20.518 C123.852,20.518 123.292,20.938 123.18,21.834 L122.018,21.834 C122.172,20.168 123.502,19.552 124.916,19.552 C126.316,19.552 127.59,20.126 127.59,22.17 L127.59,27 L126.428,27 L126.428,26.076 C125.882,26.762 125.224,27.126 124.146,27.126 Z M124.258,26.202 C125.49,26.202 126.428,25.572 126.428,24.438 L126.428,23.528 L125.42,23.528 C123.95,23.528 122.872,23.892 122.872,24.97 C122.872,25.726 123.236,26.202 124.258,26.202 Z M132.098,27.098 C130.768,27.098 130.124,26.314 130.124,25.166 L130.124,20.658 L129.074,20.658 L129.074,19.678 L130.124,19.678 L130.124,18.012 L131.286,18.012 L131.286,19.678 L132.994,19.678 L132.994,20.658 L131.286,20.658 L131.286,25.054 C131.286,25.768 131.608,26.118 132.196,26.118 C132.56,26.118 132.84,26.062 133.092,25.964 L133.092,26.944 C132.854,27.028 132.574,27.098 132.098,27.098 Z M137.838,27.126 C135.766,27.126 134.296,25.67 134.296,23.416 L134.296,23.304 C134.296,21.092 135.71,19.552 137.726,19.552 C139.42,19.552 141.016,20.574 141.016,23.192 L141.016,23.57 L135.5,23.57 C135.556,25.236 136.354,26.16 137.852,26.16 C138.986,26.16 139.644,25.74 139.798,24.886 L140.96,24.886 C140.708,26.356 139.49,27.126 137.838,27.126 Z M135.542,22.632 L139.826,22.632 C139.714,21.12 138.93,20.518 137.726,20.518 C136.536,20.518 135.738,21.33 135.542,22.632 Z M145.552,27.126 C143.634,27.126 142.248,25.768 142.248,23.486 L142.248,23.374 C142.248,21.134 143.648,19.552 145.664,19.552 C146.882,19.552 147.638,20.14 148.058,20.854 L148.058,16.178 L149.22,16.178 L149.22,27 L148.058,27 L148.058,25.74 C147.638,26.454 146.616,27.126 145.552,27.126 Z M145.678,26.16 C147.036,26.16 148.1,25.264 148.1,23.388 L148.1,23.276 C148.1,21.4 147.204,20.518 145.776,20.518 C144.32,20.518 143.452,21.54 143.452,23.318 L143.452,23.43 C143.452,25.278 144.446,26.16 145.678,26.16 Z M158.922,27.126 C157.732,27.126 156.864,26.524 156.444,25.796 L156.444,27 L155.282,27 L155.282,16.178 L156.444,16.178 L156.444,20.91 C156.864,20.196 157.858,19.552 158.922,19.552 C160.84,19.552 162.254,20.952 162.254,23.234 L162.254,23.346 C162.254,25.586 160.938,27.126 158.922,27.126 Z M158.81,26.16 C160.266,26.16 161.05,25.18 161.05,23.402 L161.05,23.29 C161.05,21.442 160.028,20.518 158.796,20.518 C157.438,20.518 156.402,21.414 156.402,23.29 L156.402,23.402 C156.402,25.278 157.382,26.16 158.81,26.16 Z M167.056,27.126 C164.984,27.126 163.514,25.67 163.514,23.416 L163.514,23.304 C163.514,21.092 164.928,19.552 166.944,19.552 C168.638,19.552 170.234,20.574 170.234,23.192 L170.234,23.57 L164.718,23.57 C164.774,25.236 165.572,26.16 167.07,26.16 C168.204,26.16 168.862,25.74 169.016,24.886 L170.178,24.886 C169.926,26.356 168.708,27.126 167.056,27.126 Z M164.76,22.632 L169.044,22.632 C168.932,21.12 168.148,20.518 166.944,20.518 C165.754,20.518 164.956,21.33 164.76,22.632 Z M172.264,27 L172.264,20.658 L171.214,20.658 L171.214,19.678 L172.264,19.678 L172.264,18.488 C172.264,17.004 172.992,16.136 174.448,16.136 C174.826,16.136 175.022,16.178 175.316,16.276 L175.316,17.256 C175.106,17.172 174.812,17.102 174.49,17.102 C173.734,17.102 173.426,17.62 173.426,18.362 L173.426,19.678 L175.218,19.678 L175.218,20.658 L173.426,20.658 L173.426,27 L172.264,27 Z M179.558,26.16 C181.028,26.16 181.952,25.054 181.952,23.402 L181.952,23.304 C181.952,21.61 181.014,20.518 179.558,20.518 C178.088,20.518 177.164,21.61 177.164,23.29 L177.164,23.402 C177.164,25.068 178.074,26.16 179.558,26.16 Z M179.544,27.126 C177.458,27.126 175.96,25.544 175.96,23.402 L175.96,23.29 C175.96,21.092 177.486,19.552 179.558,19.552 C181.63,19.552 183.156,21.078 183.156,23.276 L183.156,23.388 C183.156,25.6 181.63,27.126 179.544,27.126 Z M184.962,27 L184.962,19.678 L186.124,19.678 L186.124,20.994 C186.586,20.168 187.216,19.594 188.532,19.552 L188.532,20.644 C187.062,20.714 186.124,21.176 186.124,22.982 L186.124,27 L184.962,27 Z M193.012,27.126 C190.94,27.126 189.47,25.67 189.47,23.416 L189.47,23.304 C189.47,21.092 190.884,19.552 192.9,19.552 C194.594,19.552 196.19,20.574 196.19,23.192 L196.19,23.57 L190.674,23.57 C190.73,25.236 191.528,26.16 193.026,26.16 C194.16,26.16 194.818,25.74 194.972,24.886 L196.134,24.886 C195.882,26.356 194.664,27.126 193.012,27.126 Z M190.716,22.632 L195,22.632 C194.888,21.12 194.104,20.518 192.9,20.518 C191.71,20.518 190.912,21.33 190.716,22.632 Z M199.158,24.172 L199.158,23.472 C199.158,22.338 199.9,21.638 200.6,20.952 C201.146,20.406 201.622,19.902 201.622,19.23 C201.622,18.404 201.16,17.83 200.124,17.83 C199.074,17.83 198.36,18.544 198.262,19.65 L197.17,19.65 C197.268,18.012 198.43,16.864 200.138,16.864 C202.042,16.864 202.798,18.012 202.798,19.188 C202.798,20.224 202.098,20.882 201.426,21.526 C200.796,22.128 200.194,22.716 200.194,23.57 L200.194,24.172 L199.158,24.172 Z M199.648,27.07 C199.158,27.07 198.752,26.678 198.752,26.174 C198.752,25.67 199.158,25.278 199.648,25.278 C200.138,25.278 200.544,25.67 200.544,26.174 C200.544,26.678 200.138,27.07 199.648,27.07 Z" id="Haveyoumeditatedbefore?" fill="#000000" fill-rule="nonzero"></path>
                        </g>
                        <g id="student" transform="translate(168.000000, 58.000000)">
                            <rect id="Rectangle" fill="#D7F0EA" x="0" y="0" width="159" height="44" rx="5.04"></rect>
                            <path d="M18.504,27 L21.948,16.99 L23.544,16.99 L26.932,27 L25.728,27 L24.748,24.116 L20.618,24.116 L19.652,27 L18.504,27 Z M22.69,17.998 L20.954,23.15 L24.426,23.15 L22.69,17.998 Z M28.612,27 L28.612,19.678 L29.774,19.678 L29.774,20.994 C30.236,20.168 30.866,19.594 32.182,19.552 L32.182,20.644 C30.712,20.714 29.774,21.176 29.774,22.982 L29.774,27 L28.612,27 Z M36.662,27.126 C34.59,27.126 33.12,25.67 33.12,23.416 L33.12,23.304 C33.12,21.092 34.534,19.552 36.55,19.552 C38.244,19.552 39.84,20.574 39.84,23.192 L39.84,23.57 L34.324,23.57 C34.38,25.236 35.178,26.16 36.676,26.16 C37.81,26.16 38.468,25.74 38.622,24.886 L39.784,24.886 C39.532,26.356 38.314,27.126 36.662,27.126 Z M34.366,22.632 L38.65,22.632 C38.538,21.12 37.754,20.518 36.55,20.518 C35.36,20.518 34.562,21.33 34.366,22.632 Z M45.986,29.548 L47.372,26.244 L44.502,19.678 L45.748,19.678 L47.988,24.928 L50.018,19.678 L51.208,19.678 L47.162,29.548 L45.986,29.548 Z M55.576,26.16 C57.046,26.16 57.97,25.054 57.97,23.402 L57.97,23.304 C57.97,21.61 57.032,20.518 55.576,20.518 C54.106,20.518 53.182,21.61 53.182,23.29 L53.182,23.402 C53.182,25.068 54.092,26.16 55.576,26.16 Z M55.562,27.126 C53.476,27.126 51.978,25.544 51.978,23.402 L51.978,23.29 C51.978,21.092 53.504,19.552 55.576,19.552 C57.648,19.552 59.174,21.078 59.174,23.276 L59.174,23.388 C59.174,25.6 57.648,27.126 55.562,27.126 Z M63.458,27.126 C62.002,27.126 60.91,26.328 60.91,24.312 L60.91,19.678 L62.072,19.678 L62.072,24.256 C62.072,25.544 62.618,26.118 63.766,26.118 C64.802,26.118 65.782,25.432 65.782,24.116 L65.782,19.678 L66.944,19.678 L66.944,27 L65.782,27 L65.782,25.838 C65.446,26.524 64.634,27.126 63.458,27.126 Z M74.84,27.126 C73.482,27.126 72.404,26.468 72.404,24.97 C72.404,23.276 74.196,22.702 76.072,22.702 L77.122,22.702 L77.122,22.17 C77.122,21.008 76.674,20.518 75.554,20.518 C74.546,20.518 73.986,20.938 73.874,21.834 L72.712,21.834 C72.866,20.168 74.196,19.552 75.61,19.552 C77.01,19.552 78.284,20.126 78.284,22.17 L78.284,27 L77.122,27 L77.122,26.076 C76.576,26.762 75.918,27.126 74.84,27.126 Z M74.952,26.202 C76.184,26.202 77.122,25.572 77.122,24.438 L77.122,23.528 L76.114,23.528 C74.644,23.528 73.566,23.892 73.566,24.97 C73.566,25.726 73.93,26.202 74.952,26.202 Z M86.544,27.126 C84.794,27.126 83.744,26.244 83.674,24.746 L84.808,24.746 C84.892,25.614 85.354,26.16 86.53,26.16 C87.636,26.16 88.126,25.782 88.126,24.998 C88.126,24.228 87.552,23.976 86.418,23.766 C84.514,23.416 83.87,22.884 83.87,21.61 C83.87,20.252 85.2,19.552 86.348,19.552 C87.664,19.552 88.798,20.084 88.994,21.666 L87.874,21.666 C87.706,20.868 87.258,20.518 86.334,20.518 C85.494,20.518 84.948,20.938 84.948,21.568 C84.948,22.226 85.312,22.492 86.656,22.73 C88.168,23.01 89.232,23.346 89.232,24.9 C89.232,26.23 88.322,27.126 86.544,27.126 Z M93.222,27.098 C91.892,27.098 91.248,26.314 91.248,25.166 L91.248,20.658 L90.198,20.658 L90.198,19.678 L91.248,19.678 L91.248,18.012 L92.41,18.012 L92.41,19.678 L94.118,19.678 L94.118,20.658 L92.41,20.658 L92.41,25.054 C92.41,25.768 92.732,26.118 93.32,26.118 C93.684,26.118 93.964,26.062 94.216,25.964 L94.216,26.944 C93.978,27.028 93.698,27.098 93.222,27.098 Z M98.444,27.126 C96.988,27.126 95.896,26.328 95.896,24.312 L95.896,19.678 L97.058,19.678 L97.058,24.256 C97.058,25.544 97.604,26.118 98.752,26.118 C99.788,26.118 100.768,25.432 100.768,24.116 L100.768,19.678 L101.93,19.678 L101.93,27 L100.768,27 L100.768,25.838 C100.432,26.524 99.62,27.126 98.444,27.126 Z M107.04,27.126 C105.122,27.126 103.736,25.768 103.736,23.486 L103.736,23.374 C103.736,21.134 105.136,19.552 107.152,19.552 C108.37,19.552 109.126,20.14 109.546,20.854 L109.546,16.178 L110.708,16.178 L110.708,27 L109.546,27 L109.546,25.74 C109.126,26.454 108.104,27.126 107.04,27.126 Z M107.166,26.16 C108.524,26.16 109.588,25.264 109.588,23.388 L109.588,23.276 C109.588,21.4 108.692,20.518 107.264,20.518 C105.808,20.518 104.94,21.54 104.94,23.318 L104.94,23.43 C104.94,25.278 105.934,26.16 107.166,26.16 Z M116.056,27.126 C113.984,27.126 112.514,25.67 112.514,23.416 L112.514,23.304 C112.514,21.092 113.928,19.552 115.944,19.552 C117.638,19.552 119.234,20.574 119.234,23.192 L119.234,23.57 L113.718,23.57 C113.774,25.236 114.572,26.16 116.07,26.16 C117.204,26.16 117.862,25.74 118.016,24.886 L119.178,24.886 C118.926,26.356 117.708,27.126 116.056,27.126 Z M113.76,22.632 L118.044,22.632 C117.932,21.12 117.148,20.518 115.944,20.518 C114.754,20.518 113.956,21.33 113.76,22.632 Z M121.012,27 L121.012,19.678 L122.174,19.678 L122.174,20.84 C122.51,20.154 123.322,19.552 124.526,19.552 C126.038,19.552 127.102,20.378 127.102,22.506 L127.102,27 L125.94,27 L125.94,22.422 C125.94,21.134 125.394,20.56 124.218,20.56 C123.14,20.56 122.174,21.246 122.174,22.562 L122.174,27 L121.012,27 Z M131.61,27.098 C130.28,27.098 129.636,26.314 129.636,25.166 L129.636,20.658 L128.586,20.658 L128.586,19.678 L129.636,19.678 L129.636,18.012 L130.798,18.012 L130.798,19.678 L132.506,19.678 L132.506,20.658 L130.798,20.658 L130.798,25.054 C130.798,25.768 131.12,26.118 131.708,26.118 C132.072,26.118 132.352,26.062 132.604,25.964 L132.604,26.944 C132.366,27.028 132.086,27.098 131.61,27.098 Z M135.684,24.172 L135.684,23.472 C135.684,22.338 136.426,21.638 137.126,20.952 C137.672,20.406 138.148,19.902 138.148,19.23 C138.148,18.404 137.686,17.83 136.65,17.83 C135.6,17.83 134.886,18.544 134.788,19.65 L133.696,19.65 C133.794,18.012 134.956,16.864 136.664,16.864 C138.568,16.864 139.324,18.012 139.324,19.188 C139.324,20.224 138.624,20.882 137.952,21.526 C137.322,22.128 136.72,22.716 136.72,23.57 L136.72,24.172 L135.684,24.172 Z M136.174,27.07 C135.684,27.07 135.278,26.678 135.278,26.174 C135.278,25.67 135.684,25.278 136.174,25.278 C136.664,25.278 137.07,25.67 137.07,26.174 C137.07,26.678 136.664,27.07 136.174,27.07 Z" id="Areyouastudent?" fill="#000000" fill-rule="nonzero"></path>
                        </g>
                        <g id="Experience" transform="translate(162.000000, 116.000000)">
                            <rect id="Rectangle" fill="#FFDED9" x="0" y="0" width="173" height="44" rx="5.04"></rect>
                            <path d="M21.08,27 L18.476,16.99 L19.722,16.99 L21.752,25.068 L24.104,16.99 L24.972,16.99 L27.324,25.096 L29.382,16.99 L30.516,16.99 L27.912,27 L26.792,27 L24.524,19.09 L22.186,27 L21.08,27 Z M32.168,27 L32.168,16.178 L33.33,16.178 L33.33,20.84 C33.666,20.154 34.478,19.552 35.682,19.552 C37.194,19.552 38.258,20.378 38.258,22.506 L38.258,27 L37.096,27 L37.096,22.422 C37.096,21.134 36.55,20.56 35.374,20.56 C34.296,20.56 33.33,21.246 33.33,22.562 L33.33,27 L32.168,27 Z M42.374,27.126 C41.016,27.126 39.938,26.468 39.938,24.97 C39.938,23.276 41.73,22.702 43.606,22.702 L44.656,22.702 L44.656,22.17 C44.656,21.008 44.208,20.518 43.088,20.518 C42.08,20.518 41.52,20.938 41.408,21.834 L40.246,21.834 C40.4,20.168 41.73,19.552 43.144,19.552 C44.544,19.552 45.818,20.126 45.818,22.17 L45.818,27 L44.656,27 L44.656,26.076 C44.11,26.762 43.452,27.126 42.374,27.126 Z M42.486,26.202 C43.718,26.202 44.656,25.572 44.656,24.438 L44.656,23.528 L43.648,23.528 C42.178,23.528 41.1,23.892 41.1,24.97 C41.1,25.726 41.464,26.202 42.486,26.202 Z M50.326,27.098 C48.996,27.098 48.352,26.314 48.352,25.166 L48.352,20.658 L47.302,20.658 L47.302,19.678 L48.352,19.678 L48.352,18.012 L49.514,18.012 L49.514,19.678 L51.222,19.678 L51.222,20.658 L49.514,20.658 L49.514,25.054 C49.514,25.768 49.836,26.118 50.424,26.118 C50.788,26.118 51.068,26.062 51.32,25.964 L51.32,26.944 C51.082,27.028 50.802,27.098 50.326,27.098 Z M58.614,27.126 C57.256,27.126 56.178,26.468 56.178,24.97 C56.178,23.276 57.97,22.702 59.846,22.702 L60.896,22.702 L60.896,22.17 C60.896,21.008 60.448,20.518 59.328,20.518 C58.32,20.518 57.76,20.938 57.648,21.834 L56.486,21.834 C56.64,20.168 57.97,19.552 59.384,19.552 C60.784,19.552 62.058,20.126 62.058,22.17 L62.058,27 L60.896,27 L60.896,26.076 C60.35,26.762 59.692,27.126 58.614,27.126 Z M58.726,26.202 C59.958,26.202 60.896,25.572 60.896,24.438 L60.896,23.528 L59.888,23.528 C58.418,23.528 57.34,23.892 57.34,24.97 C57.34,25.726 57.704,26.202 58.726,26.202 Z M64.34,27 L64.34,19.678 L65.502,19.678 L65.502,20.994 C65.964,20.168 66.594,19.594 67.91,19.552 L67.91,20.644 C66.44,20.714 65.502,21.176 65.502,22.982 L65.502,27 L64.34,27 Z M72.39,27.126 C70.318,27.126 68.848,25.67 68.848,23.416 L68.848,23.304 C68.848,21.092 70.262,19.552 72.278,19.552 C73.972,19.552 75.568,20.574 75.568,23.192 L75.568,23.57 L70.052,23.57 C70.108,25.236 70.906,26.16 72.404,26.16 C73.538,26.16 74.196,25.74 74.35,24.886 L75.512,24.886 C75.26,26.356 74.042,27.126 72.39,27.126 Z M70.094,22.632 L74.378,22.632 C74.266,21.12 73.482,20.518 72.278,20.518 C71.088,20.518 70.29,21.33 70.094,22.632 Z M81.714,29.548 L83.1,26.244 L80.23,19.678 L81.476,19.678 L83.716,24.928 L85.746,19.678 L86.936,19.678 L82.89,29.548 L81.714,29.548 Z M91.304,26.16 C92.774,26.16 93.698,25.054 93.698,23.402 L93.698,23.304 C93.698,21.61 92.76,20.518 91.304,20.518 C89.834,20.518 88.91,21.61 88.91,23.29 L88.91,23.402 C88.91,25.068 89.82,26.16 91.304,26.16 Z M91.29,27.126 C89.204,27.126 87.706,25.544 87.706,23.402 L87.706,23.29 C87.706,21.092 89.232,19.552 91.304,19.552 C93.376,19.552 94.902,21.078 94.902,23.276 L94.902,23.388 C94.902,25.6 93.376,27.126 91.29,27.126 Z M99.186,27.126 C97.73,27.126 96.638,26.328 96.638,24.312 L96.638,19.678 L97.8,19.678 L97.8,24.256 C97.8,25.544 98.346,26.118 99.494,26.118 C100.53,26.118 101.51,25.432 101.51,24.116 L101.51,19.678 L102.672,19.678 L102.672,27 L101.51,27 L101.51,25.838 C101.174,26.524 100.362,27.126 99.186,27.126 Z M105.024,27 L105.024,19.678 L106.186,19.678 L106.186,20.994 C106.648,20.168 107.278,19.594 108.594,19.552 L108.594,20.644 C107.124,20.714 106.186,21.176 106.186,22.982 L106.186,27 L105.024,27 Z M116.924,29.674 C114.754,29.674 113.802,28.652 113.606,27.42 L114.796,27.42 C114.964,28.26 115.664,28.694 116.91,28.694 C118.352,28.694 119.262,28.008 119.262,26.44 L119.262,25.376 C118.842,26.09 117.848,26.762 116.784,26.762 C114.866,26.762 113.452,25.306 113.452,23.29 L113.452,23.192 C113.452,21.204 114.852,19.552 116.868,19.552 C118.086,19.552 118.842,20.14 119.262,20.854 L119.262,19.678 L120.424,19.678 L120.424,26.51 C120.41,28.638 118.968,29.674 116.924,29.674 Z M116.91,25.796 C118.268,25.796 119.304,24.844 119.304,23.206 L119.304,23.108 C119.304,21.47 118.408,20.518 116.98,20.518 C115.524,20.518 114.656,21.596 114.656,23.136 L114.656,23.248 C114.656,24.844 115.678,25.796 116.91,25.796 Z M125.828,26.16 C127.298,26.16 128.222,25.054 128.222,23.402 L128.222,23.304 C128.222,21.61 127.284,20.518 125.828,20.518 C124.358,20.518 123.434,21.61 123.434,23.29 L123.434,23.402 C123.434,25.068 124.344,26.16 125.828,26.16 Z M125.814,27.126 C123.728,27.126 122.23,25.544 122.23,23.402 L122.23,23.29 C122.23,21.092 123.756,19.552 125.828,19.552 C127.9,19.552 129.426,21.078 129.426,23.276 L129.426,23.388 C129.426,25.6 127.9,27.126 125.814,27.126 Z M133.066,27.126 C131.708,27.126 130.63,26.468 130.63,24.97 C130.63,23.276 132.422,22.702 134.298,22.702 L135.348,22.702 L135.348,22.17 C135.348,21.008 134.9,20.518 133.78,20.518 C132.772,20.518 132.212,20.938 132.1,21.834 L130.938,21.834 C131.092,20.168 132.422,19.552 133.836,19.552 C135.236,19.552 136.51,20.126 136.51,22.17 L136.51,27 L135.348,27 L135.348,26.076 C134.802,26.762 134.144,27.126 133.066,27.126 Z M133.178,26.202 C134.41,26.202 135.348,25.572 135.348,24.438 L135.348,23.528 L134.34,23.528 C132.87,23.528 131.792,23.892 131.792,24.97 C131.792,25.726 132.156,26.202 133.178,26.202 Z M138.82,27 L138.82,16.178 L139.996,16.178 L139.996,27 L138.82,27 Z M144.644,27.126 C142.894,27.126 141.844,26.244 141.774,24.746 L142.908,24.746 C142.992,25.614 143.454,26.16 144.63,26.16 C145.736,26.16 146.226,25.782 146.226,24.998 C146.226,24.228 145.652,23.976 144.518,23.766 C142.614,23.416 141.97,22.884 141.97,21.61 C141.97,20.252 143.3,19.552 144.448,19.552 C145.764,19.552 146.898,20.084 147.094,21.666 L145.974,21.666 C145.806,20.868 145.358,20.518 144.434,20.518 C143.594,20.518 143.048,20.938 143.048,21.568 C143.048,22.226 143.412,22.492 144.756,22.73 C146.268,23.01 147.332,23.346 147.332,24.9 C147.332,26.23 146.422,27.126 144.644,27.126 Z M150.146,24.172 L150.146,23.472 C150.146,22.338 150.888,21.638 151.588,20.952 C152.134,20.406 152.61,19.902 152.61,19.23 C152.61,18.404 152.148,17.83 151.112,17.83 C150.062,17.83 149.348,18.544 149.25,19.65 L148.158,19.65 C148.256,18.012 149.418,16.864 151.126,16.864 C153.03,16.864 153.786,18.012 153.786,19.188 C153.786,20.224 153.086,20.882 152.414,21.526 C151.784,22.128 151.182,22.716 151.182,23.57 L151.182,24.172 L150.146,24.172 Z M150.636,27.07 C150.146,27.07 149.74,26.678 149.74,26.174 C149.74,25.67 150.146,25.278 150.636,25.278 C151.126,25.278 151.532,25.67 151.532,26.174 C151.532,26.678 151.126,27.07 150.636,27.07 Z" id="Whatareyourgoals?" fill="#000000" fill-rule="nonzero"></path>
                        </g>
                        <g id="Age" transform="translate(9.000000, 58.000000)">
                            <rect id="Rectangle" fill="#E7E7F4" x="0" y="0" width="145" height="44" rx="5.04"></rect>
                            <path d="M17.26,27 L17.26,16.99 L18.478,16.99 L18.478,21.526 L23.742,21.526 L23.742,16.99 L24.96,16.99 L24.96,27 L23.742,27 L23.742,22.548 L18.478,22.548 L18.478,27 L17.26,27 Z M30.448,26.16 C31.918,26.16 32.842,25.054 32.842,23.402 L32.842,23.304 C32.842,21.61 31.904,20.518 30.448,20.518 C28.978,20.518 28.054,21.61 28.054,23.29 L28.054,23.402 C28.054,25.068 28.964,26.16 30.448,26.16 Z M30.434,27.126 C28.348,27.126 26.85,25.544 26.85,23.402 L26.85,23.29 C26.85,21.092 28.376,19.552 30.448,19.552 C32.52,19.552 34.046,21.078 34.046,23.276 L34.046,23.388 C34.046,25.6 32.52,27.126 30.434,27.126 Z M37.182,27 L34.928,19.678 L36.188,19.678 L37.896,25.572 L39.674,19.678 L40.682,19.678 L42.348,25.572 L44.07,19.678 L45.26,19.678 L42.978,27 L41.69,27 L40.164,21.512 L38.456,27 L37.182,27 Z M53.296,27.126 C51.378,27.126 49.992,25.768 49.992,23.486 L49.992,23.374 C49.992,21.134 51.392,19.552 53.408,19.552 C54.626,19.552 55.382,20.14 55.802,20.854 L55.802,16.178 L56.964,16.178 L56.964,27 L55.802,27 L55.802,25.74 C55.382,26.454 54.36,27.126 53.296,27.126 Z M53.422,26.16 C54.78,26.16 55.844,25.264 55.844,23.388 L55.844,23.276 C55.844,21.4 54.948,20.518 53.52,20.518 C52.064,20.518 51.196,21.54 51.196,23.318 L51.196,23.43 C51.196,25.278 52.19,26.16 53.422,26.16 Z M62.368,26.16 C63.838,26.16 64.762,25.054 64.762,23.402 L64.762,23.304 C64.762,21.61 63.824,20.518 62.368,20.518 C60.898,20.518 59.974,21.61 59.974,23.29 L59.974,23.402 C59.974,25.068 60.884,26.16 62.368,26.16 Z M62.354,27.126 C60.268,27.126 58.77,25.544 58.77,23.402 L58.77,23.29 C58.77,21.092 60.296,19.552 62.368,19.552 C64.44,19.552 65.966,21.078 65.966,23.276 L65.966,23.388 C65.966,25.6 64.44,27.126 62.354,27.126 Z M72.14,29.548 L73.526,26.244 L70.656,19.678 L71.902,19.678 L74.142,24.928 L76.172,19.678 L77.362,19.678 L73.316,29.548 L72.14,29.548 Z M81.73,26.16 C83.2,26.16 84.124,25.054 84.124,23.402 L84.124,23.304 C84.124,21.61 83.186,20.518 81.73,20.518 C80.26,20.518 79.336,21.61 79.336,23.29 L79.336,23.402 C79.336,25.068 80.246,26.16 81.73,26.16 Z M81.716,27.126 C79.63,27.126 78.132,25.544 78.132,23.402 L78.132,23.29 C78.132,21.092 79.658,19.552 81.73,19.552 C83.802,19.552 85.328,21.078 85.328,23.276 L85.328,23.388 C85.328,25.6 83.802,27.126 81.716,27.126 Z M89.612,27.126 C88.156,27.126 87.064,26.328 87.064,24.312 L87.064,19.678 L88.226,19.678 L88.226,24.256 C88.226,25.544 88.772,26.118 89.92,26.118 C90.956,26.118 91.936,25.432 91.936,24.116 L91.936,19.678 L93.098,19.678 L93.098,27 L91.936,27 L91.936,25.838 C91.6,26.524 90.788,27.126 89.612,27.126 Z M99.412,27 L99.412,20.658 L98.362,20.658 L98.362,19.678 L99.412,19.678 L99.412,18.488 C99.412,17.004 100.14,16.136 101.596,16.136 C101.974,16.136 102.17,16.178 102.464,16.276 L102.464,17.256 C102.254,17.172 101.96,17.102 101.638,17.102 C100.882,17.102 100.574,17.62 100.574,18.362 L100.574,19.678 L102.366,19.678 L102.366,20.658 L100.574,20.658 L100.574,27 L99.412,27 Z M106.65,27.126 C104.578,27.126 103.108,25.67 103.108,23.416 L103.108,23.304 C103.108,21.092 104.522,19.552 106.538,19.552 C108.232,19.552 109.828,20.574 109.828,23.192 L109.828,23.57 L104.312,23.57 C104.368,25.236 105.166,26.16 106.664,26.16 C107.798,26.16 108.456,25.74 108.61,24.886 L109.772,24.886 C109.52,26.356 108.302,27.126 106.65,27.126 Z M104.354,22.632 L108.638,22.632 C108.526,21.12 107.742,20.518 106.538,20.518 C105.348,20.518 104.55,21.33 104.354,22.632 Z M114.602,27.126 C112.53,27.126 111.06,25.67 111.06,23.416 L111.06,23.304 C111.06,21.092 112.474,19.552 114.49,19.552 C116.184,19.552 117.78,20.574 117.78,23.192 L117.78,23.57 L112.264,23.57 C112.32,25.236 113.118,26.16 114.616,26.16 C115.75,26.16 116.408,25.74 116.562,24.886 L117.724,24.886 C117.472,26.356 116.254,27.126 114.602,27.126 Z M112.306,22.632 L116.59,22.632 C116.478,21.12 115.694,20.518 114.49,20.518 C113.3,20.518 112.502,21.33 112.306,22.632 Z M119.586,27 L119.586,16.178 L120.762,16.178 L120.762,27 L119.586,27 Z M124.472,24.172 L124.472,23.472 C124.472,22.338 125.214,21.638 125.914,20.952 C126.46,20.406 126.936,19.902 126.936,19.23 C126.936,18.404 126.474,17.83 125.438,17.83 C124.388,17.83 123.674,18.544 123.576,19.65 L122.484,19.65 C122.582,18.012 123.744,16.864 125.452,16.864 C127.356,16.864 128.112,18.012 128.112,19.188 C128.112,20.224 127.412,20.882 126.74,21.526 C126.11,22.128 125.508,22.716 125.508,23.57 L125.508,24.172 L124.472,24.172 Z M124.962,27.07 C124.472,27.07 124.066,26.678 124.066,26.174 C124.066,25.67 124.472,25.278 124.962,25.278 C125.452,25.278 125.858,25.67 125.858,26.174 C125.858,26.678 125.452,27.07 124.962,27.07 Z" id="Howdoyoufeel?" fill="#000000" fill-rule="nonzero"></path>
                        </g>
                    </g>
                </g>
            </g>
        </g>
    </g>
</svg>