<?xml version="1.0" encoding="UTF-8"?>
<svg width="290px" height="183px" viewBox="0 0 290 183" version="1.1" xmlns="http://www.w3.org/2000/svg" xmlns:xlink="http://www.w3.org/1999/xlink">
    <!-- Generator: Sketch 57.1 (83088) - https://sketch.com -->
    <title>Image-02_mobile</title>
    <desc>Created with Sketch.</desc>
    <defs>
        <rect id="path-1" x="0" y="0" width="375" height="216"></rect>
    </defs>
    <g id="Landing" stroke="none" stroke-width="1" fill="none" fill-rule="evenodd">
        <g id="03-balance_mobile" transform="translate(-42.000000, -1642.000000)">
            <g id="02---Slides" transform="translate(0.000000, 869.000000)">
                <g id="Image-02_mobile" transform="translate(0.000000, 757.000000)">
                    <mask id="mask-2" fill="white">
                        <use xlink:href="#path-1"></use>
                    </mask>
                    <g id="Image-Bg"></g>
                    <g id="Image-02" mask="url(#mask-2)">
                        <g transform="translate(41.000000, 15.000000)">
                            <g id="Focus" stroke="none" stroke-width="1" fill-rule="evenodd" transform="translate(115.160000, 139.280000)">
                                <rect id="Rectangle" fill="#FFDED9" x="0.84" y="0.72" width="175" height="44" rx="4.704"></rect>
                                <path d="M18.17,27.72 L18.17,17.71 L19.388,17.71 L19.388,27.72 L18.17,27.72 Z M27.074,27.72 L24.82,20.398 L26.08,20.398 L27.788,26.292 L29.566,20.398 L30.574,20.398 L32.24,26.292 L33.962,20.398 L35.152,20.398 L32.87,27.72 L31.582,27.72 L30.056,22.232 L28.348,27.72 L27.074,27.72 Z M38.414,27.846 C37.056,27.846 35.978,27.188 35.978,25.69 C35.978,23.996 37.77,23.422 39.646,23.422 L40.696,23.422 L40.696,22.89 C40.696,21.728 40.248,21.238 39.128,21.238 C38.12,21.238 37.56,21.658 37.448,22.554 L36.286,22.554 C36.44,20.888 37.77,20.272 39.184,20.272 C40.584,20.272 41.858,20.846 41.858,22.89 L41.858,27.72 L40.696,27.72 L40.696,26.796 C40.15,27.482 39.492,27.846 38.414,27.846 Z M38.526,26.922 C39.758,26.922 40.696,26.292 40.696,25.158 L40.696,24.248 L39.688,24.248 C38.218,24.248 37.14,24.612 37.14,25.69 C37.14,26.446 37.504,26.922 38.526,26.922 Z M44.14,27.72 L44.14,20.398 L45.302,20.398 L45.302,21.56 C45.638,20.874 46.45,20.272 47.654,20.272 C49.166,20.272 50.23,21.098 50.23,23.226 L50.23,27.72 L49.068,27.72 L49.068,23.142 C49.068,21.854 48.522,21.28 47.346,21.28 C46.268,21.28 45.302,21.966 45.302,23.282 L45.302,27.72 L44.14,27.72 Z M54.738,27.818 C53.408,27.818 52.764,27.034 52.764,25.886 L52.764,21.378 L51.714,21.378 L51.714,20.398 L52.764,20.398 L52.764,18.732 L53.926,18.732 L53.926,20.398 L55.634,20.398 L55.634,21.378 L53.926,21.378 L53.926,25.774 C53.926,26.488 54.248,26.838 54.836,26.838 C55.2,26.838 55.48,26.782 55.732,26.684 L55.732,27.664 C55.494,27.748 55.214,27.818 54.738,27.818 Z M63.418,27.818 C62.088,27.818 61.444,27.034 61.444,25.886 L61.444,21.378 L60.394,21.378 L60.394,20.398 L61.444,20.398 L61.444,18.732 L62.606,18.732 L62.606,20.398 L64.314,20.398 L64.314,21.378 L62.606,21.378 L62.606,25.774 C62.606,26.488 62.928,26.838 63.516,26.838 C63.88,26.838 64.16,26.782 64.412,26.684 L64.412,27.664 C64.174,27.748 63.894,27.818 63.418,27.818 Z M69.214,26.88 C70.684,26.88 71.608,25.774 71.608,24.122 L71.608,24.024 C71.608,22.33 70.67,21.238 69.214,21.238 C67.744,21.238 66.82,22.33 66.82,24.01 L66.82,24.122 C66.82,25.788 67.73,26.88 69.214,26.88 Z M69.2,27.846 C67.114,27.846 65.616,26.264 65.616,24.122 L65.616,24.01 C65.616,21.812 67.142,20.272 69.214,20.272 C71.286,20.272 72.812,21.798 72.812,23.996 L72.812,24.108 C72.812,26.32 71.286,27.846 69.2,27.846 Z M78.58,27.72 L78.58,21.378 L77.53,21.378 L77.53,20.398 L78.58,20.398 L78.58,19.208 C78.58,17.724 79.308,16.856 80.764,16.856 C81.142,16.856 81.338,16.898 81.632,16.996 L81.632,17.976 C81.422,17.892 81.128,17.822 80.806,17.822 C80.05,17.822 79.742,18.34 79.742,19.082 L79.742,20.398 L81.534,20.398 L81.534,21.378 L79.742,21.378 L79.742,27.72 L78.58,27.72 Z M85.874,26.88 C87.344,26.88 88.268,25.774 88.268,24.122 L88.268,24.024 C88.268,22.33 87.33,21.238 85.874,21.238 C84.404,21.238 83.48,22.33 83.48,24.01 L83.48,24.122 C83.48,25.788 84.39,26.88 85.874,26.88 Z M85.86,27.846 C83.774,27.846 82.276,26.264 82.276,24.122 L82.276,24.01 C82.276,21.812 83.802,20.272 85.874,20.272 C87.946,20.272 89.472,21.798 89.472,23.996 L89.472,24.108 C89.472,26.32 87.946,27.846 85.86,27.846 Z M94.316,27.846 C92.272,27.846 90.732,26.404 90.732,24.136 L90.732,24.024 C90.732,21.784 92.328,20.272 94.288,20.272 C95.814,20.272 97.242,20.972 97.466,22.834 L96.318,22.834 C96.136,21.672 95.296,21.238 94.288,21.238 C92.958,21.238 91.936,22.302 91.936,24.024 L91.936,24.136 C91.936,25.928 92.916,26.88 94.33,26.88 C95.366,26.88 96.304,26.278 96.43,25.088 L97.508,25.088 C97.354,26.67 96.08,27.846 94.316,27.846 Z M101.736,27.846 C100.28,27.846 99.188,27.048 99.188,25.032 L99.188,20.398 L100.35,20.398 L100.35,24.976 C100.35,26.264 100.896,26.838 102.044,26.838 C103.08,26.838 104.06,26.152 104.06,24.836 L104.06,20.398 L105.222,20.398 L105.222,27.72 L104.06,27.72 L104.06,26.558 C103.724,27.244 102.912,27.846 101.736,27.846 Z M109.842,27.846 C108.092,27.846 107.042,26.964 106.972,25.466 L108.106,25.466 C108.19,26.334 108.652,26.88 109.828,26.88 C110.934,26.88 111.424,26.502 111.424,25.718 C111.424,24.948 110.85,24.696 109.716,24.486 C107.812,24.136 107.168,23.604 107.168,22.33 C107.168,20.972 108.498,20.272 109.646,20.272 C110.962,20.272 112.096,20.804 112.292,22.386 L111.172,22.386 C111.004,21.588 110.556,21.238 109.632,21.238 C108.792,21.238 108.246,21.658 108.246,22.288 C108.246,22.946 108.61,23.212 109.954,23.45 C111.466,23.73 112.53,24.066 112.53,25.62 C112.53,26.95 111.62,27.846 109.842,27.846 Z M121.644,27.846 C120.454,27.846 119.586,27.244 119.166,26.516 L119.166,27.72 L118.004,27.72 L118.004,16.898 L119.166,16.898 L119.166,21.63 C119.586,20.916 120.58,20.272 121.644,20.272 C123.562,20.272 124.976,21.672 124.976,23.954 L124.976,24.066 C124.976,26.306 123.66,27.846 121.644,27.846 Z M121.532,26.88 C122.988,26.88 123.772,25.9 123.772,24.122 L123.772,24.01 C123.772,22.162 122.75,21.238 121.518,21.238 C120.16,21.238 119.124,22.134 119.124,24.01 L119.124,24.122 C119.124,25.998 120.104,26.88 121.532,26.88 Z M129.778,27.846 C127.706,27.846 126.236,26.39 126.236,24.136 L126.236,24.024 C126.236,21.812 127.65,20.272 129.666,20.272 C131.36,20.272 132.956,21.294 132.956,23.912 L132.956,24.29 L127.44,24.29 C127.496,25.956 128.294,26.88 129.792,26.88 C130.926,26.88 131.584,26.46 131.738,25.606 L132.9,25.606 C132.648,27.076 131.43,27.846 129.778,27.846 Z M127.482,23.352 L131.766,23.352 C131.654,21.84 130.87,21.238 129.666,21.238 C128.476,21.238 127.678,22.05 127.482,23.352 Z M136.96,27.818 C135.63,27.818 134.986,27.034 134.986,25.886 L134.986,21.378 L133.936,21.378 L133.936,20.398 L134.986,20.398 L134.986,18.732 L136.148,18.732 L136.148,20.398 L137.856,20.398 L137.856,21.378 L136.148,21.378 L136.148,25.774 C136.148,26.488 136.47,26.838 137.058,26.838 C137.422,26.838 137.702,26.782 137.954,26.684 L137.954,27.664 C137.716,27.748 137.436,27.818 136.96,27.818 Z M141.93,27.818 C140.6,27.818 139.956,27.034 139.956,25.886 L139.956,21.378 L138.906,21.378 L138.906,20.398 L139.956,20.398 L139.956,18.732 L141.118,18.732 L141.118,20.398 L142.826,20.398 L142.826,21.378 L141.118,21.378 L141.118,25.774 C141.118,26.488 141.44,26.838 142.028,26.838 C142.392,26.838 142.672,26.782 142.924,26.684 L142.924,27.664 C142.686,27.748 142.406,27.818 141.93,27.818 Z M147.67,27.846 C145.598,27.846 144.128,26.39 144.128,24.136 L144.128,24.024 C144.128,21.812 145.542,20.272 147.558,20.272 C149.252,20.272 150.848,21.294 150.848,23.912 L150.848,24.29 L145.332,24.29 C145.388,25.956 146.186,26.88 147.684,26.88 C148.818,26.88 149.476,26.46 149.63,25.606 L150.792,25.606 C150.54,27.076 149.322,27.846 147.67,27.846 Z M145.374,23.352 L149.658,23.352 C149.546,21.84 148.762,21.238 147.558,21.238 C146.368,21.238 145.57,22.05 145.374,23.352 Z M152.626,27.72 L152.626,20.398 L153.788,20.398 L153.788,21.714 C154.25,20.888 154.88,20.314 156.196,20.272 L156.196,21.364 C154.726,21.434 153.788,21.896 153.788,23.702 L153.788,27.72 L152.626,27.72 Z M157.848,27.79 C157.358,27.79 156.952,27.398 156.952,26.894 C156.952,26.39 157.358,25.998 157.848,25.998 C158.338,25.998 158.744,26.39 158.744,26.894 C158.744,27.398 158.338,27.79 157.848,27.79 Z" id="Iwanttofocusbetter." fill="#000000" fill-rule="nonzero"></path>
                            </g>
                            <g id="Anxiety" stroke="none" stroke-width="1" fill-rule="evenodd" transform="translate(0.200000, 0.400000)">
                                <rect id="Rectangle" fill="#E7E7F4" x="0.8" y="0.6" width="160" height="44" rx="4.704"></rect>
                                <path d="M18.33,28 L18.33,17.99 L19.548,17.99 L19.548,28 L18.33,28 Z M28.816,27.16 C30.286,27.16 31.21,26.054 31.21,24.402 L31.21,24.304 C31.21,22.61 30.272,21.518 28.816,21.518 C27.346,21.518 26.422,22.61 26.422,24.29 L26.422,24.402 C26.422,26.068 27.332,27.16 28.816,27.16 Z M28.802,28.126 C26.716,28.126 25.218,26.544 25.218,24.402 L25.218,24.29 C25.218,22.092 26.744,20.552 28.816,20.552 C30.888,20.552 32.414,22.078 32.414,24.276 L32.414,24.388 C32.414,26.6 30.888,28.126 28.802,28.126 Z M34.472,28 L34.472,21.658 L33.422,21.658 L33.422,20.678 L34.472,20.678 L34.472,19.488 C34.472,18.004 35.2,17.136 36.656,17.136 C37.034,17.136 37.23,17.178 37.524,17.276 L37.524,18.256 C37.314,18.172 37.02,18.102 36.698,18.102 C35.942,18.102 35.634,18.62 35.634,19.362 L35.634,20.678 L37.426,20.678 L37.426,21.658 L35.634,21.658 L35.634,28 L34.472,28 Z M41.36,28.098 C40.03,28.098 39.386,27.314 39.386,26.166 L39.386,21.658 L38.336,21.658 L38.336,20.678 L39.386,20.678 L39.386,19.012 L40.548,19.012 L40.548,20.678 L42.256,20.678 L42.256,21.658 L40.548,21.658 L40.548,26.054 C40.548,26.768 40.87,27.118 41.458,27.118 C41.822,27.118 42.102,27.062 42.354,26.964 L42.354,27.944 C42.116,28.028 41.836,28.098 41.36,28.098 Z M47.1,28.126 C45.028,28.126 43.558,26.67 43.558,24.416 L43.558,24.304 C43.558,22.092 44.972,20.552 46.988,20.552 C48.682,20.552 50.278,21.574 50.278,24.192 L50.278,24.57 L44.762,24.57 C44.818,26.236 45.616,27.16 47.114,27.16 C48.248,27.16 48.906,26.74 49.06,25.886 L50.222,25.886 C49.97,27.356 48.752,28.126 47.1,28.126 Z M44.804,23.632 L49.088,23.632 C48.976,22.12 48.192,21.518 46.988,21.518 C45.798,21.518 45,22.33 44.804,23.632 Z M52.056,28 L52.056,20.678 L53.218,20.678 L53.218,21.84 C53.554,21.154 54.366,20.552 55.57,20.552 C57.082,20.552 58.146,21.378 58.146,23.506 L58.146,28 L56.984,28 L56.984,23.422 C56.984,22.134 56.438,21.56 55.262,21.56 C54.184,21.56 53.218,22.246 53.218,23.562 L53.218,28 L52.056,28 Z M64.39,28 L64.39,21.658 L63.34,21.658 L63.34,20.678 L64.39,20.678 L64.39,19.488 C64.39,18.004 65.118,17.136 66.574,17.136 C66.952,17.136 67.148,17.178 67.442,17.276 L67.442,18.256 C67.232,18.172 66.938,18.102 66.616,18.102 C65.86,18.102 65.552,18.62 65.552,19.362 L65.552,20.678 L67.344,20.678 L67.344,21.658 L65.552,21.658 L65.552,28 L64.39,28 Z M71.628,28.126 C69.556,28.126 68.086,26.67 68.086,24.416 L68.086,24.304 C68.086,22.092 69.5,20.552 71.516,20.552 C73.21,20.552 74.806,21.574 74.806,24.192 L74.806,24.57 L69.29,24.57 C69.346,26.236 70.144,27.16 71.642,27.16 C72.776,27.16 73.434,26.74 73.588,25.886 L74.75,25.886 C74.498,27.356 73.28,28.126 71.628,28.126 Z M69.332,23.632 L73.616,23.632 C73.504,22.12 72.72,21.518 71.516,21.518 C70.326,21.518 69.528,22.33 69.332,23.632 Z M79.58,28.126 C77.508,28.126 76.038,26.67 76.038,24.416 L76.038,24.304 C76.038,22.092 77.452,20.552 79.468,20.552 C81.162,20.552 82.758,21.574 82.758,24.192 L82.758,24.57 L77.242,24.57 C77.298,26.236 78.096,27.16 79.594,27.16 C80.728,27.16 81.386,26.74 81.54,25.886 L82.702,25.886 C82.45,27.356 81.232,28.126 79.58,28.126 Z M77.284,23.632 L81.568,23.632 C81.456,22.12 80.672,21.518 79.468,21.518 C78.278,21.518 77.48,22.33 77.284,23.632 Z M84.564,28 L84.564,17.178 L85.74,17.178 L85.74,28 L84.564,28 Z M93.664,28.126 C92.306,28.126 91.228,27.468 91.228,25.97 C91.228,24.276 93.02,23.702 94.896,23.702 L95.946,23.702 L95.946,23.17 C95.946,22.008 95.498,21.518 94.378,21.518 C93.37,21.518 92.81,21.938 92.698,22.834 L91.536,22.834 C91.69,21.168 93.02,20.552 94.434,20.552 C95.834,20.552 97.108,21.126 97.108,23.17 L97.108,28 L95.946,28 L95.946,27.076 C95.4,27.762 94.742,28.126 93.664,28.126 Z M93.776,27.202 C95.008,27.202 95.946,26.572 95.946,25.438 L95.946,24.528 L94.938,24.528 C93.468,24.528 92.39,24.892 92.39,25.97 C92.39,26.726 92.754,27.202 93.776,27.202 Z M99.39,28 L99.39,20.678 L100.552,20.678 L100.552,21.84 C100.888,21.154 101.7,20.552 102.904,20.552 C104.416,20.552 105.48,21.378 105.48,23.506 L105.48,28 L104.318,28 L104.318,23.422 C104.318,22.134 103.772,21.56 102.596,21.56 C101.518,21.56 100.552,22.246 100.552,23.562 L100.552,28 L99.39,28 Z M106.978,28 L109.596,24.234 L107.146,20.678 L108.504,20.678 L110.296,23.338 L112.074,20.678 L113.334,20.678 L110.912,24.15 L113.586,28 L112.214,28 L110.24,25.046 L108.224,28 L106.978,28 Z M115.182,28 L115.182,20.678 L116.344,20.678 L116.344,28 L115.182,28 Z M115.742,19.152 C115.322,19.152 114.972,18.802 114.972,18.382 C114.972,17.962 115.322,17.612 115.742,17.612 C116.162,17.612 116.512,17.962 116.512,18.382 C116.512,18.802 116.162,19.152 115.742,19.152 Z M121.776,27.16 C123.246,27.16 124.17,26.054 124.17,24.402 L124.17,24.304 C124.17,22.61 123.232,21.518 121.776,21.518 C120.306,21.518 119.382,22.61 119.382,24.29 L119.382,24.402 C119.382,26.068 120.292,27.16 121.776,27.16 Z M121.762,28.126 C119.676,28.126 118.178,26.544 118.178,24.402 L118.178,24.29 C118.178,22.092 119.704,20.552 121.776,20.552 C123.848,20.552 125.374,22.078 125.374,24.276 L125.374,24.388 C125.374,26.6 123.848,28.126 121.762,28.126 Z M129.658,28.126 C128.202,28.126 127.11,27.328 127.11,25.312 L127.11,20.678 L128.272,20.678 L128.272,25.256 C128.272,26.544 128.818,27.118 129.966,27.118 C131.002,27.118 131.982,26.432 131.982,25.116 L131.982,20.678 L133.144,20.678 L133.144,28 L131.982,28 L131.982,26.838 C131.646,27.524 130.834,28.126 129.658,28.126 Z M137.764,28.126 C136.014,28.126 134.964,27.244 134.894,25.746 L136.028,25.746 C136.112,26.614 136.574,27.16 137.75,27.16 C138.856,27.16 139.346,26.782 139.346,25.998 C139.346,25.228 138.772,24.976 137.638,24.766 C135.734,24.416 135.09,23.884 135.09,22.61 C135.09,21.252 136.42,20.552 137.568,20.552 C138.884,20.552 140.018,21.084 140.214,22.666 L139.094,22.666 C138.926,21.868 138.478,21.518 137.554,21.518 C136.714,21.518 136.168,21.938 136.168,22.568 C136.168,23.226 136.532,23.492 137.876,23.73 C139.388,24.01 140.452,24.346 140.452,25.9 C140.452,27.23 139.542,28.126 137.764,28.126 Z M143.014,28.07 C142.524,28.07 142.118,27.678 142.118,27.174 C142.118,26.67 142.524,26.278 143.014,26.278 C143.504,26.278 143.91,26.67 143.91,27.174 C143.91,27.678 143.504,28.07 143.014,28.07 Z" id="Ioftenfeelanxious." fill="#000000" fill-rule="nonzero"></path>
                            </g>
                            <polyline id="line1" stroke="#E7E7F4" stroke-width="0.784" transform="translate(54.960000, 67.256000) scale(1, -1) translate(-54.960000, -67.256000) " points="27.52 94.136 27.52 40.376 82.4 40.376"></polyline>
                            <polyline id="line2" stroke="#FFDED9" stroke-width="0.784" transform="translate(229.880000, 121.240000) scale(1, -1) translate(-229.880000, -121.240000) " points="257.32 94.36 257.095048 148.12 202.44 148.12"></polyline>
                            <g id="audio" stroke="none" stroke-width="1" fill-rule="evenodd" transform="translate(58.000000, 74.000000)">
                                <rect id="Rectangle" stroke="#30C5CA" stroke-width="1.2544" fill="#FFFFFF" x="0" y="0" width="176.988" height="39.5136" rx="19.56864"></rect>
                                <g id="purple" transform="translate(16.464000, 8.232000)" fill="#D7D7F5" fill-rule="nonzero">
                                    <path d="M30.87,17.2872 C31.5495142,17.2872 32.1048,16.6950762 32.1048,15.9671789 L32.1048,7.90562115 C32.1048,7.17489515 31.5495142,6.5856 30.87,6.5856 C30.1904858,6.5856 29.6352,7.17489515 29.6352,7.90562115 L29.6352,15.9652931 C29.6352,16.6960191 30.1904858,17.2872 30.87,17.2872 Z" id="Path"></path>
                                    <path d="M40.7484,16.464 C41.4279142,16.464 41.9832,16.0085202 41.9832,15.4485991 L41.9832,9.24740088 C41.9832,8.68530396 41.4279142,8.232 40.7484,8.232 C40.0688858,8.232 39.5136,8.68530396 39.5136,9.24740088 L39.5136,15.4471485 C39.5136,16.0092455 40.0688858,16.464 40.7484,16.464 Z" id="Path"></path>
                                    <path d="M55.566,16.464 C56.2455142,16.464 56.8008,16.0085202 56.8008,15.4485991 L56.8008,9.24740088 C56.8008,8.68530396 56.2455142,8.232 55.566,8.232 C54.8864858,8.232 54.3312,8.68530396 54.3312,9.24740088 L54.3312,15.4471485 C54.3312,16.0092455 54.8864858,16.464 55.566,16.464 Z" id="Path"></path>
                                    <path d="M34.5744,5.87561148 L34.5744,18.8203885 C34.5744,19.3359626 35.1296858,19.7568 35.8092,19.7568 C36.4887142,19.7568 37.044,19.337896 37.044,18.8203885 L37.044,5.87561148 C37.044,5.36003737 36.4887142,4.9392 35.8092,4.9392 C35.1296858,4.9392 34.5744,5.35810397 34.5744,5.87561148 Z" id="Path"></path>
                                    <path d="M45.6876,17.2872 C46.3671142,17.2872 46.9224,16.6950762 46.9224,15.9671789 L46.9224,7.90562115 C46.9224,7.17489515 46.3671142,6.5856 45.6876,6.5856 C45.0080858,6.5856 44.4528,7.17489515 44.4528,7.90562115 L44.4528,15.9652931 C44.4528,16.6960191 45.0080858,17.2872 45.6876,17.2872 Z" id="Path"></path>
                                    <path d="M49.392,5.87561148 L49.392,18.8203885 C49.392,19.3359626 49.9472858,19.7568 50.6268,19.7568 C51.3063142,19.7568 51.8616,19.337896 51.8616,18.8203885 L51.8616,5.87561148 C51.8616,5.36003737 51.3063142,4.9392 50.6268,4.9392 C49.9472858,4.9392 49.392,5.35810397 49.392,5.87561148 Z" id="Path"></path>
                                    <path d="M0,5.10396019 L0,18.7688398 C0,19.3148708 0.555285818,19.7568 1.2348,19.7568 C1.91431418,19.7568 2.4696,19.3141992 2.4696,18.7688398 L2.4696,5.10396019 C2.4696,4.55792917 1.91431418,4.116 1.2348,4.116 C0.555285818,4.116 0,4.55792917 0,5.10396019 Z" id="Path"></path>
                                    <path d="M19.7568,5.10396019 L19.7568,18.7688398 C19.7568,19.3148708 20.3120858,19.7568 20.9916,19.7568 C21.6711142,19.7568 22.2264,19.3141992 22.2264,18.7688398 L22.2264,5.10396019 C22.2264,4.55792917 21.6711142,4.116 20.9916,4.116 C20.3120858,4.116 19.7568,4.55792917 19.7568,5.10396019 Z" id="Path"></path>
                                    <path d="M4.9392,1.03306035 L4.9392,22.8397397 C4.9392,23.4099638 5.473251,23.8728 6.174,23.8728 C6.874749,23.8728 7.4088,23.4105918 7.4088,22.8397397 L7.4088,1.03306035 C7.4088,0.462836155 6.874749,0 6.174,0 C5.473251,0 4.9392,0.462836155 4.9392,1.03306035 Z" id="Path"></path>
                                    <path d="M9.8784,4.38810297 L9.8784,19.484697 C9.8784,20.0896162 10.4312388,20.58 11.1132,20.58 C11.7951612,20.58 12.348,20.0896162 12.348,19.484697 L12.348,4.38810297 C12.348,3.78318384 11.7951612,3.2928 11.1132,3.2928 C10.4312388,3.2928 9.8784,3.78318384 9.8784,4.38810297 Z" id="Path"></path>
                                    <path d="M16.0524,8.232 C15.3728858,8.232 14.8176,8.70594408 14.8176,9.29102482 L14.8176,15.4049752 C14.8176,15.9900559 15.3728858,16.464 16.0524,16.464 C16.7319142,16.464 17.2872,15.9900559 17.2872,15.4049752 L17.2872,9.29102482 C17.2872,8.70666109 16.7319142,8.232 16.0524,8.232 Z" id="Path"></path>
                                    <path d="M25.9308,8.232 C25.2512858,8.232 24.696,8.70594408 24.696,9.29102482 L24.696,15.4049752 C24.696,15.9900559 25.2512858,16.464 25.9308,16.464 C26.6103142,16.464 27.1656,15.9900559 27.1656,15.4049752 L27.1656,9.29102482 C27.1656,8.70666109 26.6103142,8.232 25.9308,8.232 Z" id="Path"></path>
                                    <path d="M74.088,2.57259203 L74.088,22.123408 C74.088,22.6346434 74.622051,23.0496 75.3228,23.0496 C76.023549,23.0496 76.5576,22.6352065 76.5576,22.123408 L76.5576,2.57259203 C76.5576,2.06135655 76.023549,1.6464 75.3228,1.6464 C74.622051,1.6464 74.088,2.06135655 74.088,2.57259203 Z" id="Path"></path>
                                    <path d="M70.3836,19.7568 C71.0631142,19.7568 71.6184,18.9369363 71.6184,17.9290784 L71.6184,6.76692159 C71.6184,5.75514714 71.0631142,4.9392 70.3836,4.9392 C69.7040858,4.9392 69.1488,5.75514714 69.1488,6.76692159 L69.1488,17.9264674 C69.1488,18.9382418 69.7040858,19.7568 70.3836,19.7568 Z" id="Path"></path>
                                    <path d="M59.2704,2.94634761 L59.2704,20.9264524 C59.2704,21.6449143 59.8256858,22.2264 60.5052,22.2264 C61.1847142,22.2264 61.74,21.6440305 61.74,20.9264524 L61.74,2.94634761 C61.74,2.22788574 61.1847142,1.6464 60.5052,1.6464 C59.8256858,1.6464 59.2704,2.22788574 59.2704,2.94634761 Z" id="Path"></path>
                                    <path d="M65.4444,7.4088 C64.7648858,7.4088 64.2096,7.93013849 64.2096,8.57372731 L64.2096,15.2990727 C64.2096,15.9426615 64.7648858,16.464 65.4444,16.464 C66.1239142,16.464 66.6792,15.9426615 66.6792,15.2990727 L66.6792,8.57372731 C66.6792,7.9309272 66.1239142,7.4088 65.4444,7.4088 Z" id="Path"></path>
                                </g>
                                <g id="red" transform="translate(95.491200, 11.524800)" fill="#FDC8BF" fill-rule="nonzero">
                                    <path d="M55.566,13.1712 C56.2455142,13.1712 56.8008,12.7157202 56.8008,12.1557991 L56.8008,5.95460088 C56.8008,5.39250396 56.2455142,4.9392 55.566,4.9392 C54.8864858,4.9392 54.3312,5.39250396 54.3312,5.95460088 L54.3312,12.1543485 C54.3312,12.7164455 54.8864858,13.1712 55.566,13.1712 Z" id="Path"></path>
                                    <path d="M60.5052,13.9944 C61.1847142,13.9944 61.74,13.4022762 61.74,12.6743789 L61.74,4.61282115 C61.74,3.88209515 61.1847142,3.2928 60.5052,3.2928 C59.8256858,3.2928 59.2704,3.88209515 59.2704,4.61282115 L59.2704,12.6724931 C59.2704,13.4032191 59.8256858,13.9944 60.5052,13.9944 Z" id="Path"></path>
                                    <path d="M64.2096,2.58281148 L64.2096,15.5275885 C64.2096,16.0431626 64.7648858,16.464 65.4444,16.464 C66.1239142,16.464 66.6792,16.045096 66.6792,15.5275885 L66.6792,2.58281148 C66.6792,2.06723737 66.1239142,1.6464 65.4444,1.6464 C64.7648858,1.6464 64.2096,2.06530397 64.2096,2.58281148 Z" id="Path"></path>
                                    <path d="M20.9916,13.9944 C21.6711142,13.9944 22.2264,13.4022762 22.2264,12.6743789 L22.2264,4.61282115 C22.2264,3.88209515 21.6711142,3.2928 20.9916,3.2928 C20.3120858,3.2928 19.7568,3.88209515 19.7568,4.61282115 L19.7568,12.6724931 C19.7568,13.4032191 20.3120858,13.9944 20.9916,13.9944 Z" id="Path"></path>
                                    <path d="M30.87,13.1712 C31.5495142,13.1712 32.1048,12.7157202 32.1048,12.1557991 L32.1048,5.95460088 C32.1048,5.39250396 31.5495142,4.9392 30.87,4.9392 C30.1904858,4.9392 29.6352,5.39250396 29.6352,5.95460088 L29.6352,12.1543485 C29.6352,12.7164455 30.1904858,13.1712 30.87,13.1712 Z" id="Path"></path>
                                    <path d="M45.6876,13.1712 C46.3671142,13.1712 46.9224,12.7157202 46.9224,12.1557991 L46.9224,5.95460088 C46.9224,5.39250396 46.3671142,4.9392 45.6876,4.9392 C45.0080858,4.9392 44.4528,5.39250396 44.4528,5.95460088 L44.4528,12.1543485 C44.4528,12.7164455 45.0080858,13.1712 45.6876,13.1712 Z" id="Path"></path>
                                    <path d="M24.696,2.58281148 L24.696,15.5275885 C24.696,16.0431626 25.2512858,16.464 25.9308,16.464 C26.6103142,16.464 27.1656,16.045096 27.1656,15.5275885 L27.1656,2.58281148 C27.1656,2.06723737 26.6103142,1.6464 25.9308,1.6464 C25.2512858,1.6464 24.696,2.06530397 24.696,2.58281148 Z" id="Path"></path>
                                    <path d="M35.8092,13.9944 C36.4887142,13.9944 37.044,13.4022762 37.044,12.6743789 L37.044,4.61282115 C37.044,3.88209515 36.4887142,3.2928 35.8092,3.2928 C35.1296858,3.2928 34.5744,3.88209515 34.5744,4.61282115 L34.5744,12.6724931 C34.5744,13.4032191 35.1296858,13.9944 35.8092,13.9944 Z" id="Path"></path>
                                    <path d="M39.5136,2.58281148 L39.5136,15.5275885 C39.5136,16.0431626 40.0688858,16.464 40.7484,16.464 C41.4279142,16.464 41.9832,16.045096 41.9832,15.5275885 L41.9832,2.58281148 C41.9832,2.06723737 41.4279142,1.6464 40.7484,1.6464 C40.0688858,1.6464 39.5136,2.06530397 39.5136,2.58281148 Z" id="Path"></path>
                                    <path d="M9.8784,1.81116019 L9.8784,15.4760398 C9.8784,16.0220708 10.4336858,16.464 11.1132,16.464 C11.7927142,16.464 12.348,16.0213992 12.348,15.4760398 L12.348,1.81116019 C12.348,1.26512917 11.7927142,0.8232 11.1132,0.8232 C10.4336858,0.8232 9.8784,1.26512917 9.8784,1.81116019 Z" id="Path"></path>
                                    <path d="M0,1.09530297 L0,16.191897 C0,16.7968162 0.552838791,17.2872 1.2348,17.2872 C1.91676121,17.2872 2.4696,16.7968162 2.4696,16.191897 L2.4696,1.09530297 C2.4696,0.490383844 1.91676121,0 1.2348,0 C0.552838791,0 0,0.490383844 0,1.09530297 Z" id="Path"></path>
                                    <path d="M49.392,1.09530297 L49.392,16.191897 C49.392,16.7968162 49.9448388,17.2872 50.6268,17.2872 C51.3087612,17.2872 51.8616,16.7968162 51.8616,16.191897 L51.8616,1.09530297 C51.8616,0.490383844 51.3087612,0 50.6268,0 C49.9448388,0 49.392,0.490383844 49.392,1.09530297 Z" id="Path"></path>
                                    <path d="M6.174,4.9392 C5.49448582,4.9392 4.9392,5.41314408 4.9392,5.99822482 L4.9392,12.1121752 C4.9392,12.6972559 5.49448582,13.1712 6.174,13.1712 C6.85351418,13.1712 7.4088,12.6972559 7.4088,12.1121752 L7.4088,5.99822482 C7.4088,5.41386109 6.85351418,4.9392 6.174,4.9392 Z" id="Path"></path>
                                    <path d="M16.0524,4.9392 C15.3728858,4.9392 14.8176,5.41314408 14.8176,5.99822482 L14.8176,12.1121752 C14.8176,12.6972559 15.3728858,13.1712 16.0524,13.1712 C16.7319142,13.1712 17.2872,12.6972559 17.2872,12.1121752 L17.2872,5.99822482 C17.2872,5.41386109 16.7319142,4.9392 16.0524,4.9392 Z" id="Path"></path>
                                </g>
                            </g>
                        </g>
                    </g>
                </g>
            </g>
        </g>
    </g>
</svg>