<?xml version="1.0" encoding="UTF-8"?>
<svg width="558px" height="393px" viewBox="0 0 558 393" version="1.1" xmlns="http://www.w3.org/2000/svg" xmlns:xlink="http://www.w3.org/1999/xlink">
    <!-- Generator: Sketch 57.1 (83088) - https://sketch.com -->
    <title>Image-02</title>
    <desc>Created with Sketch.</desc>
    <defs>
        <rect id="path-1" x="0" y="0" width="700" height="480"></rect>
        <circle id="path-3" cx="149" cy="149" r="149"></circle>
    </defs>
    <g id="Landing" stroke="none" stroke-width="1" fill="none" fill-rule="evenodd">
        <g id="02-Balance_center" transform="translate(-717.000000, -1614.000000)">
            <g id="02---Slides" transform="translate(0.000000, 819.000000)">
                <g id="Second-slide" transform="translate(152.000000, 751.000000)">
                    <g id="Image-02" transform="translate(487.000000, 0.000000)">
                        <mask id="mask-2" fill="white">
                            <use xlink:href="#path-1"></use>
                        </mask>
                        <g id="Image-Bg"></g>
                        <g id="Image-assets" mask="url(#mask-2)">
                            <g transform="translate(78.000000, 45.000000)">
                                <g id="Focus" stroke="none" fill-rule="evenodd" transform="translate(342.000000, 83.000000)">
                                    <rect id="Rectangle" fill="#FFDED9" x="0" y="0" width="216" height="49" rx="6"></rect>
                                    <path d="M27.52,30 L27.52,18.56 L28.912,18.56 L28.912,30 L27.52,30 Z M37.696,30 L35.12,21.632 L36.56,21.632 L38.512,28.368 L40.544,21.632 L41.696,21.632 L43.6,28.368 L45.568,21.632 L46.928,21.632 L44.32,30 L42.848,30 L41.104,23.728 L39.152,30 L37.696,30 Z M50.656,30.144 C49.104,30.144 47.872,29.392 47.872,27.68 C47.872,25.744 49.92,25.088 52.064,25.088 L53.264,25.088 L53.264,24.48 C53.264,23.152 52.752,22.592 51.472,22.592 C50.32,22.592 49.68,23.072 49.552,24.096 L48.224,24.096 C48.4,22.192 49.92,21.488 51.536,21.488 C53.136,21.488 54.592,22.144 54.592,24.48 L54.592,30 L53.264,30 L53.264,28.944 C52.64,29.728 51.888,30.144 50.656,30.144 Z M50.784,29.088 C52.192,29.088 53.264,28.368 53.264,27.072 L53.264,26.032 L52.112,26.032 C50.432,26.032 49.2,26.448 49.2,27.68 C49.2,28.544 49.616,29.088 50.784,29.088 Z M57.2,30 L57.2,21.632 L58.528,21.632 L58.528,22.96 C58.912,22.176 59.84,21.488 61.216,21.488 C62.944,21.488 64.16,22.432 64.16,24.864 L64.16,30 L62.832,30 L62.832,24.768 C62.832,23.296 62.208,22.64 60.864,22.64 C59.632,22.64 58.528,23.424 58.528,24.928 L58.528,30 L57.2,30 Z M69.312,30.112 C67.792,30.112 67.056,29.216 67.056,27.904 L67.056,22.752 L65.856,22.752 L65.856,21.632 L67.056,21.632 L67.056,19.728 L68.384,19.728 L68.384,21.632 L70.336,21.632 L70.336,22.752 L68.384,22.752 L68.384,27.776 C68.384,28.592 68.752,28.992 69.424,28.992 C69.84,28.992 70.16,28.928 70.448,28.816 L70.448,29.936 C70.176,30.032 69.856,30.112 69.312,30.112 Z M79.232,30.112 C77.712,30.112 76.976,29.216 76.976,27.904 L76.976,22.752 L75.776,22.752 L75.776,21.632 L76.976,21.632 L76.976,19.728 L78.304,19.728 L78.304,21.632 L80.256,21.632 L80.256,22.752 L78.304,22.752 L78.304,27.776 C78.304,28.592 78.672,28.992 79.344,28.992 C79.76,28.992 80.08,28.928 80.368,28.816 L80.368,29.936 C80.096,30.032 79.776,30.112 79.232,30.112 Z M85.856,29.04 C87.536,29.04 88.592,27.776 88.592,25.888 L88.592,25.776 C88.592,23.84 87.52,22.592 85.856,22.592 C84.176,22.592 83.12,23.84 83.12,25.76 L83.12,25.888 C83.12,27.792 84.16,29.04 85.856,29.04 Z M85.84,30.144 C83.456,30.144 81.744,28.336 81.744,25.888 L81.744,25.76 C81.744,23.248 83.488,21.488 85.856,21.488 C88.224,21.488 89.968,23.232 89.968,25.744 L89.968,25.872 C89.968,28.4 88.224,30.144 85.84,30.144 Z M96.56,30 L96.56,22.752 L95.36,22.752 L95.36,21.632 L96.56,21.632 L96.56,20.272 C96.56,18.576 97.392,17.584 99.056,17.584 C99.488,17.584 99.712,17.632 100.048,17.744 L100.048,18.864 C99.808,18.768 99.472,18.688 99.104,18.688 C98.24,18.688 97.888,19.28 97.888,20.128 L97.888,21.632 L99.936,21.632 L99.936,22.752 L97.888,22.752 L97.888,30 L96.56,30 Z M104.896,29.04 C106.576,29.04 107.632,27.776 107.632,25.888 L107.632,25.776 C107.632,23.84 106.56,22.592 104.896,22.592 C103.216,22.592 102.16,23.84 102.16,25.76 L102.16,25.888 C102.16,27.792 103.2,29.04 104.896,29.04 Z M104.88,30.144 C102.496,30.144 100.784,28.336 100.784,25.888 L100.784,25.76 C100.784,23.248 102.528,21.488 104.896,21.488 C107.264,21.488 109.008,23.232 109.008,25.744 L109.008,25.872 C109.008,28.4 107.264,30.144 104.88,30.144 Z M114.544,30.144 C112.208,30.144 110.448,28.496 110.448,25.904 L110.448,25.776 C110.448,23.216 112.272,21.488 114.512,21.488 C116.256,21.488 117.888,22.288 118.144,24.416 L116.832,24.416 C116.624,23.088 115.664,22.592 114.512,22.592 C112.992,22.592 111.824,23.808 111.824,25.776 L111.824,25.904 C111.824,27.952 112.944,29.04 114.56,29.04 C115.744,29.04 116.816,28.352 116.96,26.992 L118.192,26.992 C118.016,28.8 116.56,30.144 114.544,30.144 Z M123.024,30.144 C121.36,30.144 120.112,29.232 120.112,26.928 L120.112,21.632 L121.44,21.632 L121.44,26.864 C121.44,28.336 122.064,28.992 123.376,28.992 C124.56,28.992 125.68,28.208 125.68,26.704 L125.68,21.632 L127.008,21.632 L127.008,30 L125.68,30 L125.68,28.672 C125.296,29.456 124.368,30.144 123.024,30.144 Z M132.288,30.144 C130.288,30.144 129.088,29.136 129.008,27.424 L130.304,27.424 C130.4,28.416 130.928,29.04 132.272,29.04 C133.536,29.04 134.096,28.608 134.096,27.712 C134.096,26.832 133.44,26.544 132.144,26.304 C129.968,25.904 129.232,25.296 129.232,23.84 C129.232,22.288 130.752,21.488 132.064,21.488 C133.568,21.488 134.864,22.096 135.088,23.904 L133.808,23.904 C133.616,22.992 133.104,22.592 132.048,22.592 C131.088,22.592 130.464,23.072 130.464,23.792 C130.464,24.544 130.88,24.848 132.416,25.12 C134.144,25.44 135.36,25.824 135.36,27.6 C135.36,29.12 134.32,30.144 132.288,30.144 Z M145.776,30.144 C144.416,30.144 143.424,29.456 142.944,28.624 L142.944,30 L141.616,30 L141.616,17.632 L142.944,17.632 L142.944,23.04 C143.424,22.224 144.56,21.488 145.776,21.488 C147.968,21.488 149.584,23.088 149.584,25.696 L149.584,25.824 C149.584,28.384 148.08,30.144 145.776,30.144 Z M145.648,29.04 C147.312,29.04 148.208,27.92 148.208,25.888 L148.208,25.76 C148.208,23.648 147.04,22.592 145.632,22.592 C144.08,22.592 142.896,23.616 142.896,25.76 L142.896,25.888 C142.896,28.032 144.016,29.04 145.648,29.04 Z M155.072,30.144 C152.704,30.144 151.024,28.48 151.024,25.904 L151.024,25.776 C151.024,23.248 152.64,21.488 154.944,21.488 C156.88,21.488 158.704,22.656 158.704,25.648 L158.704,26.08 L152.4,26.08 C152.464,27.984 153.376,29.04 155.088,29.04 C156.384,29.04 157.136,28.56 157.312,27.584 L158.64,27.584 C158.352,29.264 156.96,30.144 155.072,30.144 Z M152.448,25.008 L157.344,25.008 C157.216,23.28 156.32,22.592 154.944,22.592 C153.584,22.592 152.672,23.52 152.448,25.008 Z M163.28,30.112 C161.76,30.112 161.024,29.216 161.024,27.904 L161.024,22.752 L159.824,22.752 L159.824,21.632 L161.024,21.632 L161.024,19.728 L162.352,19.728 L162.352,21.632 L164.304,21.632 L164.304,22.752 L162.352,22.752 L162.352,27.776 C162.352,28.592 162.72,28.992 163.392,28.992 C163.808,28.992 164.128,28.928 164.416,28.816 L164.416,29.936 C164.144,30.032 163.824,30.112 163.28,30.112 Z M168.96,30.112 C167.44,30.112 166.704,29.216 166.704,27.904 L166.704,22.752 L165.504,22.752 L165.504,21.632 L166.704,21.632 L166.704,19.728 L168.032,19.728 L168.032,21.632 L169.984,21.632 L169.984,22.752 L168.032,22.752 L168.032,27.776 C168.032,28.592 168.4,28.992 169.072,28.992 C169.488,28.992 169.808,28.928 170.096,28.816 L170.096,29.936 C169.824,30.032 169.504,30.112 168.96,30.112 Z M175.52,30.144 C173.152,30.144 171.472,28.48 171.472,25.904 L171.472,25.776 C171.472,23.248 173.088,21.488 175.392,21.488 C177.328,21.488 179.152,22.656 179.152,25.648 L179.152,26.08 L172.848,26.08 C172.912,27.984 173.824,29.04 175.536,29.04 C176.832,29.04 177.584,28.56 177.76,27.584 L179.088,27.584 C178.8,29.264 177.408,30.144 175.52,30.144 Z M172.896,25.008 L177.792,25.008 C177.664,23.28 176.768,22.592 175.392,22.592 C174.032,22.592 173.12,23.52 172.896,25.008 Z M181.184,30 L181.184,21.632 L182.512,21.632 L182.512,23.136 C183.04,22.192 183.76,21.536 185.264,21.488 L185.264,22.736 C183.584,22.816 182.512,23.344 182.512,25.408 L182.512,30 L181.184,30 Z M187.152,30.08 C186.592,30.08 186.128,29.632 186.128,29.056 C186.128,28.48 186.592,28.032 187.152,28.032 C187.712,28.032 188.176,28.48 188.176,29.056 C188.176,29.632 187.712,30.08 187.152,30.08 Z" id="Iwanttofocusbetter." fill="#000000" fill-rule="nonzero"></path>
                                </g>
                                <g id="Anxiety" stroke="none" fill-rule="evenodd" transform="translate(0.000000, 83.000000)">
                                    <rect id="Rectangle" fill="#E7E7F4" x="0" y="0" width="190" height="49" rx="6"></rect>
                                    <path d="M23.52,30 L23.52,18.56 L24.912,18.56 L24.912,30 L23.52,30 Z M35.504,29.04 C37.184,29.04 38.24,27.776 38.24,25.888 L38.24,25.776 C38.24,23.84 37.168,22.592 35.504,22.592 C33.824,22.592 32.768,23.84 32.768,25.76 L32.768,25.888 C32.768,27.792 33.808,29.04 35.504,29.04 Z M35.488,30.144 C33.104,30.144 31.392,28.336 31.392,25.888 L31.392,25.76 C31.392,23.248 33.136,21.488 35.504,21.488 C37.872,21.488 39.616,23.232 39.616,25.744 L39.616,25.872 C39.616,28.4 37.872,30.144 35.488,30.144 Z M41.968,30 L41.968,22.752 L40.768,22.752 L40.768,21.632 L41.968,21.632 L41.968,20.272 C41.968,18.576 42.8,17.584 44.464,17.584 C44.896,17.584 45.12,17.632 45.456,17.744 L45.456,18.864 C45.216,18.768 44.88,18.688 44.512,18.688 C43.648,18.688 43.296,19.28 43.296,20.128 L43.296,21.632 L45.344,21.632 L45.344,22.752 L43.296,22.752 L43.296,30 L41.968,30 Z M49.84,30.112 C48.32,30.112 47.584,29.216 47.584,27.904 L47.584,22.752 L46.384,22.752 L46.384,21.632 L47.584,21.632 L47.584,19.728 L48.912,19.728 L48.912,21.632 L50.864,21.632 L50.864,22.752 L48.912,22.752 L48.912,27.776 C48.912,28.592 49.28,28.992 49.952,28.992 C50.368,28.992 50.688,28.928 50.976,28.816 L50.976,29.936 C50.704,30.032 50.384,30.112 49.84,30.112 Z M56.4,30.144 C54.032,30.144 52.352,28.48 52.352,25.904 L52.352,25.776 C52.352,23.248 53.968,21.488 56.272,21.488 C58.208,21.488 60.032,22.656 60.032,25.648 L60.032,26.08 L53.728,26.08 C53.792,27.984 54.704,29.04 56.416,29.04 C57.712,29.04 58.464,28.56 58.64,27.584 L59.968,27.584 C59.68,29.264 58.288,30.144 56.4,30.144 Z M53.776,25.008 L58.672,25.008 C58.544,23.28 57.648,22.592 56.272,22.592 C54.912,22.592 54,23.52 53.776,25.008 Z M62.064,30 L62.064,21.632 L63.392,21.632 L63.392,22.96 C63.776,22.176 64.704,21.488 66.08,21.488 C67.808,21.488 69.024,22.432 69.024,24.864 L69.024,30 L67.696,30 L67.696,24.768 C67.696,23.296 67.072,22.64 65.728,22.64 C64.496,22.64 63.392,23.424 63.392,24.928 L63.392,30 L62.064,30 Z M76.16,30 L76.16,22.752 L74.96,22.752 L74.96,21.632 L76.16,21.632 L76.16,20.272 C76.16,18.576 76.992,17.584 78.656,17.584 C79.088,17.584 79.312,17.632 79.648,17.744 L79.648,18.864 C79.408,18.768 79.072,18.688 78.704,18.688 C77.84,18.688 77.488,19.28 77.488,20.128 L77.488,21.632 L79.536,21.632 L79.536,22.752 L77.488,22.752 L77.488,30 L76.16,30 Z M84.432,30.144 C82.064,30.144 80.384,28.48 80.384,25.904 L80.384,25.776 C80.384,23.248 82,21.488 84.304,21.488 C86.24,21.488 88.064,22.656 88.064,25.648 L88.064,26.08 L81.76,26.08 C81.824,27.984 82.736,29.04 84.448,29.04 C85.744,29.04 86.496,28.56 86.672,27.584 L88,27.584 C87.712,29.264 86.32,30.144 84.432,30.144 Z M81.808,25.008 L86.704,25.008 C86.576,23.28 85.68,22.592 84.304,22.592 C82.944,22.592 82.032,23.52 81.808,25.008 Z M93.52,30.144 C91.152,30.144 89.472,28.48 89.472,25.904 L89.472,25.776 C89.472,23.248 91.088,21.488 93.392,21.488 C95.328,21.488 97.152,22.656 97.152,25.648 L97.152,26.08 L90.848,26.08 C90.912,27.984 91.824,29.04 93.536,29.04 C94.832,29.04 95.584,28.56 95.76,27.584 L97.088,27.584 C96.8,29.264 95.408,30.144 93.52,30.144 Z M90.896,25.008 L95.792,25.008 C95.664,23.28 94.768,22.592 93.392,22.592 C92.032,22.592 91.12,23.52 90.896,25.008 Z M99.216,30 L99.216,17.632 L100.56,17.632 L100.56,30 L99.216,30 Z M109.616,30.144 C108.064,30.144 106.832,29.392 106.832,27.68 C106.832,25.744 108.88,25.088 111.024,25.088 L112.224,25.088 L112.224,24.48 C112.224,23.152 111.712,22.592 110.432,22.592 C109.28,22.592 108.64,23.072 108.512,24.096 L107.184,24.096 C107.36,22.192 108.88,21.488 110.496,21.488 C112.096,21.488 113.552,22.144 113.552,24.48 L113.552,30 L112.224,30 L112.224,28.944 C111.6,29.728 110.848,30.144 109.616,30.144 Z M109.744,29.088 C111.152,29.088 112.224,28.368 112.224,27.072 L112.224,26.032 L111.072,26.032 C109.392,26.032 108.16,26.448 108.16,27.68 C108.16,28.544 108.576,29.088 109.744,29.088 Z M116.16,30 L116.16,21.632 L117.488,21.632 L117.488,22.96 C117.872,22.176 118.8,21.488 120.176,21.488 C121.904,21.488 123.12,22.432 123.12,24.864 L123.12,30 L121.792,30 L121.792,24.768 C121.792,23.296 121.168,22.64 119.824,22.64 C118.592,22.64 117.488,23.424 117.488,24.928 L117.488,30 L116.16,30 Z M124.832,30 L127.824,25.696 L125.024,21.632 L126.576,21.632 L128.624,24.672 L130.656,21.632 L132.096,21.632 L129.328,25.6 L132.384,30 L130.816,30 L128.56,26.624 L126.256,30 L124.832,30 Z M134.208,30 L134.208,21.632 L135.536,21.632 L135.536,30 L134.208,30 Z M134.848,19.888 C134.368,19.888 133.968,19.488 133.968,19.008 C133.968,18.528 134.368,18.128 134.848,18.128 C135.328,18.128 135.728,18.528 135.728,19.008 C135.728,19.488 135.328,19.888 134.848,19.888 Z M141.744,29.04 C143.424,29.04 144.48,27.776 144.48,25.888 L144.48,25.776 C144.48,23.84 143.408,22.592 141.744,22.592 C140.064,22.592 139.008,23.84 139.008,25.76 L139.008,25.888 C139.008,27.792 140.048,29.04 141.744,29.04 Z M141.728,30.144 C139.344,30.144 137.632,28.336 137.632,25.888 L137.632,25.76 C137.632,23.248 139.376,21.488 141.744,21.488 C144.112,21.488 145.856,23.232 145.856,25.744 L145.856,25.872 C145.856,28.4 144.112,30.144 141.728,30.144 Z M150.752,30.144 C149.088,30.144 147.84,29.232 147.84,26.928 L147.84,21.632 L149.168,21.632 L149.168,26.864 C149.168,28.336 149.792,28.992 151.104,28.992 C152.288,28.992 153.408,28.208 153.408,26.704 L153.408,21.632 L154.736,21.632 L154.736,30 L153.408,30 L153.408,28.672 C153.024,29.456 152.096,30.144 150.752,30.144 Z M160.016,30.144 C158.016,30.144 156.816,29.136 156.736,27.424 L158.032,27.424 C158.128,28.416 158.656,29.04 160,29.04 C161.264,29.04 161.824,28.608 161.824,27.712 C161.824,26.832 161.168,26.544 159.872,26.304 C157.696,25.904 156.96,25.296 156.96,23.84 C156.96,22.288 158.48,21.488 159.792,21.488 C161.296,21.488 162.592,22.096 162.816,23.904 L161.536,23.904 C161.344,22.992 160.832,22.592 159.776,22.592 C158.816,22.592 158.192,23.072 158.192,23.792 C158.192,24.544 158.608,24.848 160.144,25.12 C161.872,25.44 163.088,25.824 163.088,27.6 C163.088,29.12 162.048,30.144 160.016,30.144 Z M166.016,30.08 C165.456,30.08 164.992,29.632 164.992,29.056 C164.992,28.48 165.456,28.032 166.016,28.032 C166.576,28.032 167.04,28.48 167.04,29.056 C167.04,29.632 166.576,30.08 166.016,30.08 Z" id="Ioftenfeelanxious." fill="#000000" fill-rule="nonzero"></path>
                                </g>
                                <polyline id="line1" stroke="#E7E7F4" transform="translate(130.000000, 54.000000) scale(1, -1) translate(-130.000000, -54.000000) " points="95 24 95 84 165 84"></polyline>
                                <polyline id="line2" stroke="#FFDED9" transform="translate(415.000000, 54.000000) scale(1, -1) translate(-415.000000, -54.000000) " points="450 24 449.713071 84 380 84"></polyline>
                                <g id="audio" stroke="none" fill-rule="evenodd" transform="translate(165.000000, 0.000000)">
                                    <rect id="Rectangle" stroke="#30C5CA" stroke-width="1.52380952" fill="#FFFFFF" x="0" y="0" width="215" height="48" rx="23.7714286"></rect>
                                    <g id="purple" transform="translate(20.000000, 10.000000)" fill="#D7D7F5" fill-rule="nonzero">
                                        <path d="M37.5,21 C38.3254545,21 39,20.2807048 39,19.3964758 L39,9.60352423 C39,8.71585903 38.3254545,8 37.5,8 C36.6745455,8 36,8.71585903 36,9.60352423 L36,19.394185 C36,20.2818502 36.6745455,21 37.5,21 Z" id="Path"></path>
                                        <path d="M49.5,20 C50.3254545,20 51,19.446696 51,18.7665198 L51,11.2334802 C51,10.5506608 50.3254545,10 49.5,10 C48.6745455,10 48,10.5506608 48,11.2334802 L48,18.7647577 C48,19.4475771 48.6745455,20 49.5,20 Z" id="Path"></path>
                                        <path d="M67.5,20 C68.3254545,20 69,19.446696 69,18.7665198 L69,11.2334802 C69,10.5506608 68.3254545,10 67.5,10 C66.6745455,10 66,10.5506608 66,11.2334802 L66,18.7647577 C66,19.4475771 66.6745455,20 67.5,20 Z" id="Path"></path>
                                        <path d="M42,7.1375261 L42,22.8624739 C42,23.4887787 42.6745455,24 43.5,24 C44.3254545,24 45,23.4911273 45,22.8624739 L45,7.1375261 C45,6.51122129 44.3254545,6 43.5,6 C42.6745455,6 42,6.50887265 42,7.1375261 Z" id="Path"></path>
                                        <path d="M55.5,21 C56.3254545,21 57,20.2807048 57,19.3964758 L57,9.60352423 C57,8.71585903 56.3254545,8 55.5,8 C54.6745455,8 54,8.71585903 54,9.60352423 L54,19.394185 C54,20.2818502 54.6745455,21 55.5,21 Z" id="Path"></path>
                                        <path d="M60,7.1375261 L60,22.8624739 C60,23.4887787 60.6745455,24 61.5,24 C62.3254545,24 63,23.4911273 63,22.8624739 L63,7.1375261 C63,6.51122129 62.3254545,6 61.5,6 C60.6745455,6 60,6.50887265 60,7.1375261 Z" id="Path"></path>
                                        <path d="M0,6.200146 L0,22.799854 C0,23.463157 0.674545455,24 1.5,24 C2.32545455,24 3,23.4623411 3,22.799854 L3,6.200146 C3,5.53684301 2.32545455,5 1.5,5 C0.674545455,5 0,5.53684301 0,6.200146 Z" id="Path"></path>
                                        <path d="M24,6.200146 L24,22.799854 C24,23.463157 24.6745455,24 25.5,24 C26.3254545,24 27,23.4623411 27,22.799854 L27,6.200146 C27,5.53684301 26.3254545,5 25.5,5 C24.6745455,5 24,5.53684301 24,6.200146 Z" id="Path"></path>
                                        <path d="M6,1.25493239 L6,27.7450676 C6,28.4377598 6.64875,29 7.5,29 C8.35125,29 9,28.4385226 9,27.7450676 L9,1.25493239 C9,0.562240227 8.35125,0 7.5,0 C6.64875,0 6,0.562240227 6,1.25493239 Z" id="Path"></path>
                                        <path d="M12,5.33054297 L12,23.669457 C12,24.4042956 12.6715729,25 13.5,25 C14.3284271,25 15,24.4042956 15,23.669457 L15,5.33054297 C15,4.59570438 14.3284271,4 13.5,4 C12.6715729,4 12,4.59570438 12,5.33054297 Z" id="Path"></path>
                                        <path d="M19.5,10 C18.6745455,10 18,10.5757338 18,11.2864733 L18,18.7135267 C18,19.4242662 18.6745455,20 19.5,20 C20.3254545,20 21,19.4242662 21,18.7135267 L21,11.2864733 C21,10.5766048 20.3254545,10 19.5,10 Z" id="Path"></path>
                                        <path d="M31.5,10 C30.6745455,10 30,10.5757338 30,11.2864733 L30,18.7135267 C30,19.4242662 30.6745455,20 31.5,20 C32.3254545,20 33,19.4242662 33,18.7135267 L33,11.2864733 C33,10.5766048 32.3254545,10 31.5,10 Z" id="Path"></path>
                                        <path d="M90,3.1251118 L90,26.8748882 C90,27.4959226 90.64875,28 91.5,28 C92.35125,28 93,27.4966065 93,26.8748882 L93,3.1251118 C93,2.50407745 92.35125,2 91.5,2 C90.64875,2 90,2.50407745 90,3.1251118 Z" id="Path"></path>
                                        <path d="M85.5,24 C86.3254545,24 87,23.0040529 87,21.7797357 L87,8.22026432 C87,6.99118943 86.3254545,6 85.5,6 C84.6745455,6 84,6.99118943 84,8.22026432 L84,21.7765639 C84,23.0056388 84.6745455,24 85.5,24 Z" id="Path"></path>
                                        <path d="M72,3.57913947 L72,25.4208605 C72,26.2936276 72.6745455,27 73.5,27 C74.3254545,27 75,26.2925541 75,25.4208605 L75,3.57913947 C75,2.70637238 74.3254545,2 73.5,2 C72.6745455,2 72,2.70637238 72,3.57913947 Z" id="Path"></path>
                                        <path d="M79.5,9 C78.6745455,9 78,9.6333072 78,10.4151206 L78,18.5848794 C78,19.3666928 78.6745455,20 79.5,20 C80.3254545,20 81,19.3666928 81,18.5848794 L81,10.4151206 C81,9.63426531 80.3254545,9 79.5,9 Z" id="Path"></path>
                                    </g>
                                    <g id="red" transform="translate(116.000000, 14.000000)" fill="#FDC8BF" fill-rule="nonzero">
                                        <path d="M67.5,16 C68.3254545,16 69,15.446696 69,14.7665198 L69,7.23348018 C69,6.55066079 68.3254545,6 67.5,6 C66.6745455,6 66,6.55066079 66,7.23348018 L66,14.7647577 C66,15.4475771 66.6745455,16 67.5,16 Z" id="Path"></path>
                                        <path d="M73.5,17 C74.3254545,17 75,16.2807048 75,15.3964758 L75,5.60352423 C75,4.71585903 74.3254545,4 73.5,4 C72.6745455,4 72,4.71585903 72,5.60352423 L72,15.394185 C72,16.2818502 72.6745455,17 73.5,17 Z" id="Path"></path>
                                        <path d="M78,3.1375261 L78,18.8624739 C78,19.4887787 78.6745455,20 79.5,20 C80.3254545,20 81,19.4911273 81,18.8624739 L81,3.1375261 C81,2.51122129 80.3254545,2 79.5,2 C78.6745455,2 78,2.50887265 78,3.1375261 Z" id="Path"></path>
                                        <path d="M25.5,17 C26.3254545,17 27,16.2807048 27,15.3964758 L27,5.60352423 C27,4.71585903 26.3254545,4 25.5,4 C24.6745455,4 24,4.71585903 24,5.60352423 L24,15.394185 C24,16.2818502 24.6745455,17 25.5,17 Z" id="Path"></path>
                                        <path d="M37.5,16 C38.3254545,16 39,15.446696 39,14.7665198 L39,7.23348018 C39,6.55066079 38.3254545,6 37.5,6 C36.6745455,6 36,6.55066079 36,7.23348018 L36,14.7647577 C36,15.4475771 36.6745455,16 37.5,16 Z" id="Path"></path>
                                        <path d="M55.5,16 C56.3254545,16 57,15.446696 57,14.7665198 L57,7.23348018 C57,6.55066079 56.3254545,6 55.5,6 C54.6745455,6 54,6.55066079 54,7.23348018 L54,14.7647577 C54,15.4475771 54.6745455,16 55.5,16 Z" id="Path"></path>
                                        <path d="M30,3.1375261 L30,18.8624739 C30,19.4887787 30.6745455,20 31.5,20 C32.3254545,20 33,19.4911273 33,18.8624739 L33,3.1375261 C33,2.51122129 32.3254545,2 31.5,2 C30.6745455,2 30,2.50887265 30,3.1375261 Z" id="Path"></path>
                                        <path d="M43.5,17 C44.3254545,17 45,16.2807048 45,15.3964758 L45,5.60352423 C45,4.71585903 44.3254545,4 43.5,4 C42.6745455,4 42,4.71585903 42,5.60352423 L42,15.394185 C42,16.2818502 42.6745455,17 43.5,17 Z" id="Path"></path>
                                        <path d="M48,3.1375261 L48,18.8624739 C48,19.4887787 48.6745455,20 49.5,20 C50.3254545,20 51,19.4911273 51,18.8624739 L51,3.1375261 C51,2.51122129 50.3254545,2 49.5,2 C48.6745455,2 48,2.50887265 48,3.1375261 Z" id="Path"></path>
                                        <path d="M12,2.200146 L12,18.799854 C12,19.463157 12.6745455,20 13.5,20 C14.3254545,20 15,19.4623411 15,18.799854 L15,2.200146 C15,1.53684301 14.3254545,1 13.5,1 C12.6745455,1 12,1.53684301 12,2.200146 Z" id="Path"></path>
                                        <path d="M0,1.33054297 L0,19.669457 C0,20.4042956 0.671572875,21 1.5,21 C2.32842712,21 3,20.4042956 3,19.669457 L3,1.33054297 C3,0.595704378 2.32842712,0 1.5,0 C0.671572875,0 0,0.595704378 0,1.33054297 Z" id="Path"></path>
                                        <path d="M60,1.33054297 L60,19.669457 C60,20.4042956 60.6715729,21 61.5,21 C62.3284271,21 63,20.4042956 63,19.669457 L63,1.33054297 C63,0.595704378 62.3284271,0 61.5,0 C60.6715729,0 60,0.595704378 60,1.33054297 Z" id="Path"></path>
                                        <path d="M7.5,6 C6.67454545,6 6,6.57573382 6,7.2864733 L6,14.7135267 C6,15.4242662 6.67454545,16 7.5,16 C8.32545455,16 9,15.4242662 9,14.7135267 L9,7.2864733 C9,6.57660483 8.32545455,6 7.5,6 Z" id="Path"></path>
                                        <path d="M19.5,6 C18.6745455,6 18,6.57573382 18,7.2864733 L18,14.7135267 C18,15.4242662 18.6745455,16 19.5,16 C20.3254545,16 21,15.4242662 21,14.7135267 L21,7.2864733 C21,6.57660483 20.3254545,6 19.5,6 Z" id="Path"></path>
                                    </g>
                                </g>
                                <g id="Group" stroke="none" fill-rule="evenodd" transform="translate(123.000000, 94.000000)">
                                    <mask id="mask-4" fill="white">
                                        <use xlink:href="#path-3"></use>
                                    </mask>
                                    <g id="Mask"></g>
                                    <g id="person" mask="url(#mask-4)">
                                        <g transform="translate(17.000000, 62.000000)">
                                            <g id="Group-61" transform="translate(0.000000, 0.996512)">
                                                <g id="Group-4" transform="translate(93.990769, 4.557949)">
                                                    <path d="M37.4707881,86.0032981 C52.5745214,86.1565647 74.8790014,84.1111514 76.1887348,70.8716981 C77.5012548,57.5988047 73.7671214,41.8624981 68.1408414,21.3024714 C62.7068414,1.45025805 38.0615614,0.310511385 38.0615614,0.310511385 L37.8609214,0.310511385 C37.8609214,0.310511385 13.7757614,1.45025805 8.34176144,21.3024714 C2.71548144,41.8624981 -1.0186519,57.5988047 0.293868103,70.8716981 C1.60081477,84.1111514 23.9052948,86.1565647 39.0118148,86.0032981" id="Fill-1" fill="#000000"></path>
                                                    <path d="M37.4707881,86.0032981 C52.5745214,86.1565647 74.8790014,84.1111514 76.1887348,70.8716981 C77.5012548,57.5988047 73.7671214,41.8624981 68.1408414,21.3024714 C62.7068414,1.45025805 38.0615614,0.310511385 38.0615614,0.310511385 L37.8609214,0.310511385 C37.8609214,0.310511385 13.7757614,1.45025805 8.34176144,21.3024714 C2.71548144,41.8624981 -1.0186519,57.5988047 0.293868103,70.8716981 C1.60081477,84.1111514 23.9052948,86.1565647 39.0118148,86.0032981" id="Stroke-3" stroke="#000000" stroke-width="1.39333333"></path>
                                                </g>
                                                <g id="Group-8" transform="translate(155.297436, 112.222564)">
                                                    <path d="M92.9878761,18.459716 L43.6415828,0.441129333 L16.7920494,11.805156 L0.228102769,37.2390627 C0.228102769,37.2390627 51.6504628,40.0396627 80.4367294,39.8334493 C99.7176761,39.6913293 105.265929,35.1685693 106.564516,29.1075693" id="Fill-5" fill="#D7EDF0"></path>
                                                    <path d="M92.9878761,18.459716 L43.6415828,0.441129333 L16.7920494,11.805156 L0.228102769,37.2390627 C0.228102769,37.2390627 51.6504628,40.0396627 80.4367294,39.8334493 C99.7176761,39.6913293 105.265929,35.1685693 106.564516,29.1075693" id="Stroke-7" stroke="#000000" stroke-width="1.39333333"></path>
                                                </g>
                                                <path d="M169.922573,106.083816 C153.64844,102.622776 146.469987,90.6122428 146.19968,79.1423228 L116.8728,79.1423228 C116.440867,84.4453494 116.318253,98.2142694 96.0452533,105.532056 L131.279867,131.205616 C131.279867,131.205616 152.040533,133.370856 154.205773,131.205616 C156.371013,129.040376 169.922573,106.083816 169.922573,106.083816" id="Fill-9" fill="#D7EDF0"></path>
                                                <path d="M169.922573,106.083816 C153.64844,102.622776 146.469987,90.6122428 146.19968,79.1423228 L116.8728,79.1423228 C116.440867,84.4453494 116.318253,98.2142694 96.0452533,105.532056 L131.279867,131.205616 C131.279867,131.205616 152.040533,133.370856 154.205773,131.205616 C156.371013,129.040376 169.922573,106.083816 169.922573,106.083816 Z" id="Stroke-11" stroke="#000000" stroke-width="1.39333333"></path>
                                                <g id="Group-16" transform="translate(1.015385, 112.222564)">
                                                    <path d="M13.8294674,18.43798 L63.1757607,0.419393333 L90.0252941,11.7806333 L106.589241,37.2173267 C106.589241,37.2173267 55.1668807,40.0179267 26.3806141,39.8089267 C7.09966738,39.6695933 1.55141405,35.1440467 0.252827385,29.0858333" id="Fill-13" fill="#D7EDF0"></path>
                                                    <path d="M13.8294674,18.43798 L63.1757607,0.419393333 L90.0252941,11.7806333 L106.589241,37.2173267 C106.589241,37.2173267 55.1668807,40.0179267 26.3806141,39.8089267 C7.09966738,39.6695933 1.55141405,35.1440467 0.252827385,29.0858333" id="Stroke-15" stroke="#000000" stroke-width="1.39333333"></path>
                                                </g>
                                                <g id="Group-20" transform="translate(39.013333, 103.862564)">
                                                    <path d="M131.428953,83.121808 L147.878647,48.386008 L179.872367,49.4700213 L184.018927,14.6227547 C184.018927,14.6227547 176.670487,10.7019147 158.479127,6.39930133 C139.000327,1.79294133 125.089287,0.756301333 124.019207,0.271421333 C117.618233,6.92319467 105.79998,11.3902213 92.2595667,11.3902213 C78.7191533,11.3902213 66.9009,6.92319467 60.5027133,0.271421333 C59.4326333,0.756301333 45.5188067,1.79294133 26.0427933,6.39930133 C7.84864667,10.7019147 0.502993333,14.6227547 0.502993333,14.6227547 L4.64955333,49.4700213 L36.6432733,48.386008 L46.60282,81.282608" id="Fill-17" fill="#30C5CA"></path>
                                                    <path d="M131.428953,83.121808 L147.878647,48.386008 L179.872367,49.4700213 L184.018927,14.6227547 C184.018927,14.6227547 176.670487,10.7019147 158.479127,6.39930133 C139.000327,1.79294133 125.089287,0.756301333 124.019207,0.271421333 C117.618233,6.92319467 105.79998,11.3902213 92.2595667,11.3902213 C78.7191533,11.3902213 66.9009,6.92319467 60.5027133,0.271421333 C59.4326333,0.756301333 45.5188067,1.79294133 26.0427933,6.39930133 C7.84864667,10.7019147 0.502993333,14.6227547 0.502993333,14.6227547 L4.64955333,49.4700213 L36.6432733,48.386008 L46.60282,81.282608" id="Stroke-19" stroke="#000000" stroke-width="1.39333333"></path>
                                                </g>
                                                <g id="Group-24" transform="translate(0.000000, 75.995897)">
                                                    <path d="M66.58322,5.41616533 C66.58322,5.41616533 35.1858467,56.4874053 29.9915,63.4178453 C24.7971533,70.3482853 18.9563,77.883432 7.68702,73.444272 C-0.00975333333,70.4123787 -2.42300667,56.949992 5.97043333,46.3857387 C23.54594,24.2679653 57.3983667,0.648178667 57.3983667,0.648178667" id="Fill-21" fill="#D7EDF0"></path>
                                                    <path d="M66.58322,5.41616533 C66.58322,5.41616533 35.1858467,56.4874053 29.9915,63.4178453 C24.7971533,70.3482853 18.9563,77.883432 7.68702,73.444272 C-0.00975333333,70.4123787 -2.42300667,56.949992 5.97043333,46.3857387 C23.54594,24.2679653 57.3983667,0.648178667 57.3983667,0.648178667" id="Stroke-23" stroke="#000000" stroke-width="1.39333333" stroke-linecap="round" stroke-linejoin="round"></path>
                                                </g>
                                                <path d="M187.003168,146.218504 C187.003168,146.218504 188.496821,154.065757 187.103488,166.533304 C185.359035,182.116344 180.095021,192.694531 179.629648,200.505557 C179.161488,208.316584 177.904701,245.958877 177.904701,245.958877 L131.272621,245.958877 L131.280981,245.958877 L84.6489013,245.958877 C84.6489013,245.958877 83.3949013,208.316584 82.9267413,200.505557 C82.4585813,192.694531 77.194568,182.116344 75.4529013,166.533304 C74.0567813,154.065757 75.5504347,146.218504 75.5504347,146.218504" id="Fill-25" fill="#30C5CA"></path>
                                                <path d="M84.6489013,245.958877 C84.6489013,245.958877 83.3949013,208.316584 82.9267413,200.505557 C82.4585813,192.694531 77.194568,182.116344 75.4529013,166.533304 C74.0567813,154.065757 75.5504347,146.218504 75.5504347,146.218504" id="Stroke-27" stroke="#000000" stroke-width="1.39333333"></path>
                                                <path d="M187.003168,146.218504 C187.003168,146.218504 188.496821,154.065757 187.103488,166.533304 C185.359035,182.116344 180.095021,192.694531 179.629648,200.505557 C179.161488,208.316584 177.904701,245.958877 177.904701,245.958877" id="Stroke-29" stroke="#000000" stroke-width="1.39333333"></path>
                                                <path d="M131.638511,12.1536428 C119.622404,12.1536428 111.148151,17.3368428 108.963404,26.7446294 C105.817257,40.2738961 107.037817,57.5540161 108.372631,60.8255628 C113.488951,77.8214428 119.396684,85.3677361 131.638511,85.3677361 C143.512497,85.3677361 149.785284,77.8214428 154.901604,60.8255628 C156.272644,57.4732028 157.746791,40.2766828 153.516631,26.0089494 C151.061577,17.7297628 142.690431,12.1536428 131.638511,12.1536428" id="Fill-31" fill="#D7EDF0"></path>
                                                <path d="M131.638511,12.1536428 C119.622404,12.1536428 111.148151,17.3368428 108.963404,26.7446294 C105.817257,40.2738961 107.037817,57.5540161 108.372631,60.8255628 C113.488951,77.8214428 119.396684,85.3677361 131.638511,85.3677361 C143.512497,85.3677361 149.785284,77.8214428 154.901604,60.8255628 C156.272644,57.4732028 157.746791,40.2766828 153.516631,26.0089494 C151.061577,17.7297628 142.690431,12.1536428 131.638511,12.1536428 Z" id="Stroke-33" stroke="#000000" stroke-width="1.39333333" stroke-linecap="round" stroke-linejoin="round"></path>
                                                <path d="M100.149735,44.1649188 C100.263988,44.3516254 107.623575,50.0169188 107.843721,50.0197066 C108.913801,50.0224921 112.118468,44.9535454 114.272561,39.5334788 C116.970055,32.7340121 117.867361,26.6033454 117.867361,26.6033454 C117.867361,26.6033454 126.793055,36.8582788 132.232628,40.2134254 C144.407575,47.7179188 151.379815,48.8297988 154.258441,49.4763054 C155.066575,49.6574388 157.741775,48.4535988 158.112401,47.7179188 L161.049548,39.0625321 L156.504495,16.9865588 L147.631748,12.4415054 L132.698001,8.98046544 L117.836708,12.1544788 L107.592921,17.8559988 L99.3806147,38.6305988 L100.149735,44.1649188 Z" id="Fill-35" fill="#000000"></path>
                                                <path d="M100.149735,44.1649188 C100.263988,44.3516254 107.623575,50.0169188 107.843721,50.0197066 C108.913801,50.0224921 112.118468,44.9535454 114.272561,39.5334788 C116.970055,32.7340121 117.867361,26.6033454 117.867361,26.6033454 C117.867361,26.6033454 126.793055,36.8582788 132.232628,40.2134254 C144.407575,47.7179188 151.379815,48.8297988 154.258441,49.4763054 C155.066575,49.6574388 157.741775,48.4535988 158.112401,47.7179188 L161.049548,39.0625321 L156.504495,16.9865588 L147.631748,12.4415054 L132.698001,8.98046544 L117.836708,12.1544788 L107.592921,17.8559988 L99.3806147,38.6305988 L100.149735,44.1649188 Z" id="Stroke-37" stroke="#000000" stroke-width="1.39333333"></path>
                                                <path d="M108.202087,50.9738601 C106.51894,49.1681001 103.19166,47.9503268 102.311073,49.4077534 C100.945607,51.6593801 102.266487,54.1785268 103.464753,55.9870734 C104.66302,57.7928334 109.26938,61.2956734 109.26938,61.2956734 L111.858193,55.9034734 L108.202087,50.9738601 Z" id="Fill-39" fill="#D2ECEF"></path>
                                                <path d="M153.803936,51.3600921 C155.484296,49.5543321 159.731176,47.9492121 160.614549,49.4066388 C161.977229,51.6582654 160.656349,54.1801988 159.458083,55.9859588 C158.259816,57.7945054 153.653456,61.2945588 153.653456,61.2945588 L151.064643,55.9023588 L153.803936,51.3600921 Z" id="Fill-41" fill="#D2ECEF"></path>
                                                <path d="M98.7059627,51.3573054 C96.822176,46.9487988 95.7799627,42.0972121 95.7799627,37.0031854 C95.7799627,16.8165721 112.140483,0.456052103 132.324309,0.456052103 C152.508136,0.456052103 168.868656,16.8165721 168.868656,37.0031854 C168.868656,42.7994521 167.519909,48.2808254 165.117803,53.1491321" id="Stroke-43" stroke="#000000" stroke-width="1.39333333" stroke-linecap="round" stroke-linejoin="round"></path>
                                                <g id="Group-48" transform="translate(90.188718, 39.769231)">
                                                    <path d="M17.4161861,24.7132747 C16.2318527,25.128488 14.9611327,25.370928 13.6374661,25.4099413 C6.77390605,25.605008 1.05287938,20.2016613 0.857812718,13.3381013 C0.662746051,6.47454133 6.06609272,0.750728 12.9296527,0.555661333 C14.2533194,0.516648 15.5351861,0.689421333 16.7418127,1.03775467" id="Fill-45" fill="#FFFFFF"></path>
                                                    <path d="M17.4161861,24.7132747 C16.2318527,25.128488 14.9611327,25.370928 13.6374661,25.4099413 C6.77390605,25.605008 1.05287938,20.2016613 0.857812718,13.3381013 C0.662746051,6.47454133 6.06609272,0.750728 12.9296527,0.555661333 C14.2533194,0.516648 15.5351861,0.689421333 16.7418127,1.03775467" id="Stroke-47" stroke="#000000" stroke-width="1.39333333" stroke-linecap="round" stroke-linejoin="round"></path>
                                                </g>
                                                <path d="M106.490516,66.4092068 L106.490516,66.4092068 C105.030303,66.4510068 103.801383,65.2889668 103.759583,63.8287534 L103.127009,41.6775401 C103.087996,40.2201134 104.247249,38.9884068 105.707463,38.9493934 C107.170463,38.9048068 108.399383,40.0668468 108.441183,41.5270601 L109.070969,63.6782734 C109.112769,65.1384868 107.950729,66.3674068 106.490516,66.4092068" id="Fill-49" fill="#30C5CA"></path>
                                                <path d="M106.490516,66.4092068 L106.490516,66.4092068 C105.030303,66.4510068 103.801383,65.2889668 103.759583,63.8287534 L103.127009,41.6775401 C103.087996,40.2201134 104.247249,38.9884068 105.707463,38.9493934 C107.170463,38.9048068 108.399383,40.0668468 108.441183,41.5270601 L109.070969,63.6782734 C109.112769,65.1384868 107.950729,66.3674068 106.490516,66.4092068 Z" id="Stroke-51" stroke="#000000" stroke-width="1.39333333" stroke-linecap="round" stroke-linejoin="round"></path>
                                                <g id="Group-56" transform="translate(155.297436, 39.769231)">
                                                    <path d="M0.325636103,24.5226667 C1.50996944,24.93788 2.78068944,25.1831067 4.10156944,25.2193333 C10.9651294,25.4144 16.6889428,20.0110533 16.8840094,13.1474933 C17.0790761,6.28393333 11.6729428,0.56012 4.80938277,0.36784 C3.48850277,0.328826667 2.2066361,0.498813333 1.00000944,0.849933333" id="Fill-53" fill="#FFFFFF"></path>
                                                    <path d="M0.325636103,24.5226667 C1.50996944,24.93788 2.78068944,25.1831067 4.10156944,25.2193333 C10.9651294,25.4144 16.6889428,20.0110533 16.8840094,13.1474933 C17.0790761,6.28393333 11.6729428,0.56012 4.80938277,0.36784 C3.48850277,0.328826667 2.2066361,0.498813333 1.00000944,0.849933333" id="Stroke-55" stroke="#000000" stroke-width="1.39333333" stroke-linecap="round" stroke-linejoin="round"></path>
                                                </g>
                                                <path d="M156.736067,66.2188774 L156.736067,66.2188774 C158.19628,66.2606774 159.4252,65.1014241 159.467,63.6384241 L160.099573,41.4899974 C160.141373,40.0297841 158.979333,38.7980774 157.51912,38.7590641 C156.058907,38.7172641 154.8272,39.8765174 154.788187,41.3367308 L154.155613,63.4879441 C154.1166,64.9481574 155.275853,66.1770774 156.736067,66.2188774" id="Fill-57" fill="#30C5CA"></path>
                                                <path d="M156.736067,66.2188774 L156.736067,66.2188774 C158.19628,66.2606774 159.4252,65.1014241 159.467,63.6384241 L160.099573,41.4899974 C160.141373,40.0297841 158.979333,38.7980774 157.51912,38.7590641 C156.058907,38.7172641 154.8272,39.8765174 154.788187,41.3367308 L154.155613,63.4879441 C154.1166,64.9481574 155.275853,66.1770774 156.736067,66.2188774 Z" id="Stroke-59" stroke="#000000" stroke-width="1.39333333" stroke-linecap="round" stroke-linejoin="round"></path>
                                            </g>
                                            <g id="Group-98" transform="translate(56.748718, 29.619076)">
                                                <g id="Group-65" transform="translate(9.375385, 23.308718)">
                                                    <path d="M4.79962944,24.7130727 C4.79962944,24.7130727 11.1838828,14.4414194 12.7165494,11.4736194 C14.8678561,7.30476605 16.8380294,1.12393938 14.8622828,0.842486051 C13.9566161,0.714299385 10.0162694,6.83939272 8.38328277,8.79563272 C7.29090944,10.1025794 0.458002769,17.0079394 0.458002769,17.0079394" id="Fill-62" fill="#D7EDF0"></path>
                                                    <path d="M4.79962944,24.7130727 C4.79962944,24.7130727 11.1838828,14.4414194 12.7165494,11.4736194 C14.8678561,7.30476605 16.8380294,1.12393938 14.8622828,0.842486051 C13.9566161,0.714299385 10.0162694,6.83939272 8.38328277,8.79563272 C7.29090944,10.1025794 0.458002769,17.0079394 0.458002769,17.0079394" id="Stroke-64" stroke="#000000" stroke-width="1.39333333" stroke-linecap="round" stroke-linejoin="round"></path>
                                                </g>
                                                <g id="Group-69" transform="translate(4.557949, 0.000000)">
                                                    <path d="M0.825689333,26.7843253 C0.825689333,26.7843253 7.081756,0.517205333 8.176916,0.754072 C11.1168493,1.39221867 8.96832933,19.9263387 8.96832933,19.9263387" id="Fill-66" fill="#D7EDF0"></path>
                                                    <path d="M0.825689333,26.7843253 C0.825689333,26.7843253 7.081756,0.517205333 8.176916,0.754072 C11.1168493,1.39221867 8.96832933,19.9263387 8.96832933,19.9263387" id="Stroke-68" stroke="#000000" stroke-width="1.39333333" stroke-linecap="round" stroke-linejoin="round"></path>
                                                </g>
                                                <g id="Group-73" transform="translate(4.557949, 1.015385)">
                                                    <path d="M0.825689333,25.7689407 C0.825689333,25.7689407 13.9676093,-0.0550992821 16.352996,0.463220718 C19.111796,1.06235405 11.2171693,15.8651274 11.2171693,15.8651274" id="Fill-70" fill="#D7EDF0"></path>
                                                    <path d="M0.825689333,25.7689407 C0.825689333,25.7689407 13.9676093,-0.0550992821 16.352996,0.463220718 C19.111796,1.06235405 11.2171693,15.8651274 11.2171693,15.8651274" id="Stroke-72" stroke="#000000" stroke-width="1.39333333" stroke-linecap="round" stroke-linejoin="round"></path>
                                                </g>
                                                <g id="Group-77" transform="translate(0.000000, 6.588718)">
                                                    <path d="M9.83450205,46.2007807 C9.83450205,46.2007807 13.3791421,43.9324341 16.2382621,38.3145141 C18.2474487,34.3713807 13.0196621,22.0626741 13.0196621,22.0626741 C13.0196621,22.0626741 28.3825554,2.74271405 25.8243954,0.413060718 C24.2137021,-1.05272595 5.38419538,20.1956074 5.38419538,20.1956074 L0.649648718,41.4327941" id="Fill-74" fill="#D7EDF0"></path>
                                                    <path d="M9.83450205,46.2007807 C9.83450205,46.2007807 13.3791421,43.9324341 16.2382621,38.3145141 C18.2474487,34.3713807 13.0196621,22.0626741 13.0196621,22.0626741 C13.0196621,22.0626741 28.3825554,2.74271405 25.8243954,0.413060718 C24.2137021,-1.05272595 5.38419538,20.1956074 5.38419538,20.1956074 L0.649648718,41.4327941" id="Stroke-76" stroke="#000000" stroke-width="1.39333333" stroke-linecap="round" stroke-linejoin="round"></path>
                                                </g>
                                                <g id="Group-81" transform="translate(139.333333, 48.388718)">
                                                    <path d="M0.464892718,4.89597138 C0.464892718,4.89597138 31.8622661,55.9672114 37.0566127,62.8976514 C42.2509594,69.8308781 48.0918127,77.3632381 59.3610927,72.9240781 C67.0578661,69.8921847 69.4711194,56.4297981 61.0748927,45.8655447 C43.5021727,23.7505581 9.64974605,0.127984718 9.64974605,0.127984718" id="Fill-78" fill="#D7EDF0"></path>
                                                    <path d="M0.464892718,4.89597138 C0.464892718,4.89597138 31.8622661,55.9672114 37.0566127,62.8976514 C42.2509594,69.8308781 48.0918127,77.3632381 59.3610927,72.9240781 C67.0578661,69.8921847 69.4711194,56.4297981 61.0748927,45.8655447 C43.5021727,23.7505581 9.64974605,0.127984718 9.64974605,0.127984718" id="Stroke-80" stroke="#000000" stroke-width="1.39333333" stroke-linecap="round" stroke-linejoin="round"></path>
                                                </g>
                                                <g id="Group-85" transform="translate(124.384615, 24.324103)">
                                                    <path d="M11.07282,24.1928788 C11.07282,24.1928788 4.68856667,13.9212254 3.1559,10.9534254 C1.00459333,6.7845721 -0.968366667,0.603745436 1.01016667,0.325078769 C1.91583333,0.194105436 5.85618,6.31919877 7.48916667,8.27543877 C8.58154,9.5851721 15.4144467,16.4877454 15.4144467,16.4877454" id="Fill-82" fill="#D7EDF0"></path>
                                                    <path d="M11.07282,24.1928788 C11.07282,24.1928788 4.68856667,13.9212254 3.1559,10.9534254 C1.00459333,6.7845721 -0.968366667,0.603745436 1.01016667,0.325078769 C1.91583333,0.194105436 5.85618,6.31919877 7.48916667,8.27543877 C8.58154,9.5851721 15.4144467,16.4877454 15.4144467,16.4877454" id="Stroke-84" stroke="#000000" stroke-width="1.39333333" stroke-linecap="round" stroke-linejoin="round"></path>
                                                </g>
                                                <g id="Group-89" transform="translate(134.775385, 1.015385)">
                                                    <path d="M9.47342677,26.2641314 C9.47342677,26.2641314 3.2173601,-0.00298861538 2.11941344,0.236664718 C-0.817733231,0.874811385 1.33078677,19.4089314 1.33078677,19.4089314" id="Fill-86" fill="#D7EDF0"></path>
                                                    <path d="M9.47342677,26.2641314 C9.47342677,26.2641314 3.2173601,-0.00298861538 2.11941344,0.236664718 C-0.817733231,0.874811385 1.33078677,19.4089314 1.33078677,19.4089314" id="Stroke-88" stroke="#000000" stroke-width="1.39333333" stroke-linecap="round" stroke-linejoin="round"></path>
                                                </g>
                                                <g id="Group-93" transform="translate(127.171282, 1.015385)">
                                                    <path d="M17.0775293,26.2641314 C17.0775293,26.2641314 3.93560933,0.440091385 1.547436,0.958411385 C-1.20857733,1.55754472 6.68326267,16.3631047 6.68326267,16.3631047" id="Fill-90" fill="#D7EDF0"></path>
                                                    <path d="M17.0775293,26.2641314 C17.0775293,26.2641314 3.93560933,0.440091385 1.547436,0.958411385 C-1.20857733,1.55754472 6.68326267,16.3631047 6.68326267,16.3631047" id="Stroke-92" stroke="#000000" stroke-width="1.39333333" stroke-linecap="round" stroke-linejoin="round"></path>
                                                </g>
                                                <g id="Group-97" transform="translate(122.613333, 6.588718)">
                                                    <path d="M17.1848927,46.6959714 C17.1848927,46.6959714 13.6402527,44.4304114 10.7783461,38.8097047 C8.77194605,34.8693581 13.9997327,22.5578647 13.9997327,22.5578647 C13.9997327,22.5578647 -1.36316062,3.23790472 1.19499938,0.911038051 C2.80569272,-0.557535282 21.6351994,20.6907981 21.6351994,20.6907981 L26.3697461,41.9279847" id="Fill-94" fill="#D7EDF0"></path>
                                                    <path d="M17.1848927,46.6959714 C17.1848927,46.6959714 13.6402527,44.4304114 10.7783461,38.8097047 C8.77194605,34.8693581 13.9997327,22.5578647 13.9997327,22.5578647 C13.9997327,22.5578647 -1.36316062,3.23790472 1.19499938,0.911038051 C2.80569272,-0.557535282 21.6351994,20.6907981 21.6351994,20.6907981 L26.3697461,41.9279847" id="Stroke-96" stroke="#000000" stroke-width="1.39333333" stroke-linecap="round" stroke-linejoin="round"></path>
                                                </g>
                                            </g>
                                        </g>
                                    </g>
                                </g>
                            </g>
                        </g>
                    </g>
                </g>
            </g>
        </g>
    </g>
</svg>