<?xml version="1.0" encoding="UTF-8"?>
<svg width="525px" height="361px" viewBox="0 0 525 361" version="1.1" xmlns="http://www.w3.org/2000/svg" xmlns:xlink="http://www.w3.org/1999/xlink">
    <!-- Generator: Sketch 57.1 (83088) - https://sketch.com -->
    <title>Image-01</title>
    <desc>Created with Sketch.</desc>
    <defs>
        <path d="M149,297 C171.965171,297 195.060377,291.804482 214.487305,282.524731 C218.678249,280.522824 222.77728,281.654336 227,283.524731 C328.619108,328.535495 261.916573,263.454092 271.5,253.148437 C296.235259,226.549077 298.002971,188.188012 298.002971,149 C298.002971,66.7095723 231.290428,-8.52651283e-14 149,-8.52651283e-14 C66.7095723,-8.52651283e-14 0,66.7095723 0,149 C0,185.7175 13.2811516,219.333022 35.3015686,245.304678 C39.3195121,250.043582 2.42773007,282.993072 7,287.195407 C10.5853125,290.490637 40.4029109,303.297141 56.4824219,297.814652 C63.9252086,295.276951 74.1157682,276.584119 75.9814453,277.861328 C99.9099946,294.242388 117.811881,297 149,297 Z" id="path-1"></path>
    </defs>
    <g id="Landing" stroke="none" stroke-width="1" fill="none" fill-rule="evenodd">
        <g id="02-Balance_center" transform="translate(-729.000000, -1088.000000)">
            <g id="02---Slides" transform="translate(0.000000, 819.000000)">
                <g id="First-slide" transform="translate(148.000000, 211.000000)">
                    <g id="Image-01" transform="translate(488.000000, 0.000000)">
                        <rect id="Image-Bg" x="0" y="0" width="700" height="480"></rect>
                        <g id="Image-assets" transform="translate(93.000000, 58.000000)">
                            <g id="Anxiety" transform="translate(6.000000, 76.000000)">
                                <rect id="Rectangle" fill="#FFF0DE" x="0" y="0" width="181" height="50" rx="6"></rect>
                                <path d="M24.576,31 L28.512,19.56 L30.336,19.56 L34.208,31 L32.832,31 L31.712,27.704 L26.992,27.704 L25.888,31 L24.576,31 Z M29.36,20.712 L27.376,26.6 L31.344,26.6 L29.36,20.712 Z M36.128,31 L36.128,22.632 L37.456,22.632 L37.456,24.136 C37.984,23.192 38.704,22.536 40.208,22.488 L40.208,23.736 C38.528,23.816 37.456,24.344 37.456,26.408 L37.456,31 L36.128,31 Z M45.328,31.144 C42.96,31.144 41.28,29.48 41.28,26.904 L41.28,26.776 C41.28,24.248 42.896,22.488 45.2,22.488 C47.136,22.488 48.96,23.656 48.96,26.648 L48.96,27.08 L42.656,27.08 C42.72,28.984 43.632,30.04 45.344,30.04 C46.64,30.04 47.392,29.56 47.568,28.584 L48.896,28.584 C48.608,30.264 47.216,31.144 45.328,31.144 Z M42.704,26.008 L47.6,26.008 C47.472,24.28 46.576,23.592 45.2,23.592 C43.84,23.592 42.928,24.52 42.704,26.008 Z M55.984,33.912 L57.568,30.136 L54.288,22.632 L55.712,22.632 L58.272,28.632 L60.592,22.632 L61.952,22.632 L57.328,33.912 L55.984,33.912 Z M66.944,30.04 C68.624,30.04 69.68,28.776 69.68,26.888 L69.68,26.776 C69.68,24.84 68.608,23.592 66.944,23.592 C65.264,23.592 64.208,24.84 64.208,26.76 L64.208,26.888 C64.208,28.792 65.248,30.04 66.944,30.04 Z M66.928,31.144 C64.544,31.144 62.832,29.336 62.832,26.888 L62.832,26.76 C62.832,24.248 64.576,22.488 66.944,22.488 C69.312,22.488 71.056,24.232 71.056,26.744 L71.056,26.872 C71.056,29.4 69.312,31.144 66.928,31.144 Z M75.952,31.144 C74.288,31.144 73.04,30.232 73.04,27.928 L73.04,22.632 L74.368,22.632 L74.368,27.864 C74.368,29.336 74.992,29.992 76.304,29.992 C77.488,29.992 78.608,29.208 78.608,27.704 L78.608,22.632 L79.936,22.632 L79.936,31 L78.608,31 L78.608,29.672 C78.224,30.456 77.296,31.144 75.952,31.144 Z M89.456,31.144 C87.456,31.144 86.256,30.136 86.176,28.424 L87.472,28.424 C87.568,29.416 88.096,30.04 89.44,30.04 C90.704,30.04 91.264,29.608 91.264,28.712 C91.264,27.832 90.608,27.544 89.312,27.304 C87.136,26.904 86.4,26.296 86.4,24.84 C86.4,23.288 87.92,22.488 89.232,22.488 C90.736,22.488 92.032,23.096 92.256,24.904 L90.976,24.904 C90.784,23.992 90.272,23.592 89.216,23.592 C88.256,23.592 87.632,24.072 87.632,24.792 C87.632,25.544 88.048,25.848 89.584,26.12 C91.312,26.44 92.528,26.824 92.528,28.6 C92.528,30.12 91.488,31.144 89.456,31.144 Z M97.088,31.112 C95.568,31.112 94.832,30.216 94.832,28.904 L94.832,23.752 L93.632,23.752 L93.632,22.632 L94.832,22.632 L94.832,20.728 L96.16,20.728 L96.16,22.632 L98.112,22.632 L98.112,23.752 L96.16,23.752 L96.16,28.776 C96.16,29.592 96.528,29.992 97.2,29.992 C97.616,29.992 97.936,29.928 98.224,29.816 L98.224,30.936 C97.952,31.032 97.632,31.112 97.088,31.112 Z M100.224,31 L100.224,22.632 L101.552,22.632 L101.552,24.136 C102.08,23.192 102.8,22.536 104.304,22.488 L104.304,23.736 C102.624,23.816 101.552,24.344 101.552,26.408 L101.552,31 L100.224,31 Z M109.424,31.144 C107.056,31.144 105.376,29.48 105.376,26.904 L105.376,26.776 C105.376,24.248 106.992,22.488 109.296,22.488 C111.232,22.488 113.056,23.656 113.056,26.648 L113.056,27.08 L106.752,27.08 C106.816,28.984 107.728,30.04 109.44,30.04 C110.736,30.04 111.488,29.56 111.664,28.584 L112.992,28.584 C112.704,30.264 111.312,31.144 109.424,31.144 Z M106.8,26.008 L111.696,26.008 C111.568,24.28 110.672,23.592 109.296,23.592 C107.936,23.592 107.024,24.52 106.8,26.008 Z M117.76,31.144 C115.76,31.144 114.56,30.136 114.48,28.424 L115.776,28.424 C115.872,29.416 116.4,30.04 117.744,30.04 C119.008,30.04 119.568,29.608 119.568,28.712 C119.568,27.832 118.912,27.544 117.616,27.304 C115.44,26.904 114.704,26.296 114.704,24.84 C114.704,23.288 116.224,22.488 117.536,22.488 C119.04,22.488 120.336,23.096 120.56,24.904 L119.28,24.904 C119.088,23.992 118.576,23.592 117.52,23.592 C116.56,23.592 115.936,24.072 115.936,24.792 C115.936,25.544 116.352,25.848 117.888,26.12 C119.616,26.44 120.832,26.824 120.832,28.6 C120.832,30.12 119.792,31.144 117.76,31.144 Z M125.44,31.144 C123.44,31.144 122.24,30.136 122.16,28.424 L123.456,28.424 C123.552,29.416 124.08,30.04 125.424,30.04 C126.688,30.04 127.248,29.608 127.248,28.712 C127.248,27.832 126.592,27.544 125.296,27.304 C123.12,26.904 122.384,26.296 122.384,24.84 C122.384,23.288 123.904,22.488 125.216,22.488 C126.72,22.488 128.016,23.096 128.24,24.904 L126.96,24.904 C126.768,23.992 126.256,23.592 125.2,23.592 C124.24,23.592 123.616,24.072 123.616,24.792 C123.616,25.544 124.032,25.848 125.568,26.12 C127.296,26.44 128.512,26.824 128.512,28.6 C128.512,30.12 127.472,31.144 125.44,31.144 Z M133.952,31.144 C131.584,31.144 129.904,29.48 129.904,26.904 L129.904,26.776 C129.904,24.248 131.52,22.488 133.824,22.488 C135.76,22.488 137.584,23.656 137.584,26.648 L137.584,27.08 L131.28,27.08 C131.344,28.984 132.256,30.04 133.968,30.04 C135.264,30.04 136.016,29.56 136.192,28.584 L137.52,28.584 C137.232,30.264 135.84,31.144 133.952,31.144 Z M131.328,26.008 L136.224,26.008 C136.096,24.28 135.2,23.592 133.824,23.592 C132.464,23.592 131.552,24.52 131.328,26.008 Z M142.768,31.144 C140.576,31.144 138.992,29.592 138.992,26.984 L138.992,26.856 C138.992,24.296 140.592,22.488 142.896,22.488 C144.288,22.488 145.152,23.16 145.632,23.976 L145.632,18.632 L146.96,18.632 L146.96,31 L145.632,31 L145.632,29.56 C145.152,30.376 143.984,31.144 142.768,31.144 Z M142.912,30.04 C144.464,30.04 145.68,29.016 145.68,26.872 L145.68,26.744 C145.68,24.6 144.656,23.592 143.024,23.592 C141.36,23.592 140.368,24.76 140.368,26.792 L140.368,26.92 C140.368,29.032 141.504,30.04 142.912,30.04 Z M151.168,27.768 L151.168,26.968 C151.168,25.672 152.016,24.872 152.816,24.088 C153.44,23.464 153.984,22.888 153.984,22.12 C153.984,21.176 153.456,20.52 152.272,20.52 C151.072,20.52 150.256,21.336 150.144,22.6 L148.896,22.6 C149.008,20.728 150.336,19.416 152.288,19.416 C154.464,19.416 155.328,20.728 155.328,22.072 C155.328,23.256 154.528,24.008 153.76,24.744 C153.04,25.432 152.352,26.104 152.352,27.08 L152.352,27.768 L151.168,27.768 Z M151.728,31.08 C151.168,31.08 150.704,30.632 150.704,30.056 C150.704,29.48 151.168,29.032 151.728,29.032 C152.288,29.032 152.752,29.48 152.752,30.056 C152.752,30.632 152.288,31.08 151.728,31.08 Z" id="Areyoustressed?" fill="#000000" fill-rule="nonzero"></path>
                            </g>
                            <g id="Sleeping" transform="translate(341.000000, 152.000000)">
                                <rect id="Rectangle" fill="#D7F0EA" x="0" y="0" width="184" height="50" rx="6"></rect>
                                <path d="M22.576,31 L26.512,19.56 L28.336,19.56 L32.208,31 L30.832,31 L29.712,27.704 L24.992,27.704 L23.888,31 L22.576,31 Z M27.36,20.712 L25.376,26.6 L29.344,26.6 L27.36,20.712 Z M34.128,31 L34.128,22.632 L35.456,22.632 L35.456,24.136 C35.984,23.192 36.704,22.536 38.208,22.488 L38.208,23.736 C36.528,23.816 35.456,24.344 35.456,26.408 L35.456,31 L34.128,31 Z M43.328,31.144 C40.96,31.144 39.28,29.48 39.28,26.904 L39.28,26.776 C39.28,24.248 40.896,22.488 43.2,22.488 C45.136,22.488 46.96,23.656 46.96,26.648 L46.96,27.08 L40.656,27.08 C40.72,28.984 41.632,30.04 43.344,30.04 C44.64,30.04 45.392,29.56 45.568,28.584 L46.896,28.584 C46.608,30.264 45.216,31.144 43.328,31.144 Z M40.704,26.008 L45.6,26.008 C45.472,24.28 44.576,23.592 43.2,23.592 C41.84,23.592 40.928,24.52 40.704,26.008 Z M53.984,33.912 L55.568,30.136 L52.288,22.632 L53.712,22.632 L56.272,28.632 L58.592,22.632 L59.952,22.632 L55.328,33.912 L53.984,33.912 Z M64.944,30.04 C66.624,30.04 67.68,28.776 67.68,26.888 L67.68,26.776 C67.68,24.84 66.608,23.592 64.944,23.592 C63.264,23.592 62.208,24.84 62.208,26.76 L62.208,26.888 C62.208,28.792 63.248,30.04 64.944,30.04 Z M64.928,31.144 C62.544,31.144 60.832,29.336 60.832,26.888 L60.832,26.76 C60.832,24.248 62.576,22.488 64.944,22.488 C67.312,22.488 69.056,24.232 69.056,26.744 L69.056,26.872 C69.056,29.4 67.312,31.144 64.928,31.144 Z M73.952,31.144 C72.288,31.144 71.04,30.232 71.04,27.928 L71.04,22.632 L72.368,22.632 L72.368,27.864 C72.368,29.336 72.992,29.992 74.304,29.992 C75.488,29.992 76.608,29.208 76.608,27.704 L76.608,22.632 L77.936,22.632 L77.936,31 L76.608,31 L76.608,29.672 C76.224,30.456 75.296,31.144 73.952,31.144 Z M86.96,31.144 C85.408,31.144 84.176,30.392 84.176,28.68 C84.176,26.744 86.224,26.088 88.368,26.088 L89.568,26.088 L89.568,25.48 C89.568,24.152 89.056,23.592 87.776,23.592 C86.624,23.592 85.984,24.072 85.856,25.096 L84.528,25.096 C84.704,23.192 86.224,22.488 87.84,22.488 C89.44,22.488 90.896,23.144 90.896,25.48 L90.896,31 L89.568,31 L89.568,29.944 C88.944,30.728 88.192,31.144 86.96,31.144 Z M87.088,30.088 C88.496,30.088 89.568,29.368 89.568,28.072 L89.568,27.032 L88.416,27.032 C86.736,27.032 85.504,27.448 85.504,28.68 C85.504,29.544 85.92,30.088 87.088,30.088 Z M100.336,31.144 C98.336,31.144 97.136,30.136 97.056,28.424 L98.352,28.424 C98.448,29.416 98.976,30.04 100.32,30.04 C101.584,30.04 102.144,29.608 102.144,28.712 C102.144,27.832 101.488,27.544 100.192,27.304 C98.016,26.904 97.28,26.296 97.28,24.84 C97.28,23.288 98.8,22.488 100.112,22.488 C101.616,22.488 102.912,23.096 103.136,24.904 L101.856,24.904 C101.664,23.992 101.152,23.592 100.096,23.592 C99.136,23.592 98.512,24.072 98.512,24.792 C98.512,25.544 98.928,25.848 100.464,26.12 C102.192,26.44 103.408,26.824 103.408,28.6 C103.408,30.12 102.368,31.144 100.336,31.144 Z M107.968,31.112 C106.448,31.112 105.712,30.216 105.712,28.904 L105.712,23.752 L104.512,23.752 L104.512,22.632 L105.712,22.632 L105.712,20.728 L107.04,20.728 L107.04,22.632 L108.992,22.632 L108.992,23.752 L107.04,23.752 L107.04,28.776 C107.04,29.592 107.408,29.992 108.08,29.992 C108.496,29.992 108.816,29.928 109.104,29.816 L109.104,30.936 C108.832,31.032 108.512,31.112 107.968,31.112 Z M113.936,31.144 C112.272,31.144 111.024,30.232 111.024,27.928 L111.024,22.632 L112.352,22.632 L112.352,27.864 C112.352,29.336 112.976,29.992 114.288,29.992 C115.472,29.992 116.592,29.208 116.592,27.704 L116.592,22.632 L117.92,22.632 L117.92,31 L116.592,31 L116.592,29.672 C116.208,30.456 115.28,31.144 113.936,31.144 Z M123.76,31.144 C121.568,31.144 119.984,29.592 119.984,26.984 L119.984,26.856 C119.984,24.296 121.584,22.488 123.888,22.488 C125.28,22.488 126.144,23.16 126.624,23.976 L126.624,18.632 L127.952,18.632 L127.952,31 L126.624,31 L126.624,29.56 C126.144,30.376 124.976,31.144 123.76,31.144 Z M123.904,30.04 C125.456,30.04 126.672,29.016 126.672,26.872 L126.672,26.744 C126.672,24.6 125.648,23.592 124.016,23.592 C122.352,23.592 121.36,24.76 121.36,26.792 L121.36,26.92 C121.36,29.032 122.496,30.04 123.904,30.04 Z M134.064,31.144 C131.696,31.144 130.016,29.48 130.016,26.904 L130.016,26.776 C130.016,24.248 131.632,22.488 133.936,22.488 C135.872,22.488 137.696,23.656 137.696,26.648 L137.696,27.08 L131.392,27.08 C131.456,28.984 132.368,30.04 134.08,30.04 C135.376,30.04 136.128,29.56 136.304,28.584 L137.632,28.584 C137.344,30.264 135.952,31.144 134.064,31.144 Z M131.44,26.008 L136.336,26.008 C136.208,24.28 135.312,23.592 133.936,23.592 C132.576,23.592 131.664,24.52 131.44,26.008 Z M139.728,31 L139.728,22.632 L141.056,22.632 L141.056,23.96 C141.44,23.176 142.368,22.488 143.744,22.488 C145.472,22.488 146.688,23.432 146.688,25.864 L146.688,31 L145.36,31 L145.36,25.768 C145.36,24.296 144.736,23.64 143.392,23.64 C142.16,23.64 141.056,24.424 141.056,25.928 L141.056,31 L139.728,31 Z M151.84,31.112 C150.32,31.112 149.584,30.216 149.584,28.904 L149.584,23.752 L148.384,23.752 L148.384,22.632 L149.584,22.632 L149.584,20.728 L150.912,20.728 L150.912,22.632 L152.864,22.632 L152.864,23.752 L150.912,23.752 L150.912,28.776 C150.912,29.592 151.28,29.992 151.952,29.992 C152.368,29.992 152.688,29.928 152.976,29.816 L152.976,30.936 C152.704,31.032 152.384,31.112 151.84,31.112 Z M156.496,27.768 L156.496,26.968 C156.496,25.672 157.344,24.872 158.144,24.088 C158.768,23.464 159.312,22.888 159.312,22.12 C159.312,21.176 158.784,20.52 157.6,20.52 C156.4,20.52 155.584,21.336 155.472,22.6 L154.224,22.6 C154.336,20.728 155.664,19.416 157.616,19.416 C159.792,19.416 160.656,20.728 160.656,22.072 C160.656,23.256 159.856,24.008 159.088,24.744 C158.368,25.432 157.68,26.104 157.68,27.08 L157.68,27.768 L156.496,27.768 Z M157.056,31.08 C156.496,31.08 156.032,30.632 156.032,30.056 C156.032,29.48 156.496,29.032 157.056,29.032 C157.616,29.032 158.08,29.48 158.08,30.056 C158.08,30.632 157.616,31.08 157.056,31.08 Z" id="Areyouastudent?" fill="#000000" fill-rule="nonzero"></path>
                            </g>
                            <g id="Student" transform="translate(315.000000, 76.000000)">
                                <rect id="Rectangle" fill="#FFDED9" x="0" y="0" width="200" height="50" rx="6"></rect>
                                <path d="M25.52,31 L22.544,19.56 L23.968,19.56 L26.288,28.792 L28.976,19.56 L29.968,19.56 L32.656,28.824 L35.008,19.56 L36.304,19.56 L33.328,31 L32.048,31 L29.456,21.96 L26.784,31 L25.52,31 Z M38.192,31 L38.192,18.632 L39.52,18.632 L39.52,23.96 C39.904,23.176 40.832,22.488 42.208,22.488 C43.936,22.488 45.152,23.432 45.152,25.864 L45.152,31 L43.824,31 L43.824,25.768 C43.824,24.296 43.2,23.64 41.856,23.64 C40.624,23.64 39.52,24.424 39.52,25.928 L39.52,31 L38.192,31 Z M49.856,31.144 C48.304,31.144 47.072,30.392 47.072,28.68 C47.072,26.744 49.12,26.088 51.264,26.088 L52.464,26.088 L52.464,25.48 C52.464,24.152 51.952,23.592 50.672,23.592 C49.52,23.592 48.88,24.072 48.752,25.096 L47.424,25.096 C47.6,23.192 49.12,22.488 50.736,22.488 C52.336,22.488 53.792,23.144 53.792,25.48 L53.792,31 L52.464,31 L52.464,29.944 C51.84,30.728 51.088,31.144 49.856,31.144 Z M49.984,30.088 C51.392,30.088 52.464,29.368 52.464,28.072 L52.464,27.032 L51.312,27.032 C49.632,27.032 48.4,27.448 48.4,28.68 C48.4,29.544 48.816,30.088 49.984,30.088 Z M58.944,31.112 C57.424,31.112 56.688,30.216 56.688,28.904 L56.688,23.752 L55.488,23.752 L55.488,22.632 L56.688,22.632 L56.688,20.728 L58.016,20.728 L58.016,22.632 L59.968,22.632 L59.968,23.752 L58.016,23.752 L58.016,28.776 C58.016,29.592 58.384,29.992 59.056,29.992 C59.472,29.992 59.792,29.928 60.08,29.816 L60.08,30.936 C59.808,31.032 59.488,31.112 58.944,31.112 Z M68.416,31.144 C66.864,31.144 65.632,30.392 65.632,28.68 C65.632,26.744 67.68,26.088 69.824,26.088 L71.024,26.088 L71.024,25.48 C71.024,24.152 70.512,23.592 69.232,23.592 C68.08,23.592 67.44,24.072 67.312,25.096 L65.984,25.096 C66.16,23.192 67.68,22.488 69.296,22.488 C70.896,22.488 72.352,23.144 72.352,25.48 L72.352,31 L71.024,31 L71.024,29.944 C70.4,30.728 69.648,31.144 68.416,31.144 Z M68.544,30.088 C69.952,30.088 71.024,29.368 71.024,28.072 L71.024,27.032 L69.872,27.032 C68.192,27.032 66.96,27.448 66.96,28.68 C66.96,29.544 67.376,30.088 68.544,30.088 Z M74.96,31 L74.96,22.632 L76.288,22.632 L76.288,24.136 C76.816,23.192 77.536,22.536 79.04,22.488 L79.04,23.736 C77.36,23.816 76.288,24.344 76.288,26.408 L76.288,31 L74.96,31 Z M84.16,31.144 C81.792,31.144 80.112,29.48 80.112,26.904 L80.112,26.776 C80.112,24.248 81.728,22.488 84.032,22.488 C85.968,22.488 87.792,23.656 87.792,26.648 L87.792,27.08 L81.488,27.08 C81.552,28.984 82.464,30.04 84.176,30.04 C85.472,30.04 86.224,29.56 86.4,28.584 L87.728,28.584 C87.44,30.264 86.048,31.144 84.16,31.144 Z M81.536,26.008 L86.432,26.008 C86.304,24.28 85.408,23.592 84.032,23.592 C82.672,23.592 81.76,24.52 81.536,26.008 Z M94.816,33.912 L96.4,30.136 L93.12,22.632 L94.544,22.632 L97.104,28.632 L99.424,22.632 L100.784,22.632 L96.16,33.912 L94.816,33.912 Z M105.776,30.04 C107.456,30.04 108.512,28.776 108.512,26.888 L108.512,26.776 C108.512,24.84 107.44,23.592 105.776,23.592 C104.096,23.592 103.04,24.84 103.04,26.76 L103.04,26.888 C103.04,28.792 104.08,30.04 105.776,30.04 Z M105.76,31.144 C103.376,31.144 101.664,29.336 101.664,26.888 L101.664,26.76 C101.664,24.248 103.408,22.488 105.776,22.488 C108.144,22.488 109.888,24.232 109.888,26.744 L109.888,26.872 C109.888,29.4 108.144,31.144 105.76,31.144 Z M114.784,31.144 C113.12,31.144 111.872,30.232 111.872,27.928 L111.872,22.632 L113.2,22.632 L113.2,27.864 C113.2,29.336 113.824,29.992 115.136,29.992 C116.32,29.992 117.44,29.208 117.44,27.704 L117.44,22.632 L118.768,22.632 L118.768,31 L117.44,31 L117.44,29.672 C117.056,30.456 116.128,31.144 114.784,31.144 Z M121.456,31 L121.456,22.632 L122.784,22.632 L122.784,24.136 C123.312,23.192 124.032,22.536 125.536,22.488 L125.536,23.736 C123.856,23.816 122.784,24.344 122.784,26.408 L122.784,31 L121.456,31 Z M135.056,34.056 C132.576,34.056 131.488,32.888 131.264,31.48 L132.624,31.48 C132.816,32.44 133.616,32.936 135.04,32.936 C136.688,32.936 137.728,32.152 137.728,30.36 L137.728,29.144 C137.248,29.96 136.112,30.728 134.896,30.728 C132.704,30.728 131.088,29.064 131.088,26.76 L131.088,26.648 C131.088,24.376 132.688,22.488 134.992,22.488 C136.384,22.488 137.248,23.16 137.728,23.976 L137.728,22.632 L139.056,22.632 L139.056,30.44 C139.04,32.872 137.392,34.056 135.056,34.056 Z M135.04,29.624 C136.592,29.624 137.776,28.536 137.776,26.664 L137.776,26.552 C137.776,24.68 136.752,23.592 135.12,23.592 C133.456,23.592 132.464,24.824 132.464,26.584 L132.464,26.712 C132.464,28.536 133.632,29.624 135.04,29.624 Z M145.232,30.04 C146.912,30.04 147.968,28.776 147.968,26.888 L147.968,26.776 C147.968,24.84 146.896,23.592 145.232,23.592 C143.552,23.592 142.496,24.84 142.496,26.76 L142.496,26.888 C142.496,28.792 143.536,30.04 145.232,30.04 Z M145.216,31.144 C142.832,31.144 141.12,29.336 141.12,26.888 L141.12,26.76 C141.12,24.248 142.864,22.488 145.232,22.488 C147.6,22.488 149.344,24.232 149.344,26.744 L149.344,26.872 C149.344,29.4 147.6,31.144 145.216,31.144 Z M153.504,31.144 C151.952,31.144 150.72,30.392 150.72,28.68 C150.72,26.744 152.768,26.088 154.912,26.088 L156.112,26.088 L156.112,25.48 C156.112,24.152 155.6,23.592 154.32,23.592 C153.168,23.592 152.528,24.072 152.4,25.096 L151.072,25.096 C151.248,23.192 152.768,22.488 154.384,22.488 C155.984,22.488 157.44,23.144 157.44,25.48 L157.44,31 L156.112,31 L156.112,29.944 C155.488,30.728 154.736,31.144 153.504,31.144 Z M153.632,30.088 C155.04,30.088 156.112,29.368 156.112,28.072 L156.112,27.032 L154.96,27.032 C153.28,27.032 152.048,27.448 152.048,28.68 C152.048,29.544 152.464,30.088 153.632,30.088 Z M160.08,31 L160.08,18.632 L161.424,18.632 L161.424,31 L160.08,31 Z M166.736,31.144 C164.736,31.144 163.536,30.136 163.456,28.424 L164.752,28.424 C164.848,29.416 165.376,30.04 166.72,30.04 C167.984,30.04 168.544,29.608 168.544,28.712 C168.544,27.832 167.888,27.544 166.592,27.304 C164.416,26.904 163.68,26.296 163.68,24.84 C163.68,23.288 165.2,22.488 166.512,22.488 C168.016,22.488 169.312,23.096 169.536,24.904 L168.256,24.904 C168.064,23.992 167.552,23.592 166.496,23.592 C165.536,23.592 164.912,24.072 164.912,24.792 C164.912,25.544 165.328,25.848 166.864,26.12 C168.592,26.44 169.808,26.824 169.808,28.6 C169.808,30.12 168.768,31.144 166.736,31.144 Z M173.024,27.768 L173.024,26.968 C173.024,25.672 173.872,24.872 174.672,24.088 C175.296,23.464 175.84,22.888 175.84,22.12 C175.84,21.176 175.312,20.52 174.128,20.52 C172.928,20.52 172.112,21.336 172,22.6 L170.752,22.6 C170.864,20.728 172.192,19.416 174.144,19.416 C176.32,19.416 177.184,20.728 177.184,22.072 C177.184,23.256 176.384,24.008 175.616,24.744 C174.896,25.432 174.208,26.104 174.208,27.08 L174.208,27.768 L173.024,27.768 Z M173.584,31.08 C173.024,31.08 172.56,30.632 172.56,30.056 C172.56,29.48 173.024,29.032 173.584,29.032 C174.144,29.032 174.608,29.48 174.608,30.056 C174.608,30.632 174.144,31.08 173.584,31.08 Z" id="Whatareyourgoals?" fill="#000000" fill-rule="nonzero"></path>
                            </g>
                            <g id="Experience" transform="translate(255.000000, 0.000000)">
                                <rect id="Rectangle" fill="#FEF2EC" x="0" y="0" width="255" height="50" rx="6"></rect>
                                <path d="M23.44,31 L23.44,19.56 L24.832,19.56 L24.832,24.744 L30.848,24.744 L30.848,19.56 L32.24,19.56 L32.24,31 L30.848,31 L30.848,25.912 L24.832,25.912 L24.832,31 L23.44,31 Z M37.12,31.144 C35.568,31.144 34.336,30.392 34.336,28.68 C34.336,26.744 36.384,26.088 38.528,26.088 L39.728,26.088 L39.728,25.48 C39.728,24.152 39.216,23.592 37.936,23.592 C36.784,23.592 36.144,24.072 36.016,25.096 L34.688,25.096 C34.864,23.192 36.384,22.488 38,22.488 C39.6,22.488 41.056,23.144 41.056,25.48 L41.056,31 L39.728,31 L39.728,29.944 C39.104,30.728 38.352,31.144 37.12,31.144 Z M37.248,30.088 C38.656,30.088 39.728,29.368 39.728,28.072 L39.728,27.032 L38.576,27.032 C36.896,27.032 35.664,27.448 35.664,28.68 C35.664,29.544 36.08,30.088 37.248,30.088 Z M45.52,31 L42.48,22.632 L43.92,22.632 L46.4,29.656 L48.848,22.632 L50.224,22.632 L47.216,31 L45.52,31 Z M55.152,31.144 C52.784,31.144 51.104,29.48 51.104,26.904 L51.104,26.776 C51.104,24.248 52.72,22.488 55.024,22.488 C56.96,22.488 58.784,23.656 58.784,26.648 L58.784,27.08 L52.48,27.08 C52.544,28.984 53.456,30.04 55.168,30.04 C56.464,30.04 57.216,29.56 57.392,28.584 L58.72,28.584 C58.432,30.264 57.04,31.144 55.152,31.144 Z M52.528,26.008 L57.424,26.008 C57.296,24.28 56.4,23.592 55.024,23.592 C53.664,23.592 52.752,24.52 52.528,26.008 Z M65.808,33.912 L67.392,30.136 L64.112,22.632 L65.536,22.632 L68.096,28.632 L70.416,22.632 L71.776,22.632 L67.152,33.912 L65.808,33.912 Z M76.768,30.04 C78.448,30.04 79.504,28.776 79.504,26.888 L79.504,26.776 C79.504,24.84 78.432,23.592 76.768,23.592 C75.088,23.592 74.032,24.84 74.032,26.76 L74.032,26.888 C74.032,28.792 75.072,30.04 76.768,30.04 Z M76.752,31.144 C74.368,31.144 72.656,29.336 72.656,26.888 L72.656,26.76 C72.656,24.248 74.4,22.488 76.768,22.488 C79.136,22.488 80.88,24.232 80.88,26.744 L80.88,26.872 C80.88,29.4 79.136,31.144 76.752,31.144 Z M85.776,31.144 C84.112,31.144 82.864,30.232 82.864,27.928 L82.864,22.632 L84.192,22.632 L84.192,27.864 C84.192,29.336 84.816,29.992 86.128,29.992 C87.312,29.992 88.432,29.208 88.432,27.704 L88.432,22.632 L89.76,22.632 L89.76,31 L88.432,31 L88.432,29.672 C88.048,30.456 87.12,31.144 85.776,31.144 Z M96.688,31 L96.688,22.632 L98.016,22.632 L98.016,23.912 C98.4,23.128 99.312,22.488 100.512,22.488 C101.584,22.488 102.528,22.936 102.96,24.056 C103.536,22.968 104.784,22.488 105.824,22.488 C107.328,22.488 108.64,23.384 108.64,25.816 L108.64,31 L107.312,31 L107.312,25.72 C107.312,24.248 106.688,23.64 105.536,23.64 C104.448,23.64 103.328,24.376 103.328,25.88 L103.328,31 L102,31 L102,25.72 C102,24.248 101.376,23.64 100.224,23.64 C99.136,23.64 98.016,24.376 98.016,25.88 L98.016,31 L96.688,31 Z M114.672,31.144 C112.304,31.144 110.624,29.48 110.624,26.904 L110.624,26.776 C110.624,24.248 112.24,22.488 114.544,22.488 C116.48,22.488 118.304,23.656 118.304,26.648 L118.304,27.08 L112,27.08 C112.064,28.984 112.976,30.04 114.688,30.04 C115.984,30.04 116.736,29.56 116.912,28.584 L118.24,28.584 C117.952,30.264 116.56,31.144 114.672,31.144 Z M112.048,26.008 L116.944,26.008 C116.816,24.28 115.92,23.592 114.544,23.592 C113.184,23.592 112.272,24.52 112.048,26.008 Z M123.488,31.144 C121.296,31.144 119.712,29.592 119.712,26.984 L119.712,26.856 C119.712,24.296 121.312,22.488 123.616,22.488 C125.008,22.488 125.872,23.16 126.352,23.976 L126.352,18.632 L127.68,18.632 L127.68,31 L126.352,31 L126.352,29.56 C125.872,30.376 124.704,31.144 123.488,31.144 Z M123.632,30.04 C125.184,30.04 126.4,29.016 126.4,26.872 L126.4,26.744 C126.4,24.6 125.376,23.592 123.744,23.592 C122.08,23.592 121.088,24.76 121.088,26.792 L121.088,26.92 C121.088,29.032 122.224,30.04 123.632,30.04 Z M130.4,31 L130.4,22.632 L131.728,22.632 L131.728,31 L130.4,31 Z M131.04,20.888 C130.56,20.888 130.16,20.488 130.16,20.008 C130.16,19.528 130.56,19.128 131.04,19.128 C131.52,19.128 131.92,19.528 131.92,20.008 C131.92,20.488 131.52,20.888 131.04,20.888 Z M136.992,31.112 C135.472,31.112 134.736,30.216 134.736,28.904 L134.736,23.752 L133.536,23.752 L133.536,22.632 L134.736,22.632 L134.736,20.728 L136.064,20.728 L136.064,22.632 L138.016,22.632 L138.016,23.752 L136.064,23.752 L136.064,28.776 C136.064,29.592 136.432,29.992 137.104,29.992 C137.52,29.992 137.84,29.928 138.128,29.816 L138.128,30.936 C137.856,31.032 137.536,31.112 136.992,31.112 Z M142.304,31.144 C140.752,31.144 139.52,30.392 139.52,28.68 C139.52,26.744 141.568,26.088 143.712,26.088 L144.912,26.088 L144.912,25.48 C144.912,24.152 144.4,23.592 143.12,23.592 C141.968,23.592 141.328,24.072 141.2,25.096 L139.872,25.096 C140.048,23.192 141.568,22.488 143.184,22.488 C144.784,22.488 146.24,23.144 146.24,25.48 L146.24,31 L144.912,31 L144.912,29.944 C144.288,30.728 143.536,31.144 142.304,31.144 Z M142.432,30.088 C143.84,30.088 144.912,29.368 144.912,28.072 L144.912,27.032 L143.76,27.032 C142.08,27.032 140.848,27.448 140.848,28.68 C140.848,29.544 141.264,30.088 142.432,30.088 Z M151.392,31.112 C149.872,31.112 149.136,30.216 149.136,28.904 L149.136,23.752 L147.936,23.752 L147.936,22.632 L149.136,22.632 L149.136,20.728 L150.464,20.728 L150.464,22.632 L152.416,22.632 L152.416,23.752 L150.464,23.752 L150.464,28.776 C150.464,29.592 150.832,29.992 151.504,29.992 C151.92,29.992 152.24,29.928 152.528,29.816 L152.528,30.936 C152.256,31.032 151.936,31.112 151.392,31.112 Z M157.952,31.144 C155.584,31.144 153.904,29.48 153.904,26.904 L153.904,26.776 C153.904,24.248 155.52,22.488 157.824,22.488 C159.76,22.488 161.584,23.656 161.584,26.648 L161.584,27.08 L155.28,27.08 C155.344,28.984 156.256,30.04 157.968,30.04 C159.264,30.04 160.016,29.56 160.192,28.584 L161.52,28.584 C161.232,30.264 159.84,31.144 157.952,31.144 Z M155.328,26.008 L160.224,26.008 C160.096,24.28 159.2,23.592 157.824,23.592 C156.464,23.592 155.552,24.52 155.328,26.008 Z M166.768,31.144 C164.576,31.144 162.992,29.592 162.992,26.984 L162.992,26.856 C162.992,24.296 164.592,22.488 166.896,22.488 C168.288,22.488 169.152,23.16 169.632,23.976 L169.632,18.632 L170.96,18.632 L170.96,31 L169.632,31 L169.632,29.56 C169.152,30.376 167.984,31.144 166.768,31.144 Z M166.912,30.04 C168.464,30.04 169.68,29.016 169.68,26.872 L169.68,26.744 C169.68,24.6 168.656,23.592 167.024,23.592 C165.36,23.592 164.368,24.76 164.368,26.792 L164.368,26.92 C164.368,29.032 165.504,30.04 166.912,30.04 Z M182.048,31.144 C180.688,31.144 179.696,30.456 179.216,29.624 L179.216,31 L177.888,31 L177.888,18.632 L179.216,18.632 L179.216,24.04 C179.696,23.224 180.832,22.488 182.048,22.488 C184.24,22.488 185.856,24.088 185.856,26.696 L185.856,26.824 C185.856,29.384 184.352,31.144 182.048,31.144 Z M181.92,30.04 C183.584,30.04 184.48,28.92 184.48,26.888 L184.48,26.76 C184.48,24.648 183.312,23.592 181.904,23.592 C180.352,23.592 179.168,24.616 179.168,26.76 L179.168,26.888 C179.168,29.032 180.288,30.04 181.92,30.04 Z M191.344,31.144 C188.976,31.144 187.296,29.48 187.296,26.904 L187.296,26.776 C187.296,24.248 188.912,22.488 191.216,22.488 C193.152,22.488 194.976,23.656 194.976,26.648 L194.976,27.08 L188.672,27.08 C188.736,28.984 189.648,30.04 191.36,30.04 C192.656,30.04 193.408,29.56 193.584,28.584 L194.912,28.584 C194.624,30.264 193.232,31.144 191.344,31.144 Z M188.72,26.008 L193.616,26.008 C193.488,24.28 192.592,23.592 191.216,23.592 C189.856,23.592 188.944,24.52 188.72,26.008 Z M197.296,31 L197.296,23.752 L196.096,23.752 L196.096,22.632 L197.296,22.632 L197.296,21.272 C197.296,19.576 198.128,18.584 199.792,18.584 C200.224,18.584 200.448,18.632 200.784,18.744 L200.784,19.864 C200.544,19.768 200.208,19.688 199.84,19.688 C198.976,19.688 198.624,20.28 198.624,21.128 L198.624,22.632 L200.672,22.632 L200.672,23.752 L198.624,23.752 L198.624,31 L197.296,31 Z M205.632,30.04 C207.312,30.04 208.368,28.776 208.368,26.888 L208.368,26.776 C208.368,24.84 207.296,23.592 205.632,23.592 C203.952,23.592 202.896,24.84 202.896,26.76 L202.896,26.888 C202.896,28.792 203.936,30.04 205.632,30.04 Z M205.616,31.144 C203.232,31.144 201.52,29.336 201.52,26.888 L201.52,26.76 C201.52,24.248 203.264,22.488 205.632,22.488 C208,22.488 209.744,24.232 209.744,26.744 L209.744,26.872 C209.744,29.4 208,31.144 205.616,31.144 Z M211.808,31 L211.808,22.632 L213.136,22.632 L213.136,24.136 C213.664,23.192 214.384,22.536 215.888,22.488 L215.888,23.736 C214.208,23.816 213.136,24.344 213.136,26.408 L213.136,31 L211.808,31 Z M221.008,31.144 C218.64,31.144 216.96,29.48 216.96,26.904 L216.96,26.776 C216.96,24.248 218.576,22.488 220.88,22.488 C222.816,22.488 224.64,23.656 224.64,26.648 L224.64,27.08 L218.336,27.08 C218.4,28.984 219.312,30.04 221.024,30.04 C222.32,30.04 223.072,29.56 223.248,28.584 L224.576,28.584 C224.288,30.264 222.896,31.144 221.008,31.144 Z M218.384,26.008 L223.28,26.008 C223.152,24.28 222.256,23.592 220.88,23.592 C219.52,23.592 218.608,24.52 218.384,26.008 Z M228.032,27.768 L228.032,26.968 C228.032,25.672 228.88,24.872 229.68,24.088 C230.304,23.464 230.848,22.888 230.848,22.12 C230.848,21.176 230.32,20.52 229.136,20.52 C227.936,20.52 227.12,21.336 227.008,22.6 L225.76,22.6 C225.872,20.728 227.2,19.416 229.152,19.416 C231.328,19.416 232.192,20.728 232.192,22.072 C232.192,23.256 231.392,24.008 230.624,24.744 C229.904,25.432 229.216,26.104 229.216,27.08 L229.216,27.768 L228.032,27.768 Z M228.592,31.08 C228.032,31.08 227.568,30.632 227.568,30.056 C227.568,29.48 228.032,29.032 228.592,29.032 C229.152,29.032 229.616,29.48 229.616,30.056 C229.616,30.632 229.152,31.08 228.592,31.08 Z" id="Haveyoumeditatedbefore?" fill="#000000" fill-rule="nonzero"></path>
                            </g>
                            <g id="Focus" transform="translate(0.000000, 152.000000)">
                                <rect id="Rectangle" fill="#D7EDF0" x="0" y="0" width="177" height="50" rx="6"></rect>
                                <path d="M25.44,31 L25.44,19.56 L26.832,19.56 L26.832,24.744 L32.848,24.744 L32.848,19.56 L34.24,19.56 L34.24,31 L32.848,31 L32.848,25.912 L26.832,25.912 L26.832,31 L25.44,31 Z M40.512,30.04 C42.192,30.04 43.248,28.776 43.248,26.888 L43.248,26.776 C43.248,24.84 42.176,23.592 40.512,23.592 C38.832,23.592 37.776,24.84 37.776,26.76 L37.776,26.888 C37.776,28.792 38.816,30.04 40.512,30.04 Z M40.496,31.144 C38.112,31.144 36.4,29.336 36.4,26.888 L36.4,26.76 C36.4,24.248 38.144,22.488 40.512,22.488 C42.88,22.488 44.624,24.232 44.624,26.744 L44.624,26.872 C44.624,29.4 42.88,31.144 40.496,31.144 Z M48.208,31 L45.632,22.632 L47.072,22.632 L49.024,29.368 L51.056,22.632 L52.208,22.632 L54.112,29.368 L56.08,22.632 L57.44,22.632 L54.832,31 L53.36,31 L51.616,24.728 L49.664,31 L48.208,31 Z M66.96,30.04 C68.64,30.04 69.696,28.776 69.696,26.888 L69.696,26.776 C69.696,24.84 68.624,23.592 66.96,23.592 C65.28,23.592 64.224,24.84 64.224,26.76 L64.224,26.888 C64.224,28.792 65.264,30.04 66.96,30.04 Z M66.944,31.144 C64.56,31.144 62.848,29.336 62.848,26.888 L62.848,26.76 C62.848,24.248 64.592,22.488 66.96,22.488 C69.328,22.488 71.072,24.232 71.072,26.744 L71.072,26.872 C71.072,29.4 69.328,31.144 66.944,31.144 Z M73.168,31 L73.168,18.632 L74.512,18.632 L74.512,31 L73.168,31 Z M80.384,31.144 C78.192,31.144 76.608,29.592 76.608,26.984 L76.608,26.856 C76.608,24.296 78.208,22.488 80.512,22.488 C81.904,22.488 82.768,23.16 83.248,23.976 L83.248,18.632 L84.576,18.632 L84.576,31 L83.248,31 L83.248,29.56 C82.768,30.376 81.6,31.144 80.384,31.144 Z M80.528,30.04 C82.08,30.04 83.296,29.016 83.296,26.872 L83.296,26.744 C83.296,24.6 82.272,23.592 80.64,23.592 C78.976,23.592 77.984,24.76 77.984,26.792 L77.984,26.92 C77.984,29.032 79.12,30.04 80.528,30.04 Z M93.6,31.144 C92.048,31.144 90.816,30.392 90.816,28.68 C90.816,26.744 92.864,26.088 95.008,26.088 L96.208,26.088 L96.208,25.48 C96.208,24.152 95.696,23.592 94.416,23.592 C93.264,23.592 92.624,24.072 92.496,25.096 L91.168,25.096 C91.344,23.192 92.864,22.488 94.48,22.488 C96.08,22.488 97.536,23.144 97.536,25.48 L97.536,31 L96.208,31 L96.208,29.944 C95.584,30.728 94.832,31.144 93.6,31.144 Z M93.728,30.088 C95.136,30.088 96.208,29.368 96.208,28.072 L96.208,27.032 L95.056,27.032 C93.376,27.032 92.144,27.448 92.144,28.68 C92.144,29.544 92.56,30.088 93.728,30.088 Z M100.144,31 L100.144,22.632 L101.472,22.632 L101.472,24.136 C102,23.192 102.72,22.536 104.224,22.488 L104.224,23.736 C102.544,23.816 101.472,24.344 101.472,26.408 L101.472,31 L100.144,31 Z M109.344,31.144 C106.976,31.144 105.296,29.48 105.296,26.904 L105.296,26.776 C105.296,24.248 106.912,22.488 109.216,22.488 C111.152,22.488 112.976,23.656 112.976,26.648 L112.976,27.08 L106.672,27.08 C106.736,28.984 107.648,30.04 109.36,30.04 C110.656,30.04 111.408,29.56 111.584,28.584 L112.912,28.584 C112.624,30.264 111.232,31.144 109.344,31.144 Z M106.72,26.008 L111.616,26.008 C111.488,24.28 110.592,23.592 109.216,23.592 C107.856,23.592 106.944,24.52 106.72,26.008 Z M120,33.912 L121.584,30.136 L118.304,22.632 L119.728,22.632 L122.288,28.632 L124.608,22.632 L125.968,22.632 L121.344,33.912 L120,33.912 Z M130.96,30.04 C132.64,30.04 133.696,28.776 133.696,26.888 L133.696,26.776 C133.696,24.84 132.624,23.592 130.96,23.592 C129.28,23.592 128.224,24.84 128.224,26.76 L128.224,26.888 C128.224,28.792 129.264,30.04 130.96,30.04 Z M130.944,31.144 C128.56,31.144 126.848,29.336 126.848,26.888 L126.848,26.76 C126.848,24.248 128.592,22.488 130.96,22.488 C133.328,22.488 135.072,24.232 135.072,26.744 L135.072,26.872 C135.072,29.4 133.328,31.144 130.944,31.144 Z M139.968,31.144 C138.304,31.144 137.056,30.232 137.056,27.928 L137.056,22.632 L138.384,22.632 L138.384,27.864 C138.384,29.336 139.008,29.992 140.32,29.992 C141.504,29.992 142.624,29.208 142.624,27.704 L142.624,22.632 L143.952,22.632 L143.952,31 L142.624,31 L142.624,29.672 C142.24,30.456 141.312,31.144 139.968,31.144 Z M148.16,27.768 L148.16,26.968 C148.16,25.672 149.008,24.872 149.808,24.088 C150.432,23.464 150.976,22.888 150.976,22.12 C150.976,21.176 150.448,20.52 149.264,20.52 C148.064,20.52 147.248,21.336 147.136,22.6 L145.888,22.6 C146,20.728 147.328,19.416 149.28,19.416 C151.456,19.416 152.32,20.728 152.32,22.072 C152.32,23.256 151.52,24.008 150.752,24.744 C150.032,25.432 149.344,26.104 149.344,27.08 L149.344,27.768 L148.16,27.768 Z M148.72,31.08 C148.16,31.08 147.696,30.632 147.696,30.056 C147.696,29.48 148.16,29.032 148.72,29.032 C149.28,29.032 149.744,29.48 149.744,30.056 C149.744,30.632 149.28,31.08 148.72,31.08 Z" id="Howoldareyou?" fill="#000000" fill-rule="nonzero"></path>
                            </g>
                            <g id="Person" transform="translate(111.000000, 64.000000)">
                                <mask id="mask-2" fill="white">
                                    <use xlink:href="#path-1"></use>
                                </mask>
                                <g id="Mask"></g>
                                <g mask="url(#mask-2)">
                                    <g transform="translate(34.000000, 56.000000)">
                                        <g id="Group-4" stroke="none" stroke-width="1" fill="none" fill-rule="evenodd" transform="translate(123.531381, 110.965100)">
                                            <path d="M3.86870921,49.4377395 L38.7810063,36.0024362 L82.890569,104.370727 L106.419753,100.500246 C106.419753,100.500246 97.0665544,81.9971182 87.5100858,57.930522 C80.2842594,39.7364759 70.1179812,25.8083128 66.7876967,19.6823713 C63.2597113,13.1916579 53.4721276,23.1407437 48.7217385,20.2671203 C41.028113,15.6141893 39.6943285,9.62190481 32.2095418,8.02637552 L0.594115063,0.399578452" id="Fill-1" fill="#D7EDF0"></path>
                                            <path d="M3.86870921,49.4377395 L38.7810063,36.0024362 L82.890569,104.370727 L106.419753,100.500246 C106.419753,100.500246 97.0665544,81.9971182 87.5100858,57.930522 C80.2842594,39.7364759 70.1179812,25.8083128 66.7876967,19.6823713 C63.2597113,13.1916579 53.4721276,23.1407437 48.7217385,20.2671203 C41.028113,15.6141893 39.6943285,9.62190481 32.2095418,8.02637552 L0.594115063,0.399578452" id="Stroke-3" stroke="#000000" stroke-width="1.39225941"></path>
                                        </g>
                                        <g id="Group-8" stroke="none" stroke-width="1" fill="none" fill-rule="evenodd" transform="translate(1.012552, 120.331209)">
                                            <path d="M54.653599,31.9628335 L29.4871178,95.5111222 L3.17341485,98.2789339 C1.35790858,98.4682812 -0.0900412134,96.7975699 0.383326987,95.0321849 C2.79193577,86.0493272 9.45807385,62.1553711 17.0570257,43.0201577 C24.2800676,24.8261117 28.044737,15.77921 31.3778061,9.65605314 C34.9057914,3.16533975 45.4396262,3.22938368 50.1900153,0.355760251" id="Fill-5" fill="#D7EDF0"></path>
                                            <path d="M54.653599,31.9628335 L29.4871178,95.5111222 L3.17341485,98.2789339 C1.35790858,98.4682812 -0.0900412134,96.7975699 0.383326987,95.0321849 C2.79193577,86.0493272 9.45807385,62.1553711 17.0570257,43.0201577 C24.2800676,24.8261117 28.044737,15.77921 31.3778061,9.65605314 C34.9057914,3.16533975 45.4396262,3.22938368 50.1900153,0.355760251" id="Stroke-7" stroke="#000000" stroke-width="1.39225941"></path>
                                        </g>
                                        <g id="Group-12" stroke="none" stroke-width="1" fill="none" fill-rule="evenodd" transform="translate(74.422594, 0.596900)">
                                            <path d="M37.8001975,86.4853828 C52.8922895,86.6357469 75.1795782,84.5946946 76.4883021,71.3654456 C77.7998105,58.1027824 74.0685552,42.3813891 68.4466117,21.8372092 C63.0168,1.99751255 38.3905155,0.858644351 38.3905155,0.858644351 L38.1900301,0.858644351 C38.1900301,0.858644351 14.1234339,1.99751255 8.69362218,21.8372092 C3.06889414,42.3813891 -0.659576569,58.1027824 0.651931799,71.3654456 C1.95787113,84.5946946 24.2451598,86.6357469 39.3400364,86.4853828" id="Fill-9" fill="#000000"></path>
                                            <path d="M37.8001975,86.4853828 C52.8922895,86.6357469 75.1795782,84.5946946 76.4883021,71.3654456 C77.7998105,58.1027824 74.0685552,42.3813891 68.4466117,21.8372092 C63.0168,1.99751255 38.3905155,0.858644351 38.3905155,0.858644351 L38.1900301,0.858644351 C38.1900301,0.858644351 14.1234339,1.99751255 8.69362218,21.8372092 C3.06889414,42.3813891 -0.659576569,58.1027824 0.651931799,71.3654456 C1.95787113,84.5946946 24.2451598,86.6357469 39.3400364,86.4853828" id="Stroke-11" stroke="#000000" stroke-width="1.39225941"></path>
                                        </g>
                                        <path d="M150.653885,102.592888 C134.392295,99.1317308 127.219375,87.1360236 126.949276,75.6749441 L97.6450002,75.6749441 C97.2133998,80.971099 97.090881,94.7294065 76.8335065,102.041553 L112.040963,127.695325 C112.040963,127.695325 132.785628,129.858896 134.949199,127.695325 C137.11277,125.534538 150.653885,102.592888 150.653885,102.592888" id="Fill-13" stroke="none" fill="#D7EDF0" fill-rule="evenodd"></path>
                                        <path d="M150.653885,102.592888 C134.392295,99.1317308 127.219375,87.1360236 126.949276,75.6749441 L97.6450002,75.6749441 C97.2133998,80.971099 97.090881,94.7294065 76.8335065,102.041553 L112.040963,127.695325 C112.040963,127.695325 132.785628,129.858896 134.949199,127.695325 C137.11277,125.534538 150.653885,102.592888 150.653885,102.592888 Z" id="Stroke-15" stroke="#000000" stroke-width="1.39225941" fill="none"></path>
                                        <path d="M167.725492,142.148648 C167.725492,142.148648 169.217994,149.989853 167.825734,162.450575 C166.082626,178.01882 160.822669,188.591638 160.357655,196.396644 C159.889856,204.20165 158.634038,241.814931 158.634038,241.814931 L112.0379,241.814931 L112.046253,241.814931 L65.4501151,241.814931 C65.4501151,241.814931 64.1942971,204.20165 63.7292824,196.396644 C63.2614833,188.591638 58.0015272,178.01882 56.2612029,162.450575 C54.866159,149.989853 56.3586611,142.148648 56.3586611,142.148648" id="Fill-17" stroke="none" fill="#3DBFC6" fill-rule="evenodd"></path>
                                        <g id="Group-22" stroke="none" stroke-width="1" fill="none" fill-rule="evenodd" transform="translate(14.935146, 99.827025)">
                                            <path d="M40.8357027,56.4970517 L30.3492048,78.6840977 L0.721924477,69.8293278 C5.98188054,53.0971542 11.7708952,36.3176437 14.4161881,30.81265 C21.2661044,16.5754052 34.1918408,10.5747672 58.698391,2.76976088 C61.0735856,2.01237176 63.3708136,1.53621904 65.3923743,0.653526569 C71.7605688,7.39484665 83.6643868,11.9280433 97.3113136,11.9280433 L97.0996902,11.9280433 C110.746617,11.9280433 122.64765,7.39484665 129.018629,0.653526569 C131.042975,1.53621904 133.337418,2.01237176 135.715397,2.76976088 C160.221947,10.5747672 170.906146,14.3282985 179.777623,29.921604 C184.533581,38.2807295 190.12768,54.0522441 196.106042,69.0691542 L167.72901,78.6840977 L153.380385,56.4469303" id="Fill-19" fill="#30C5CA"></path>
                                            <path d="M40.8357027,56.4970517 L30.3492048,78.6840977 L0.721924477,69.8293278 C5.98188054,53.0971542 11.7708952,36.3176437 14.4161881,30.81265 C21.2661044,16.5754052 34.1918408,10.5747672 58.698391,2.76976088 C61.0735856,2.01237176 63.3708136,1.53621904 65.3923743,0.653526569 C71.7605688,7.39484665 83.6643868,11.9280433 97.3113136,11.9280433 L97.0996902,11.9280433 C110.746617,11.9280433 122.64765,7.39484665 129.018629,0.653526569 C131.042975,1.53621904 133.337418,2.01237176 135.715397,2.76976088 C160.221947,10.5747672 170.906146,14.3282985 179.777623,29.921604 C184.533581,38.2807295 190.12768,54.0522441 196.106042,69.0691542 L167.72901,78.6840977 L153.380385,56.4469303" id="Stroke-21" stroke="#000000" stroke-width="1.39225941"></path>
                                        </g>
                                        <path d="M167.725492,142.148648 C167.725492,142.148648 169.217994,149.989853 167.825734,162.450575 C166.082626,178.01882 160.822669,188.591638 160.357655,196.396644 C159.889856,204.20165 158.634038,241.814931 158.634038,241.814931" id="Stroke-23" stroke="#000000" stroke-width="1.39225941" fill="none"></path>
                                        <path d="M124.234927,191.194328 L101.749938,191.194328 C100.00126,191.194328 98.58394,189.777008 98.58394,188.031114 L98.58394,143.161378 C98.58394,141.4127 100.00126,139.99538 101.749938,139.99538 L124.234927,139.99538 C125.983605,139.99538 127.400925,141.4127 127.400925,143.161378 L127.400925,188.031114 C127.400925,189.777008 125.983605,191.194328 124.234927,191.194328" id="Fill-25" stroke="none" fill="#000000" fill-rule="evenodd"></path>
                                        <path d="M124.234927,191.194328 L101.749938,191.194328 C100.00126,191.194328 98.58394,189.777008 98.58394,188.031114 L98.58394,143.161378 C98.58394,141.4127 100.00126,139.99538 101.749938,139.99538 L124.234927,139.99538 C125.983605,139.99538 127.400925,141.4127 127.400925,143.161378 L127.400925,188.031114 C127.400925,189.777008 125.983605,191.194328 124.234927,191.194328 Z" id="Stroke-27" stroke="#000000" stroke-width="1.39225941" fill="none"></path>
                                        <g id="Group-32" stroke="none" stroke-width="1" fill="none" fill-rule="evenodd" transform="translate(110.621339, 150.960916)">
                                            <path d="M50.1712577,35.6123867 C39.0331824,35.6539916 29.4516531,27.6457155 29.4516531,27.6457155 C29.4516531,27.6457155 6.78566987,31.3101423 6.37913013,28.3223536 C5.91411548,24.9224561 29.4516531,21.9458054 29.4516531,21.9458054 C29.4516531,21.9458054 0.754402092,20.5284854 1.35864268,17.0589749 C1.90162385,13.9375293 29.9946343,15.4272469 29.9946343,15.4272469 C29.9946343,15.4272469 -0.00020251046,14.2076276 0.679220084,10.8160837 C1.23612385,8.03434937 31.3534795,9.32358159 31.3534795,9.32358159 C31.3534795,9.32358159 6.4487431,3.62367155 6.85528285,1.38491841 C7.47066151,-2.003841 28.6608498,3.17536402 34.9482933,5.04656067 C41.3276259,6.94838703 51.6888205,21.5253431 51.6888205,21.5253431" id="Fill-29" fill="#D7EDF0"></path>
                                            <path d="M50.1712577,35.6123867 C39.0331824,35.6539916 29.4516531,27.6457155 29.4516531,27.6457155 C29.4516531,27.6457155 6.78566987,31.3101423 6.37913013,28.3223536 C5.91411548,24.9224561 29.4516531,21.9458054 29.4516531,21.9458054 C29.4516531,21.9458054 0.754402092,20.5284854 1.35864268,17.0589749 C1.90162385,13.9375293 29.9946343,15.4272469 29.9946343,15.4272469 C29.9946343,15.4272469 -0.00020251046,14.2076276 0.679220084,10.8160837 C1.23612385,8.03434937 31.3534795,9.32358159 31.3534795,9.32358159 C31.3534795,9.32358159 6.4487431,3.62367155 6.85528285,1.38491841 C7.47066151,-2.003841 28.6608498,3.17536402 34.9482933,5.04656067 C41.3276259,6.94838703 51.6888205,21.5253431 51.6888205,21.5253431" id="Stroke-31" stroke="#000000" stroke-width="1.39225941"></path>
                                        </g>
                                        <g id="Group-36" stroke="none" stroke-width="1" fill="none" fill-rule="evenodd" transform="translate(160.742678, 172.224515)">
                                            <path d="M1.5685954,0.262858577 C1.5685954,0.262858577 43.9350494,19.1948021 56.3289427,26.5626389 C65.7044176,32.1372456 73.6096665,38.5332854 69.2073423,49.1478711 C65.5317774,58.0137791 54.8308715,58.5205615 43.1609531,52.383482 C31.4910347,46.2464025 5.34997197,18.9915322 0.051032636,14.3497393" id="Fill-33" fill="#D7EDF0"></path>
                                            <path d="M1.5685954,0.262858577 C1.5685954,0.262858577 43.9350494,19.1948021 56.3289427,26.5626389 C65.7044176,32.1372456 73.6096665,38.5332854 69.2073423,49.1478711 C65.5317774,58.0137791 54.8308715,58.5205615 43.1609531,52.383482 C31.4910347,46.2464025 5.34997197,18.9915322 0.051032636,14.3497393" id="Stroke-35" stroke="#000000" stroke-width="1.39225941"></path>
                                        </g>
                                        <path d="M112.39933,8.73622531 C100.392485,8.73622531 91.9247632,13.9154303 89.7417004,23.3159659 C86.5979787,36.8320203 87.8175979,54.0988215 89.1513824,57.3706312 C94.263759,74.350627 100.166939,81.8938885 112.39933,81.8938885 C124.264165,81.8938885 130.532117,74.350627 135.644493,57.3706312 C137.014477,54.0180705 138.487487,36.8348048 134.260587,22.5808529 C131.807426,14.3080475 123.442732,8.73622531 112.39933,8.73622531" id="Fill-37" stroke="none" fill="#D7EDF0" fill-rule="evenodd"></path>
                                        <path d="M112.39933,8.73622531 C100.392485,8.73622531 91.9247632,13.9154303 89.7417004,23.3159659 C86.5979787,36.8320203 87.8175979,54.0988215 89.1513824,57.3706312 C94.263759,74.350627 100.166939,81.8938885 112.39933,81.8938885 C124.264165,81.8938885 130.532117,74.350627 135.644493,57.3706312 C137.014477,54.0180705 138.487487,36.8348048 134.260587,22.5808529 C131.807426,14.3080475 123.442732,8.73622531 112.39933,8.73622531 Z" id="Stroke-39" stroke="#000000" stroke-width="1.39225941" fill="none" stroke-linecap="round" stroke-linejoin="round"></path>
                                        <path d="M80.9348243,40.7228285 C81.0489895,40.9093912 88.4029038,46.5703191 88.6228808,46.5703191 C89.692136,46.5731025 92.8943326,41.5108473 95.0467657,36.0921736 C97.7421799,29.3007322 98.638795,23.1747908 98.638795,23.1747908 C98.638795,23.1747908 107.557609,33.4218201 112.99299,36.7715962 C125.158552,44.27309 132.125418,45.3813285 135.001826,46.0301213 C135.809337,46.2111151 138.47969,45.0082029 138.852816,44.27309 L141.787699,35.6243745 L137.246149,13.5654163 L128.380241,9.02386611 L113.458004,5.56549372 L98.6081653,8.73706067 L88.3722741,14.4314017 L80.1662971,35.1927741 L80.9348243,40.7228285 Z" id="Fill-41" stroke="none" fill="#000000" fill-rule="evenodd"></path>
                                        <path d="M80.9348243,40.7228285 C81.0489895,40.9093912 88.4029038,46.5703191 88.6228808,46.5703191 C89.692136,46.5731025 92.8943326,41.5108473 95.0467657,36.0921736 C97.7421799,29.3007322 98.638795,23.1747908 98.638795,23.1747908 C98.638795,23.1747908 107.557609,33.4218201 112.99299,36.7715962 C125.158552,44.27309 132.125418,45.3813285 135.001826,46.0301213 C135.809337,46.2111151 138.47969,45.0082029 138.852816,44.27309 L141.787699,35.6243745 L137.246149,13.5654163 L128.380241,9.02386611 L113.458004,5.56549372 L98.6081653,8.73706067 L88.3722741,14.4314017 L80.1662971,35.1927741 L80.9348243,40.7228285 Z" id="Stroke-43" stroke="#000000" stroke-width="1.39225941" fill="none"></path>
                                        <path d="M88.9798561,47.5251295 C87.3007912,45.7207613 83.9760757,44.5067111 83.0933833,45.9602299 C81.7317536,48.2101211 83.0516155,50.7273262 84.2461741,52.5344789 C85.4435172,54.3388471 90.0491113,57.8389872 90.0491113,57.8389872 L92.6359293,52.4509433 L88.9798561,47.5251295 Z" id="Fill-45" stroke="none" fill="#D2ECEF" fill-rule="evenodd"></path>
                                        <g id="Group-50" stroke="none" stroke-width="1" fill="none" fill-rule="evenodd" transform="translate(69.612971, 144.379326)">
                                            <path d="M5.35462971,43.7790404 C16.2588054,41.5180111 23.9802762,31.7025822 23.9802762,31.7025822 C23.9802762,31.7025822 46.9135732,30.6054818 46.6963808,27.5982015 C46.4457741,24.1732433 22.8024247,26.125191 22.8024247,26.125191 C22.8024247,26.125191 50.5891381,18.8130446 49.2804142,15.5384504 C48.1053473,12.5979985 20.925659,19.8628082 20.925659,19.8628082 C20.925659,19.8628082 50.0210962,12.4699107 48.6538975,9.28999017 C47.5345209,6.68368054 18.3360565,14.1684672 18.3360565,14.1684672 C18.3360565,14.1684672 41.5255293,3.44528515 40.6623285,1.33740439 C39.3591736,-1.84808515 19.6949017,7.59700272 13.9337322,10.7295864 C8.08345816,13.9067224 0.957874477,30.3131073 0.957874477,30.3131073" id="Fill-47" fill="#D7EDF0"></path>
                                            <path d="M5.35462971,43.7790404 C16.2588054,41.5180111 23.9802762,31.7025822 23.9802762,31.7025822 C23.9802762,31.7025822 46.9135732,30.6054818 46.6963808,27.5982015 C46.4457741,24.1732433 22.8024247,26.125191 22.8024247,26.125191 C22.8024247,26.125191 50.5891381,18.8130446 49.2804142,15.5384504 C48.1053473,12.5979985 20.925659,19.8628082 20.925659,19.8628082 C20.925659,19.8628082 50.0210962,12.4699107 48.6538975,9.28999017 C47.5345209,6.68368054 18.3360565,14.1684672 18.3360565,14.1684672 C18.3360565,14.1684672 41.5255293,3.44528515 40.6623285,1.33740439 C39.3591736,-1.84808515 19.6949017,7.59700272 13.9337322,10.7295864 C8.08345816,13.9067224 0.957874477,30.3131073 0.957874477,30.3131073" id="Stroke-49" stroke="#000000" stroke-width="1.39225941"></path>
                                        </g>
                                        <path d="M65.4501151,241.814652 C65.4501151,241.814652 64.1942971,204.201372 63.7292824,196.396366 C63.2614833,188.591359 58.0015272,178.018541 56.2612029,162.450297 C54.866159,149.989575 56.3586611,142.14837 56.3586611,142.14837" id="Stroke-51" stroke="#000000" stroke-width="1.39225941" fill="none"></path>
                                        <g id="Group-56" stroke="none" stroke-width="1" fill="none" fill-rule="evenodd" transform="translate(0.000000, 173.237067)">
                                            <path d="M71.1931851,0.793486611 C71.1931851,0.793486611 26.1535931,21.2429929 13.7624843,28.6108297 C4.38144038,34.1854364 -1.22936506,41.9820891 1.30454707,50.1602209 C4.10855753,59.2043381 13.1721663,60.7246854 29.6008274,52.9113255 C41.5074299,47.2531833 69.6672688,19.563928 74.9662082,14.9221351" id="Fill-53" fill="#D7EDF0"></path>
                                            <path d="M71.1931851,0.793486611 C71.1931851,0.793486611 26.1535931,21.2429929 13.7624843,28.6108297 C4.38144038,34.1854364 -1.22936506,41.9820891 1.30454707,50.1602209 C4.10855753,59.2043381 13.1721663,60.7246854 29.6008274,52.9113255 C41.5074299,47.2531833 69.6672688,19.563928 74.9662082,14.9221351" id="Stroke-55" stroke="#000000" stroke-width="1.39225941"></path>
                                        </g>
                                    </g>
                                </g>
                            </g>
                            <g id="Age" transform="translate(61.000000, 0.000000)">
                                <rect id="Rectangle" fill="#E7E7F4" x="0" y="0" width="168" height="50" rx="6"></rect>
                                <path d="M20.44,31 L20.44,19.56 L21.832,19.56 L21.832,24.744 L27.848,24.744 L27.848,19.56 L29.24,19.56 L29.24,31 L27.848,31 L27.848,25.912 L21.832,25.912 L21.832,31 L20.44,31 Z M35.512,30.04 C37.192,30.04 38.248,28.776 38.248,26.888 L38.248,26.776 C38.248,24.84 37.176,23.592 35.512,23.592 C33.832,23.592 32.776,24.84 32.776,26.76 L32.776,26.888 C32.776,28.792 33.816,30.04 35.512,30.04 Z M35.496,31.144 C33.112,31.144 31.4,29.336 31.4,26.888 L31.4,26.76 C31.4,24.248 33.144,22.488 35.512,22.488 C37.88,22.488 39.624,24.232 39.624,26.744 L39.624,26.872 C39.624,29.4 37.88,31.144 35.496,31.144 Z M43.208,31 L40.632,22.632 L42.072,22.632 L44.024,29.368 L46.056,22.632 L47.208,22.632 L49.112,29.368 L51.08,22.632 L52.44,22.632 L49.832,31 L48.36,31 L46.616,24.728 L44.664,31 L43.208,31 Z M61.624,31.144 C59.432,31.144 57.848,29.592 57.848,26.984 L57.848,26.856 C57.848,24.296 59.448,22.488 61.752,22.488 C63.144,22.488 64.008,23.16 64.488,23.976 L64.488,18.632 L65.816,18.632 L65.816,31 L64.488,31 L64.488,29.56 C64.008,30.376 62.84,31.144 61.624,31.144 Z M61.768,30.04 C63.32,30.04 64.536,29.016 64.536,26.872 L64.536,26.744 C64.536,24.6 63.512,23.592 61.88,23.592 C60.216,23.592 59.224,24.76 59.224,26.792 L59.224,26.92 C59.224,29.032 60.36,30.04 61.768,30.04 Z M71.992,30.04 C73.672,30.04 74.728,28.776 74.728,26.888 L74.728,26.776 C74.728,24.84 73.656,23.592 71.992,23.592 C70.312,23.592 69.256,24.84 69.256,26.76 L69.256,26.888 C69.256,28.792 70.296,30.04 71.992,30.04 Z M71.976,31.144 C69.592,31.144 67.88,29.336 67.88,26.888 L67.88,26.76 C67.88,24.248 69.624,22.488 71.992,22.488 C74.36,22.488 76.104,24.232 76.104,26.744 L76.104,26.872 C76.104,29.4 74.36,31.144 71.976,31.144 Z M83.16,33.912 L84.744,30.136 L81.464,22.632 L82.888,22.632 L85.448,28.632 L87.768,22.632 L89.128,22.632 L84.504,33.912 L83.16,33.912 Z M94.12,30.04 C95.8,30.04 96.856,28.776 96.856,26.888 L96.856,26.776 C96.856,24.84 95.784,23.592 94.12,23.592 C92.44,23.592 91.384,24.84 91.384,26.76 L91.384,26.888 C91.384,28.792 92.424,30.04 94.12,30.04 Z M94.104,31.144 C91.72,31.144 90.008,29.336 90.008,26.888 L90.008,26.76 C90.008,24.248 91.752,22.488 94.12,22.488 C96.488,22.488 98.232,24.232 98.232,26.744 L98.232,26.872 C98.232,29.4 96.488,31.144 94.104,31.144 Z M103.128,31.144 C101.464,31.144 100.216,30.232 100.216,27.928 L100.216,22.632 L101.544,22.632 L101.544,27.864 C101.544,29.336 102.168,29.992 103.48,29.992 C104.664,29.992 105.784,29.208 105.784,27.704 L105.784,22.632 L107.112,22.632 L107.112,31 L105.784,31 L105.784,29.672 C105.4,30.456 104.472,31.144 103.128,31.144 Z M114.328,31 L114.328,23.752 L113.128,23.752 L113.128,22.632 L114.328,22.632 L114.328,21.272 C114.328,19.576 115.16,18.584 116.824,18.584 C117.256,18.584 117.48,18.632 117.816,18.744 L117.816,19.864 C117.576,19.768 117.24,19.688 116.872,19.688 C116.008,19.688 115.656,20.28 115.656,21.128 L115.656,22.632 L117.704,22.632 L117.704,23.752 L115.656,23.752 L115.656,31 L114.328,31 Z M122.6,31.144 C120.232,31.144 118.552,29.48 118.552,26.904 L118.552,26.776 C118.552,24.248 120.168,22.488 122.472,22.488 C124.408,22.488 126.232,23.656 126.232,26.648 L126.232,27.08 L119.928,27.08 C119.992,28.984 120.904,30.04 122.616,30.04 C123.912,30.04 124.664,29.56 124.84,28.584 L126.168,28.584 C125.88,30.264 124.488,31.144 122.6,31.144 Z M119.976,26.008 L124.872,26.008 C124.744,24.28 123.848,23.592 122.472,23.592 C121.112,23.592 120.2,24.52 119.976,26.008 Z M131.688,31.144 C129.32,31.144 127.64,29.48 127.64,26.904 L127.64,26.776 C127.64,24.248 129.256,22.488 131.56,22.488 C133.496,22.488 135.32,23.656 135.32,26.648 L135.32,27.08 L129.016,27.08 C129.08,28.984 129.992,30.04 131.704,30.04 C133,30.04 133.752,29.56 133.928,28.584 L135.256,28.584 C134.968,30.264 133.576,31.144 131.688,31.144 Z M129.064,26.008 L133.96,26.008 C133.832,24.28 132.936,23.592 131.56,23.592 C130.2,23.592 129.288,24.52 129.064,26.008 Z M137.384,31 L137.384,18.632 L138.728,18.632 L138.728,31 L137.384,31 Z M142.968,27.768 L142.968,26.968 C142.968,25.672 143.816,24.872 144.616,24.088 C145.24,23.464 145.784,22.888 145.784,22.12 C145.784,21.176 145.256,20.52 144.072,20.52 C142.872,20.52 142.056,21.336 141.944,22.6 L140.696,22.6 C140.808,20.728 142.136,19.416 144.088,19.416 C146.264,19.416 147.128,20.728 147.128,22.072 C147.128,23.256 146.328,24.008 145.56,24.744 C144.84,25.432 144.152,26.104 144.152,27.08 L144.152,27.768 L142.968,27.768 Z M143.528,31.08 C142.968,31.08 142.504,30.632 142.504,30.056 C142.504,29.48 142.968,29.032 143.528,29.032 C144.088,29.032 144.552,29.48 144.552,30.056 C144.552,30.632 144.088,31.08 143.528,31.08 Z" id="Howdoyoufeel?" fill="#000000" fill-rule="nonzero"></path>
                            </g>
                        </g>
                    </g>
                </g>
            </g>
        </g>
    </g>
</svg>