<?xml version="1.0" encoding="UTF-8"?>
<svg width="301px" height="267px" viewBox="0 0 301 267" version="1.1" xmlns="http://www.w3.org/2000/svg" xmlns:xlink="http://www.w3.org/1999/xlink">
    <!-- Generator: Sketch 57.1 (83088) - https://sketch.com -->
    <title>Image-03_mobile</title>
    <desc>Created with Sketch.</desc>
    <defs>
        <rect id="path-1" x="0" y="0" width="375" height="299"></rect>
    </defs>
    <g id="Landing" stroke="none" stroke-width="1" fill="none" fill-rule="evenodd">
        <g id="03-balance_mobile" transform="translate(-38.000000, -2119.000000)">
            <g id="02---Slides" transform="translate(0.000000, 869.000000)">
                <g id="Image-03_mobile" transform="translate(0.000000, 1234.000000)">
                    <mask id="mask-2" fill="white">
                        <use xlink:href="#path-1"></use>
                    </mask>
                    <g id="Image-Bg"></g>
                    <g id="Image-03" mask="url(#mask-2)">
                        <g transform="translate(38.000000, 16.000000)">
                            <polyline id="Path-2" stroke="#FFDED9" stroke-width="1" points="244.167969 223 244.167969 166.5 244.167969 129.15 215.5 128.8"></polyline>
                            <path d="M96,142 L96,191" id="line1" stroke="#E7E7F4" stroke-width="0.7" transform="translate(96.000000, 166.500000) scale(1, -1) translate(-96.000000, -166.500000) "></path>
                            <polyline id="line3" stroke="#FFF0DE" stroke-width="0.7" transform="translate(107.000000, 73.000000) scale(1, -1) rotate(-90.000000) translate(-107.000000, -73.000000) " points="68.3 57.7 99.7 57.3 99.7 88.7 145.7 88.7"></polyline>
                            <g id="Anxiety" stroke="none" stroke-width="1" fill-rule="evenodd" transform="translate(6.000000, 171.000000)">
                                <rect id="Rectangle" fill="#E7E7F4" x="0" y="0" width="156" height="42" rx="4.2"></rect>
                                <path d="M15.33,26 L15.33,15.99 L16.548,15.99 L16.548,26 L15.33,26 Z M25.816,25.16 C27.286,25.16 28.21,24.054 28.21,22.402 L28.21,22.304 C28.21,20.61 27.272,19.518 25.816,19.518 C24.346,19.518 23.422,20.61 23.422,22.29 L23.422,22.402 C23.422,24.068 24.332,25.16 25.816,25.16 Z M25.802,26.126 C23.716,26.126 22.218,24.544 22.218,22.402 L22.218,22.29 C22.218,20.092 23.744,18.552 25.816,18.552 C27.888,18.552 29.414,20.078 29.414,22.276 L29.414,22.388 C29.414,24.6 27.888,26.126 25.802,26.126 Z M31.472,26 L31.472,19.658 L30.422,19.658 L30.422,18.678 L31.472,18.678 L31.472,17.488 C31.472,16.004 32.2,15.136 33.656,15.136 C34.034,15.136 34.23,15.178 34.524,15.276 L34.524,16.256 C34.314,16.172 34.02,16.102 33.698,16.102 C32.942,16.102 32.634,16.62 32.634,17.362 L32.634,18.678 L34.426,18.678 L34.426,19.658 L32.634,19.658 L32.634,26 L31.472,26 Z M38.36,26.098 C37.03,26.098 36.386,25.314 36.386,24.166 L36.386,19.658 L35.336,19.658 L35.336,18.678 L36.386,18.678 L36.386,17.012 L37.548,17.012 L37.548,18.678 L39.256,18.678 L39.256,19.658 L37.548,19.658 L37.548,24.054 C37.548,24.768 37.87,25.118 38.458,25.118 C38.822,25.118 39.102,25.062 39.354,24.964 L39.354,25.944 C39.116,26.028 38.836,26.098 38.36,26.098 Z M44.1,26.126 C42.028,26.126 40.558,24.67 40.558,22.416 L40.558,22.304 C40.558,20.092 41.972,18.552 43.988,18.552 C45.682,18.552 47.278,19.574 47.278,22.192 L47.278,22.57 L41.762,22.57 C41.818,24.236 42.616,25.16 44.114,25.16 C45.248,25.16 45.906,24.74 46.06,23.886 L47.222,23.886 C46.97,25.356 45.752,26.126 44.1,26.126 Z M41.804,21.632 L46.088,21.632 C45.976,20.12 45.192,19.518 43.988,19.518 C42.798,19.518 42,20.33 41.804,21.632 Z M49.056,26 L49.056,18.678 L50.218,18.678 L50.218,19.84 C50.554,19.154 51.366,18.552 52.57,18.552 C54.082,18.552 55.146,19.378 55.146,21.506 L55.146,26 L53.984,26 L53.984,21.422 C53.984,20.134 53.438,19.56 52.262,19.56 C51.184,19.56 50.218,20.246 50.218,21.562 L50.218,26 L49.056,26 Z M61.39,26 L61.39,19.658 L60.34,19.658 L60.34,18.678 L61.39,18.678 L61.39,17.488 C61.39,16.004 62.118,15.136 63.574,15.136 C63.952,15.136 64.148,15.178 64.442,15.276 L64.442,16.256 C64.232,16.172 63.938,16.102 63.616,16.102 C62.86,16.102 62.552,16.62 62.552,17.362 L62.552,18.678 L64.344,18.678 L64.344,19.658 L62.552,19.658 L62.552,26 L61.39,26 Z M68.628,26.126 C66.556,26.126 65.086,24.67 65.086,22.416 L65.086,22.304 C65.086,20.092 66.5,18.552 68.516,18.552 C70.21,18.552 71.806,19.574 71.806,22.192 L71.806,22.57 L66.29,22.57 C66.346,24.236 67.144,25.16 68.642,25.16 C69.776,25.16 70.434,24.74 70.588,23.886 L71.75,23.886 C71.498,25.356 70.28,26.126 68.628,26.126 Z M66.332,21.632 L70.616,21.632 C70.504,20.12 69.72,19.518 68.516,19.518 C67.326,19.518 66.528,20.33 66.332,21.632 Z M76.58,26.126 C74.508,26.126 73.038,24.67 73.038,22.416 L73.038,22.304 C73.038,20.092 74.452,18.552 76.468,18.552 C78.162,18.552 79.758,19.574 79.758,22.192 L79.758,22.57 L74.242,22.57 C74.298,24.236 75.096,25.16 76.594,25.16 C77.728,25.16 78.386,24.74 78.54,23.886 L79.702,23.886 C79.45,25.356 78.232,26.126 76.58,26.126 Z M74.284,21.632 L78.568,21.632 C78.456,20.12 77.672,19.518 76.468,19.518 C75.278,19.518 74.48,20.33 74.284,21.632 Z M81.564,26 L81.564,15.178 L82.74,15.178 L82.74,26 L81.564,26 Z M90.664,26.126 C89.306,26.126 88.228,25.468 88.228,23.97 C88.228,22.276 90.02,21.702 91.896,21.702 L92.946,21.702 L92.946,21.17 C92.946,20.008 92.498,19.518 91.378,19.518 C90.37,19.518 89.81,19.938 89.698,20.834 L88.536,20.834 C88.69,19.168 90.02,18.552 91.434,18.552 C92.834,18.552 94.108,19.126 94.108,21.17 L94.108,26 L92.946,26 L92.946,25.076 C92.4,25.762 91.742,26.126 90.664,26.126 Z M90.776,25.202 C92.008,25.202 92.946,24.572 92.946,23.438 L92.946,22.528 L91.938,22.528 C90.468,22.528 89.39,22.892 89.39,23.97 C89.39,24.726 89.754,25.202 90.776,25.202 Z M96.39,26 L96.39,18.678 L97.552,18.678 L97.552,19.84 C97.888,19.154 98.7,18.552 99.904,18.552 C101.416,18.552 102.48,19.378 102.48,21.506 L102.48,26 L101.318,26 L101.318,21.422 C101.318,20.134 100.772,19.56 99.596,19.56 C98.518,19.56 97.552,20.246 97.552,21.562 L97.552,26 L96.39,26 Z M103.978,26 L106.596,22.234 L104.146,18.678 L105.504,18.678 L107.296,21.338 L109.074,18.678 L110.334,18.678 L107.912,22.15 L110.586,26 L109.214,26 L107.24,23.046 L105.224,26 L103.978,26 Z M112.182,26 L112.182,18.678 L113.344,18.678 L113.344,26 L112.182,26 Z M112.742,17.152 C112.322,17.152 111.972,16.802 111.972,16.382 C111.972,15.962 112.322,15.612 112.742,15.612 C113.162,15.612 113.512,15.962 113.512,16.382 C113.512,16.802 113.162,17.152 112.742,17.152 Z M118.776,25.16 C120.246,25.16 121.17,24.054 121.17,22.402 L121.17,22.304 C121.17,20.61 120.232,19.518 118.776,19.518 C117.306,19.518 116.382,20.61 116.382,22.29 L116.382,22.402 C116.382,24.068 117.292,25.16 118.776,25.16 Z M118.762,26.126 C116.676,26.126 115.178,24.544 115.178,22.402 L115.178,22.29 C115.178,20.092 116.704,18.552 118.776,18.552 C120.848,18.552 122.374,20.078 122.374,22.276 L122.374,22.388 C122.374,24.6 120.848,26.126 118.762,26.126 Z M126.658,26.126 C125.202,26.126 124.11,25.328 124.11,23.312 L124.11,18.678 L125.272,18.678 L125.272,23.256 C125.272,24.544 125.818,25.118 126.966,25.118 C128.002,25.118 128.982,24.432 128.982,23.116 L128.982,18.678 L130.144,18.678 L130.144,26 L128.982,26 L128.982,24.838 C128.646,25.524 127.834,26.126 126.658,26.126 Z M134.764,26.126 C133.014,26.126 131.964,25.244 131.894,23.746 L133.028,23.746 C133.112,24.614 133.574,25.16 134.75,25.16 C135.856,25.16 136.346,24.782 136.346,23.998 C136.346,23.228 135.772,22.976 134.638,22.766 C132.734,22.416 132.09,21.884 132.09,20.61 C132.09,19.252 133.42,18.552 134.568,18.552 C135.884,18.552 137.018,19.084 137.214,20.666 L136.094,20.666 C135.926,19.868 135.478,19.518 134.554,19.518 C133.714,19.518 133.168,19.938 133.168,20.568 C133.168,21.226 133.532,21.492 134.876,21.73 C136.388,22.01 137.452,22.346 137.452,23.9 C137.452,25.23 136.542,26.126 134.764,26.126 Z M140.014,26.07 C139.524,26.07 139.118,25.678 139.118,25.174 C139.118,24.67 139.524,24.278 140.014,24.278 C140.504,24.278 140.91,24.67 140.91,25.174 C140.91,25.678 140.504,26.07 140.014,26.07 Z" id="Ioftenfeelanxious." fill="#000000" fill-rule="nonzero"></path>
                            </g>
                            <g id="Focus" stroke="none" stroke-width="1" fill-rule="evenodd" transform="translate(126.000000, 223.000000)">
                                <rect id="Rectangle" fill="#FFDED9" x="0" y="0" width="175" height="44" rx="4.2"></rect>
                                <path d="M17.33,27 L17.33,16.99 L18.548,16.99 L18.548,27 L17.33,27 Z M26.234,27 L23.98,19.678 L25.24,19.678 L26.948,25.572 L28.726,19.678 L29.734,19.678 L31.4,25.572 L33.122,19.678 L34.312,19.678 L32.03,27 L30.742,27 L29.216,21.512 L27.508,27 L26.234,27 Z M37.574,27.126 C36.216,27.126 35.138,26.468 35.138,24.97 C35.138,23.276 36.93,22.702 38.806,22.702 L39.856,22.702 L39.856,22.17 C39.856,21.008 39.408,20.518 38.288,20.518 C37.28,20.518 36.72,20.938 36.608,21.834 L35.446,21.834 C35.6,20.168 36.93,19.552 38.344,19.552 C39.744,19.552 41.018,20.126 41.018,22.17 L41.018,27 L39.856,27 L39.856,26.076 C39.31,26.762 38.652,27.126 37.574,27.126 Z M37.686,26.202 C38.918,26.202 39.856,25.572 39.856,24.438 L39.856,23.528 L38.848,23.528 C37.378,23.528 36.3,23.892 36.3,24.97 C36.3,25.726 36.664,26.202 37.686,26.202 Z M43.3,27 L43.3,19.678 L44.462,19.678 L44.462,20.84 C44.798,20.154 45.61,19.552 46.814,19.552 C48.326,19.552 49.39,20.378 49.39,22.506 L49.39,27 L48.228,27 L48.228,22.422 C48.228,21.134 47.682,20.56 46.506,20.56 C45.428,20.56 44.462,21.246 44.462,22.562 L44.462,27 L43.3,27 Z M53.898,27.098 C52.568,27.098 51.924,26.314 51.924,25.166 L51.924,20.658 L50.874,20.658 L50.874,19.678 L51.924,19.678 L51.924,18.012 L53.086,18.012 L53.086,19.678 L54.794,19.678 L54.794,20.658 L53.086,20.658 L53.086,25.054 C53.086,25.768 53.408,26.118 53.996,26.118 C54.36,26.118 54.64,26.062 54.892,25.964 L54.892,26.944 C54.654,27.028 54.374,27.098 53.898,27.098 Z M62.578,27.098 C61.248,27.098 60.604,26.314 60.604,25.166 L60.604,20.658 L59.554,20.658 L59.554,19.678 L60.604,19.678 L60.604,18.012 L61.766,18.012 L61.766,19.678 L63.474,19.678 L63.474,20.658 L61.766,20.658 L61.766,25.054 C61.766,25.768 62.088,26.118 62.676,26.118 C63.04,26.118 63.32,26.062 63.572,25.964 L63.572,26.944 C63.334,27.028 63.054,27.098 62.578,27.098 Z M68.374,26.16 C69.844,26.16 70.768,25.054 70.768,23.402 L70.768,23.304 C70.768,21.61 69.83,20.518 68.374,20.518 C66.904,20.518 65.98,21.61 65.98,23.29 L65.98,23.402 C65.98,25.068 66.89,26.16 68.374,26.16 Z M68.36,27.126 C66.274,27.126 64.776,25.544 64.776,23.402 L64.776,23.29 C64.776,21.092 66.302,19.552 68.374,19.552 C70.446,19.552 71.972,21.078 71.972,23.276 L71.972,23.388 C71.972,25.6 70.446,27.126 68.36,27.126 Z M77.74,27 L77.74,20.658 L76.69,20.658 L76.69,19.678 L77.74,19.678 L77.74,18.488 C77.74,17.004 78.468,16.136 79.924,16.136 C80.302,16.136 80.498,16.178 80.792,16.276 L80.792,17.256 C80.582,17.172 80.288,17.102 79.966,17.102 C79.21,17.102 78.902,17.62 78.902,18.362 L78.902,19.678 L80.694,19.678 L80.694,20.658 L78.902,20.658 L78.902,27 L77.74,27 Z M85.034,26.16 C86.504,26.16 87.428,25.054 87.428,23.402 L87.428,23.304 C87.428,21.61 86.49,20.518 85.034,20.518 C83.564,20.518 82.64,21.61 82.64,23.29 L82.64,23.402 C82.64,25.068 83.55,26.16 85.034,26.16 Z M85.02,27.126 C82.934,27.126 81.436,25.544 81.436,23.402 L81.436,23.29 C81.436,21.092 82.962,19.552 85.034,19.552 C87.106,19.552 88.632,21.078 88.632,23.276 L88.632,23.388 C88.632,25.6 87.106,27.126 85.02,27.126 Z M93.476,27.126 C91.432,27.126 89.892,25.684 89.892,23.416 L89.892,23.304 C89.892,21.064 91.488,19.552 93.448,19.552 C94.974,19.552 96.402,20.252 96.626,22.114 L95.478,22.114 C95.296,20.952 94.456,20.518 93.448,20.518 C92.118,20.518 91.096,21.582 91.096,23.304 L91.096,23.416 C91.096,25.208 92.076,26.16 93.49,26.16 C94.526,26.16 95.464,25.558 95.59,24.368 L96.668,24.368 C96.514,25.95 95.24,27.126 93.476,27.126 Z M100.896,27.126 C99.44,27.126 98.348,26.328 98.348,24.312 L98.348,19.678 L99.51,19.678 L99.51,24.256 C99.51,25.544 100.056,26.118 101.204,26.118 C102.24,26.118 103.22,25.432 103.22,24.116 L103.22,19.678 L104.382,19.678 L104.382,27 L103.22,27 L103.22,25.838 C102.884,26.524 102.072,27.126 100.896,27.126 Z M109.002,27.126 C107.252,27.126 106.202,26.244 106.132,24.746 L107.266,24.746 C107.35,25.614 107.812,26.16 108.988,26.16 C110.094,26.16 110.584,25.782 110.584,24.998 C110.584,24.228 110.01,23.976 108.876,23.766 C106.972,23.416 106.328,22.884 106.328,21.61 C106.328,20.252 107.658,19.552 108.806,19.552 C110.122,19.552 111.256,20.084 111.452,21.666 L110.332,21.666 C110.164,20.868 109.716,20.518 108.792,20.518 C107.952,20.518 107.406,20.938 107.406,21.568 C107.406,22.226 107.77,22.492 109.114,22.73 C110.626,23.01 111.69,23.346 111.69,24.9 C111.69,26.23 110.78,27.126 109.002,27.126 Z M120.804,27.126 C119.614,27.126 118.746,26.524 118.326,25.796 L118.326,27 L117.164,27 L117.164,16.178 L118.326,16.178 L118.326,20.91 C118.746,20.196 119.74,19.552 120.804,19.552 C122.722,19.552 124.136,20.952 124.136,23.234 L124.136,23.346 C124.136,25.586 122.82,27.126 120.804,27.126 Z M120.692,26.16 C122.148,26.16 122.932,25.18 122.932,23.402 L122.932,23.29 C122.932,21.442 121.91,20.518 120.678,20.518 C119.32,20.518 118.284,21.414 118.284,23.29 L118.284,23.402 C118.284,25.278 119.264,26.16 120.692,26.16 Z M128.938,27.126 C126.866,27.126 125.396,25.67 125.396,23.416 L125.396,23.304 C125.396,21.092 126.81,19.552 128.826,19.552 C130.52,19.552 132.116,20.574 132.116,23.192 L132.116,23.57 L126.6,23.57 C126.656,25.236 127.454,26.16 128.952,26.16 C130.086,26.16 130.744,25.74 130.898,24.886 L132.06,24.886 C131.808,26.356 130.59,27.126 128.938,27.126 Z M126.642,22.632 L130.926,22.632 C130.814,21.12 130.03,20.518 128.826,20.518 C127.636,20.518 126.838,21.33 126.642,22.632 Z M136.12,27.098 C134.79,27.098 134.146,26.314 134.146,25.166 L134.146,20.658 L133.096,20.658 L133.096,19.678 L134.146,19.678 L134.146,18.012 L135.308,18.012 L135.308,19.678 L137.016,19.678 L137.016,20.658 L135.308,20.658 L135.308,25.054 C135.308,25.768 135.63,26.118 136.218,26.118 C136.582,26.118 136.862,26.062 137.114,25.964 L137.114,26.944 C136.876,27.028 136.596,27.098 136.12,27.098 Z M141.09,27.098 C139.76,27.098 139.116,26.314 139.116,25.166 L139.116,20.658 L138.066,20.658 L138.066,19.678 L139.116,19.678 L139.116,18.012 L140.278,18.012 L140.278,19.678 L141.986,19.678 L141.986,20.658 L140.278,20.658 L140.278,25.054 C140.278,25.768 140.6,26.118 141.188,26.118 C141.552,26.118 141.832,26.062 142.084,25.964 L142.084,26.944 C141.846,27.028 141.566,27.098 141.09,27.098 Z M146.83,27.126 C144.758,27.126 143.288,25.67 143.288,23.416 L143.288,23.304 C143.288,21.092 144.702,19.552 146.718,19.552 C148.412,19.552 150.008,20.574 150.008,23.192 L150.008,23.57 L144.492,23.57 C144.548,25.236 145.346,26.16 146.844,26.16 C147.978,26.16 148.636,25.74 148.79,24.886 L149.952,24.886 C149.7,26.356 148.482,27.126 146.83,27.126 Z M144.534,22.632 L148.818,22.632 C148.706,21.12 147.922,20.518 146.718,20.518 C145.528,20.518 144.73,21.33 144.534,22.632 Z M151.786,27 L151.786,19.678 L152.948,19.678 L152.948,20.994 C153.41,20.168 154.04,19.594 155.356,19.552 L155.356,20.644 C153.886,20.714 152.948,21.176 152.948,22.982 L152.948,27 L151.786,27 Z M157.008,27.07 C156.518,27.07 156.112,26.678 156.112,26.174 C156.112,25.67 156.518,25.278 157.008,25.278 C157.498,25.278 157.904,25.67 157.904,26.174 C157.904,26.678 157.498,27.07 157.008,27.07 Z" id="Iwanttofocusbetter." fill="#000000" fill-rule="nonzero"></path>
                            </g>
                            <g id="Mind-wander" stroke="none" stroke-width="1" fill-rule="evenodd">
                                <rect id="Rectangle" fill="#FFF0DE" x="0" y="0" width="187" height="42" rx="4.2"></rect>
                                <path d="M15.26,26 L15.26,15.99 L16.954,15.99 L20.048,23.788 L23.044,15.99 L24.724,15.99 L24.724,26 L23.506,26 L23.506,17.572 L20.188,26 L19.81,26 L16.38,17.572 L16.38,26 L15.26,26 Z M27.818,28.548 L29.204,25.244 L26.334,18.678 L27.58,18.678 L29.82,23.928 L31.85,18.678 L33.04,18.678 L28.994,28.548 L27.818,28.548 Z M38.276,26 L38.276,18.678 L39.438,18.678 L39.438,19.798 C39.774,19.112 40.572,18.552 41.622,18.552 C42.56,18.552 43.386,18.944 43.764,19.924 C44.268,18.972 45.36,18.552 46.27,18.552 C47.586,18.552 48.734,19.336 48.734,21.464 L48.734,26 L47.572,26 L47.572,21.38 C47.572,20.092 47.026,19.56 46.018,19.56 C45.066,19.56 44.086,20.204 44.086,21.52 L44.086,26 L42.924,26 L42.924,21.38 C42.924,20.092 42.378,19.56 41.37,19.56 C40.418,19.56 39.438,20.204 39.438,21.52 L39.438,26 L38.276,26 Z M51.044,26 L51.044,18.678 L52.206,18.678 L52.206,26 L51.044,26 Z M51.604,17.152 C51.184,17.152 50.834,16.802 50.834,16.382 C50.834,15.962 51.184,15.612 51.604,15.612 C52.024,15.612 52.374,15.962 52.374,16.382 C52.374,16.802 52.024,17.152 51.604,17.152 Z M54.586,26 L54.586,18.678 L55.748,18.678 L55.748,19.84 C56.084,19.154 56.896,18.552 58.1,18.552 C59.612,18.552 60.676,19.378 60.676,21.506 L60.676,26 L59.514,26 L59.514,21.422 C59.514,20.134 58.968,19.56 57.792,19.56 C56.714,19.56 55.748,20.246 55.748,21.562 L55.748,26 L54.586,26 Z M65.716,26.126 C63.798,26.126 62.412,24.768 62.412,22.486 L62.412,22.374 C62.412,20.134 63.812,18.552 65.828,18.552 C67.046,18.552 67.802,19.14 68.222,19.854 L68.222,15.178 L69.384,15.178 L69.384,26 L68.222,26 L68.222,24.74 C67.802,25.454 66.78,26.126 65.716,26.126 Z M65.842,25.16 C67.2,25.16 68.264,24.264 68.264,22.388 L68.264,22.276 C68.264,20.4 67.368,19.518 65.94,19.518 C64.484,19.518 63.616,20.54 63.616,22.318 L63.616,22.43 C63.616,24.278 64.61,25.16 65.842,25.16 Z M78.498,25.16 C79.968,25.16 80.892,24.054 80.892,22.402 L80.892,22.304 C80.892,20.61 79.954,19.518 78.498,19.518 C77.028,19.518 76.104,20.61 76.104,22.29 L76.104,22.402 C76.104,24.068 77.014,25.16 78.498,25.16 Z M78.484,26.126 C76.398,26.126 74.9,24.544 74.9,22.402 L74.9,22.29 C74.9,20.092 76.426,18.552 78.498,18.552 C80.57,18.552 82.096,20.078 82.096,22.276 L82.096,22.388 C82.096,24.6 80.57,26.126 78.484,26.126 Z M84.154,26 L84.154,19.658 L83.104,19.658 L83.104,18.678 L84.154,18.678 L84.154,17.488 C84.154,16.004 84.882,15.136 86.338,15.136 C86.716,15.136 86.912,15.178 87.206,15.276 L87.206,16.256 C86.996,16.172 86.702,16.102 86.38,16.102 C85.624,16.102 85.316,16.62 85.316,17.362 L85.316,18.678 L87.108,18.678 L87.108,19.658 L85.316,19.658 L85.316,26 L84.154,26 Z M91.042,26.098 C89.712,26.098 89.068,25.314 89.068,24.166 L89.068,19.658 L88.018,19.658 L88.018,18.678 L89.068,18.678 L89.068,17.012 L90.23,17.012 L90.23,18.678 L91.938,18.678 L91.938,19.658 L90.23,19.658 L90.23,24.054 C90.23,24.768 90.552,25.118 91.14,25.118 C91.504,25.118 91.784,25.062 92.036,24.964 L92.036,25.944 C91.798,26.028 91.518,26.098 91.042,26.098 Z M96.782,26.126 C94.71,26.126 93.24,24.67 93.24,22.416 L93.24,22.304 C93.24,20.092 94.654,18.552 96.67,18.552 C98.364,18.552 99.96,19.574 99.96,22.192 L99.96,22.57 L94.444,22.57 C94.5,24.236 95.298,25.16 96.796,25.16 C97.93,25.16 98.588,24.74 98.742,23.886 L99.904,23.886 C99.652,25.356 98.434,26.126 96.782,26.126 Z M94.486,21.632 L98.77,21.632 C98.658,20.12 97.874,19.518 96.67,19.518 C95.48,19.518 94.682,20.33 94.486,21.632 Z M101.738,26 L101.738,18.678 L102.9,18.678 L102.9,19.84 C103.236,19.154 104.048,18.552 105.252,18.552 C106.764,18.552 107.828,19.378 107.828,21.506 L107.828,26 L106.666,26 L106.666,21.422 C106.666,20.134 106.12,19.56 104.944,19.56 C103.866,19.56 102.9,20.246 102.9,21.562 L102.9,26 L101.738,26 Z M115.29,26 L113.036,18.678 L114.296,18.678 L116.004,24.572 L117.782,18.678 L118.79,18.678 L120.456,24.572 L122.178,18.678 L123.368,18.678 L121.086,26 L119.798,26 L118.272,20.512 L116.564,26 L115.29,26 Z M126.63,26.126 C125.272,26.126 124.194,25.468 124.194,23.97 C124.194,22.276 125.986,21.702 127.862,21.702 L128.912,21.702 L128.912,21.17 C128.912,20.008 128.464,19.518 127.344,19.518 C126.336,19.518 125.776,19.938 125.664,20.834 L124.502,20.834 C124.656,19.168 125.986,18.552 127.4,18.552 C128.8,18.552 130.074,19.126 130.074,21.17 L130.074,26 L128.912,26 L128.912,25.076 C128.366,25.762 127.708,26.126 126.63,26.126 Z M126.742,25.202 C127.974,25.202 128.912,24.572 128.912,23.438 L128.912,22.528 L127.904,22.528 C126.434,22.528 125.356,22.892 125.356,23.97 C125.356,24.726 125.72,25.202 126.742,25.202 Z M132.356,26 L132.356,18.678 L133.518,18.678 L133.518,19.84 C133.854,19.154 134.666,18.552 135.87,18.552 C137.382,18.552 138.446,19.378 138.446,21.506 L138.446,26 L137.284,26 L137.284,21.422 C137.284,20.134 136.738,19.56 135.562,19.56 C134.484,19.56 133.518,20.246 133.518,21.562 L133.518,26 L132.356,26 Z M143.486,26.126 C141.568,26.126 140.182,24.768 140.182,22.486 L140.182,22.374 C140.182,20.134 141.582,18.552 143.598,18.552 C144.816,18.552 145.572,19.14 145.992,19.854 L145.992,15.178 L147.154,15.178 L147.154,26 L145.992,26 L145.992,24.74 C145.572,25.454 144.55,26.126 143.486,26.126 Z M143.612,25.16 C144.97,25.16 146.034,24.264 146.034,22.388 L146.034,22.276 C146.034,20.4 145.138,19.518 143.71,19.518 C142.254,19.518 141.386,20.54 141.386,22.318 L141.386,22.43 C141.386,24.278 142.38,25.16 143.612,25.16 Z M152.502,26.126 C150.43,26.126 148.96,24.67 148.96,22.416 L148.96,22.304 C148.96,20.092 150.374,18.552 152.39,18.552 C154.084,18.552 155.68,19.574 155.68,22.192 L155.68,22.57 L150.164,22.57 C150.22,24.236 151.018,25.16 152.516,25.16 C153.65,25.16 154.308,24.74 154.462,23.886 L155.624,23.886 C155.372,25.356 154.154,26.126 152.502,26.126 Z M150.206,21.632 L154.49,21.632 C154.378,20.12 153.594,19.518 152.39,19.518 C151.2,19.518 150.402,20.33 150.206,21.632 Z M157.458,26 L157.458,18.678 L158.62,18.678 L158.62,19.994 C159.082,19.168 159.712,18.594 161.028,18.552 L161.028,19.644 C159.558,19.714 158.62,20.176 158.62,21.982 L158.62,26 L157.458,26 Z M164.92,26.126 C163.17,26.126 162.12,25.244 162.05,23.746 L163.184,23.746 C163.268,24.614 163.73,25.16 164.906,25.16 C166.012,25.16 166.502,24.782 166.502,23.998 C166.502,23.228 165.928,22.976 164.794,22.766 C162.89,22.416 162.246,21.884 162.246,20.61 C162.246,19.252 163.576,18.552 164.724,18.552 C166.04,18.552 167.174,19.084 167.37,20.666 L166.25,20.666 C166.082,19.868 165.634,19.518 164.71,19.518 C163.87,19.518 163.324,19.938 163.324,20.568 C163.324,21.226 163.688,21.492 165.032,21.73 C166.544,22.01 167.608,22.346 167.608,23.9 C167.608,25.23 166.698,26.126 164.92,26.126 Z M170.17,26.07 C169.68,26.07 169.274,25.678 169.274,25.174 C169.274,24.67 169.68,24.278 170.17,24.278 C170.66,24.278 171.066,24.67 171.066,25.174 C171.066,25.678 170.66,26.07 170.17,26.07 Z" id="Mymindoftenwanders." fill="#000000" fill-rule="nonzero"></path>
                            </g>
                            <g id="Body-Scan" stroke="none" stroke-width="1" fill-rule="evenodd" transform="translate(141.000000, 52.000000)">
                                <rect id="Rectangle" fill="#D7F0EA" x="0" y="0" width="160" height="42" rx="4.2"></rect>
                                <polyline id="line4" stroke="#D7F0EA" stroke-width="0.7" transform="translate(42.500000, 44.200000) scale(-1, -1) rotate(-90.000000) translate(-42.500000, -44.200000) " points="25 33 25 55.4 60 55.4"></polyline>
                                <path d="M15.33,26 L15.33,15.99 L16.548,15.99 L16.548,26 L15.33,26 Z M22.764,28.548 L22.764,18.678 L23.926,18.678 L23.926,19.91 C24.346,19.196 25.34,18.552 26.404,18.552 C28.322,18.552 29.736,19.952 29.736,22.234 L29.736,22.346 C29.736,24.586 28.42,26.126 26.404,26.126 C25.2,26.126 24.346,25.524 23.926,24.796 L23.926,28.548 L22.764,28.548 Z M26.292,25.16 C27.748,25.16 28.532,24.18 28.532,22.402 L28.532,22.29 C28.532,20.442 27.51,19.518 26.278,19.518 C24.92,19.518 23.884,20.414 23.884,22.29 L23.884,22.402 C23.884,24.278 24.864,25.16 26.292,25.16 Z M31.542,26 L31.542,18.678 L32.704,18.678 L32.704,19.994 C33.166,19.168 33.796,18.594 35.112,18.552 L35.112,19.644 C33.642,19.714 32.704,20.176 32.704,21.982 L32.704,26 L31.542,26 Z M39.592,26.126 C37.52,26.126 36.05,24.67 36.05,22.416 L36.05,22.304 C36.05,20.092 37.464,18.552 39.48,18.552 C41.174,18.552 42.77,19.574 42.77,22.192 L42.77,22.57 L37.254,22.57 C37.31,24.236 38.108,25.16 39.606,25.16 C40.74,25.16 41.398,24.74 41.552,23.886 L42.714,23.886 C42.462,25.356 41.244,26.126 39.592,26.126 Z M37.296,21.632 L41.58,21.632 C41.468,20.12 40.684,19.518 39.48,19.518 C38.29,19.518 37.492,20.33 37.296,21.632 Z M44.8,26 L44.8,19.658 L43.75,19.658 L43.75,18.678 L44.8,18.678 L44.8,17.488 C44.8,16.004 45.528,15.136 46.984,15.136 C47.362,15.136 47.558,15.178 47.852,15.276 L47.852,16.256 C47.642,16.172 47.348,16.102 47.026,16.102 C46.27,16.102 45.962,16.62 45.962,17.362 L45.962,18.678 L47.754,18.678 L47.754,19.658 L45.962,19.658 L45.962,26 L44.8,26 Z M52.038,26.126 C49.966,26.126 48.496,24.67 48.496,22.416 L48.496,22.304 C48.496,20.092 49.91,18.552 51.926,18.552 C53.62,18.552 55.216,19.574 55.216,22.192 L55.216,22.57 L49.7,22.57 C49.756,24.236 50.554,25.16 52.052,25.16 C53.186,25.16 53.844,24.74 53.998,23.886 L55.16,23.886 C54.908,25.356 53.69,26.126 52.038,26.126 Z M49.742,21.632 L54.026,21.632 C53.914,20.12 53.13,19.518 51.926,19.518 C50.736,19.518 49.938,20.33 49.742,21.632 Z M56.994,26 L56.994,18.678 L58.156,18.678 L58.156,19.994 C58.618,19.168 59.248,18.594 60.564,18.552 L60.564,19.644 C59.094,19.714 58.156,20.176 58.156,21.982 L58.156,26 L56.994,26 Z M66.052,26 L66.052,15.99 L69.062,15.99 C70.924,15.99 72.282,16.606 72.282,18.58 L72.282,18.636 C72.282,19.546 71.918,20.358 70.77,20.75 C72.226,21.1 72.772,21.842 72.772,23.144 L72.772,23.2 C72.772,25.09 71.484,26 69.482,26 L66.052,26 Z M67.242,25.048 L69.454,25.048 C70.91,25.048 71.582,24.404 71.582,23.186 L71.582,23.13 C71.582,21.898 70.896,21.31 69.286,21.31 L67.242,21.31 L67.242,25.048 Z M67.242,20.358 L69.062,20.358 C70.532,20.358 71.092,19.826 71.092,18.594 L71.092,18.538 C71.092,17.404 70.434,16.942 69.034,16.942 L67.242,16.942 L67.242,20.358 Z M77.728,25.16 C79.198,25.16 80.122,24.054 80.122,22.402 L80.122,22.304 C80.122,20.61 79.184,19.518 77.728,19.518 C76.258,19.518 75.334,20.61 75.334,22.29 L75.334,22.402 C75.334,24.068 76.244,25.16 77.728,25.16 Z M77.714,26.126 C75.628,26.126 74.13,24.544 74.13,22.402 L74.13,22.29 C74.13,20.092 75.656,18.552 77.728,18.552 C79.8,18.552 81.326,20.078 81.326,22.276 L81.326,22.388 C81.326,24.6 79.8,26.126 77.714,26.126 Z M85.89,26.126 C83.972,26.126 82.586,24.768 82.586,22.486 L82.586,22.374 C82.586,20.134 83.986,18.552 86.002,18.552 C87.22,18.552 87.976,19.14 88.396,19.854 L88.396,15.178 L89.558,15.178 L89.558,26 L88.396,26 L88.396,24.74 C87.976,25.454 86.954,26.126 85.89,26.126 Z M86.016,25.16 C87.374,25.16 88.438,24.264 88.438,22.388 L88.438,22.276 C88.438,20.4 87.542,19.518 86.114,19.518 C84.658,19.518 83.79,20.54 83.79,22.318 L83.79,22.43 C83.79,24.278 84.784,25.16 86.016,25.16 Z M92.568,28.548 L93.954,25.244 L91.084,18.678 L92.33,18.678 L94.57,23.928 L96.6,18.678 L97.79,18.678 L93.744,28.548 L92.568,28.548 Z M106.344,26.126 C103.67,26.126 102.704,24.656 102.522,22.948 L103.698,22.948 C103.852,24.138 104.328,25.146 106.344,25.146 C107.632,25.146 108.626,24.39 108.626,23.256 C108.626,22.122 108.108,21.646 106.204,21.338 C104.104,21.016 102.858,20.358 102.858,18.58 C102.858,17.04 104.188,15.864 106.078,15.864 C108.08,15.864 109.326,16.844 109.522,18.622 L108.43,18.622 C108.192,17.362 107.464,16.844 106.078,16.844 C104.706,16.844 103.992,17.53 103.992,18.468 C103.992,19.448 104.356,19.952 106.4,20.26 C108.626,20.61 109.802,21.282 109.802,23.172 C109.802,24.852 108.332,26.126 106.344,26.126 Z M114.842,26.126 C112.798,26.126 111.258,24.684 111.258,22.416 L111.258,22.304 C111.258,20.064 112.854,18.552 114.814,18.552 C116.34,18.552 117.768,19.252 117.992,21.114 L116.844,21.114 C116.662,19.952 115.822,19.518 114.814,19.518 C113.484,19.518 112.462,20.582 112.462,22.304 L112.462,22.416 C112.462,24.208 113.442,25.16 114.856,25.16 C115.892,25.16 116.83,24.558 116.956,23.368 L118.034,23.368 C117.88,24.95 116.606,26.126 114.842,26.126 Z M121.618,26.126 C120.26,26.126 119.182,25.468 119.182,23.97 C119.182,22.276 120.974,21.702 122.85,21.702 L123.9,21.702 L123.9,21.17 C123.9,20.008 123.452,19.518 122.332,19.518 C121.324,19.518 120.764,19.938 120.652,20.834 L119.49,20.834 C119.644,19.168 120.974,18.552 122.388,18.552 C123.788,18.552 125.062,19.126 125.062,21.17 L125.062,26 L123.9,26 L123.9,25.076 C123.354,25.762 122.696,26.126 121.618,26.126 Z M121.73,25.202 C122.962,25.202 123.9,24.572 123.9,23.438 L123.9,22.528 L122.892,22.528 C121.422,22.528 120.344,22.892 120.344,23.97 C120.344,24.726 120.708,25.202 121.73,25.202 Z M127.344,26 L127.344,18.678 L128.506,18.678 L128.506,19.84 C128.842,19.154 129.654,18.552 130.858,18.552 C132.37,18.552 133.434,19.378 133.434,21.506 L133.434,26 L132.272,26 L132.272,21.422 C132.272,20.134 131.726,19.56 130.55,19.56 C129.472,19.56 128.506,20.246 128.506,21.562 L128.506,26 L127.344,26 Z M137.984,26.126 C136.234,26.126 135.184,25.244 135.114,23.746 L136.248,23.746 C136.332,24.614 136.794,25.16 137.97,25.16 C139.076,25.16 139.566,24.782 139.566,23.998 C139.566,23.228 138.992,22.976 137.858,22.766 C135.954,22.416 135.31,21.884 135.31,20.61 C135.31,19.252 136.64,18.552 137.788,18.552 C139.104,18.552 140.238,19.084 140.434,20.666 L139.314,20.666 C139.146,19.868 138.698,19.518 137.774,19.518 C136.934,19.518 136.388,19.938 136.388,20.568 C136.388,21.226 136.752,21.492 138.096,21.73 C139.608,22.01 140.672,22.346 140.672,23.9 C140.672,25.23 139.762,26.126 137.984,26.126 Z M143.234,26.07 C142.744,26.07 142.338,25.678 142.338,25.174 C142.338,24.67 142.744,24.278 143.234,24.278 C143.724,24.278 144.13,24.67 144.13,25.174 C144.13,25.678 143.724,26.07 143.234,26.07 Z" id="IpreferBodyScans." fill="#000000" fill-rule="nonzero"></path>
                            </g>
                            <g id="audio" stroke="none" stroke-width="1" fill-rule="evenodd" transform="translate(61.000000, 109.000000)">
                                <rect id="Rectangle" stroke="#30C5CA" stroke-width="1.24444444" fill="#FFFFFF" x="0" y="0" width="175.583333" height="39.2" rx="19.4133333"></rect>
                                <g id="purple" transform="translate(16.333333, 8.166667)" fill="#D7D7F5" fill-rule="nonzero">
                                    <path d="M30.625,17.15 C31.2991212,17.15 31.85,16.5625756 31.85,15.8404552 L31.85,7.84287812 C31.85,7.11795154 31.2991212,6.53333333 30.625,6.53333333 C29.9508788,6.53333333 29.4,7.11795154 29.4,7.84287812 L29.4,15.8385844 C29.4,16.563511 29.9508788,17.15 30.625,17.15 Z" id="Path"></path>
                                    <path d="M34.3,5.82897965 L34.3,18.6710204 C34.3,19.1825026 34.8508788,19.6 35.525,19.6 C36.1991212,19.6 36.75,19.1844207 36.75,18.6710204 L36.75,5.82897965 C36.75,5.31749739 36.1991212,4.9 35.525,4.9 C34.8508788,4.9 34.3,5.31557933 34.3,5.82897965 Z" id="Path"></path>
                                    <path d="M0,5.06345256 L0,18.6198808 C0,19.1615782 0.550878788,19.6 1.225,19.6 C1.89912121,19.6 2.45,19.1609119 2.45,18.6198808 L2.45,5.06345256 C2.45,4.52175512 1.89912121,4.08333333 1.225,4.08333333 C0.550878788,4.08333333 0,4.52175512 0,5.06345256 Z" id="Path"></path>
                                    <path d="M19.6,5.06345256 L19.6,18.6198808 C19.6,19.1615782 20.1508788,19.6 20.825,19.6 C21.4991212,19.6 22.05,19.1609119 22.05,18.6198808 L22.05,5.06345256 C22.05,4.52175512 21.4991212,4.08333333 20.825,4.08333333 C20.1508788,4.08333333 19.6,4.52175512 19.6,5.06345256 Z" id="Path"></path>
                                    <path d="M4.9,1.02486145 L4.9,22.6584719 C4.9,23.2241705 5.4298125,23.6833333 6.125,23.6833333 C6.8201875,23.6833333 7.35,23.2247935 7.35,22.6584719 L7.35,1.02486145 C7.35,0.459162852 6.8201875,0 6.125,0 C5.4298125,0 4.9,0.459162852 4.9,1.02486145 Z" id="Path"></path>
                                    <path d="M9.8,4.35327676 L9.8,19.3300566 C9.8,19.9301748 10.3484512,20.4166667 11.025,20.4166667 C11.7015488,20.4166667 12.25,19.9301748 12.25,19.3300566 L12.25,4.35327676 C12.25,3.75315858 11.7015488,3.26666667 11.025,3.26666667 C10.3484512,3.26666667 9.8,3.75315858 9.8,4.35327676 Z" id="Path"></path>
                                    <path d="M15.925,8.16666667 C15.2508788,8.16666667 14.7,8.63684929 14.7,9.21728653 L14.7,15.2827135 C14.7,15.8631507 15.2508788,16.3333333 15.925,16.3333333 C16.5991212,16.3333333 17.15,15.8631507 17.15,15.2827135 L17.15,9.21728653 C17.15,8.63756061 16.5991212,8.16666667 15.925,8.16666667 Z" id="Path"></path>
                                    <path d="M25.725,8.16666667 C25.0508788,8.16666667 24.5,8.63684929 24.5,9.21728653 L24.5,15.2827135 C24.5,15.8631507 25.0508788,16.3333333 25.725,16.3333333 C26.3991212,16.3333333 26.95,15.8631507 26.95,15.2827135 L26.95,9.21728653 C26.95,8.63756061 26.3991212,8.16666667 25.725,8.16666667 Z" id="Path"></path>
                                </g>
                                <g id="yellow" transform="translate(55.533333, 9.800000)" fill="#F4E3D0" fill-rule="nonzero">
                                    <path d="M1.225,14.7 C1.89912121,14.7 2.45,14.2481351 2.45,13.6926579 L2.45,7.54067548 C2.45,6.98303965 1.89912121,6.53333333 1.225,6.53333333 C0.550878788,6.53333333 0,6.98303965 0,7.54067548 L0,13.6912188 C0,14.2488546 0.550878788,14.7 1.225,14.7 Z" id="Path"></path>
                                    <path d="M15.925,14.7 C16.5991212,14.7 17.15,14.2481351 17.15,13.6926579 L17.15,7.54067548 C17.15,6.98303965 16.5991212,6.53333333 15.925,6.53333333 C15.2508788,6.53333333 14.7,6.98303965 14.7,7.54067548 L14.7,13.6912188 C14.7,14.2488546 15.2508788,14.7 15.925,14.7 Z" id="Path"></path>
                                    <path d="M6.125,15.5166667 C6.79912121,15.5166667 7.35,14.9292423 7.35,14.2071219 L7.35,6.20954479 C7.35,5.48461821 6.79912121,4.9 6.125,4.9 C5.45087879,4.9 4.9,5.48461821 4.9,6.20954479 L4.9,14.2052511 C4.9,14.9301777 5.45087879,15.5166667 6.125,15.5166667 Z" id="Path"></path>
                                    <path d="M9.8,4.19564631 L9.8,17.037687 C9.8,17.5491693 10.3508788,17.9666667 11.025,17.9666667 C11.6991212,17.9666667 12.25,17.5510873 12.25,17.037687 L12.25,4.19564631 C12.25,3.68416406 11.6991212,3.26666667 11.025,3.26666667 C10.3508788,3.26666667 9.8,3.682246 9.8,4.19564631 Z" id="Path"></path>
                                    <path d="M34.3,0.918841304 L34.3,20.314492 C34.3,20.8216701 34.8298125,21.2333333 35.525,21.2333333 C36.2201875,21.2333333 36.75,20.8222287 36.75,20.314492 L36.75,0.918841304 C36.75,0.411663247 36.2201875,0 35.525,0 C34.8298125,0 34.3,0.411663247 34.3,0.918841304 Z" id="Path"></path>
                                    <path d="M30.625,17.9666667 C31.2991212,17.9666667 31.85,17.1533098 31.85,16.1534508 L31.85,5.07988253 C31.85,4.07613803 31.2991212,3.26666667 30.625,3.26666667 C29.9508788,3.26666667 29.4,4.07613803 29.4,5.07988253 L29.4,16.1508605 C29.4,17.154605 29.9508788,17.9666667 30.625,17.9666667 Z" id="Path"></path>
                                    <path d="M19.6,1.28963057 L19.6,19.1270361 C19.6,19.8397959 20.1508788,20.4166667 20.825,20.4166667 C21.4991212,20.4166667 22.05,19.8389192 22.05,19.1270361 L22.05,1.28963057 C22.05,0.576870778 21.4991212,0 20.825,0 C20.1508788,0 19.6,0.576870778 19.6,1.28963057 Z" id="Path"></path>
                                    <path d="M25.725,5.71666667 C25.0508788,5.71666667 24.5,6.23386755 24.5,6.87234852 L24.5,13.5443181 C24.5,14.1827991 25.0508788,14.7 25.725,14.7 C26.3991212,14.7 26.95,14.1827991 26.95,13.5443181 L26.95,6.87234852 C26.95,6.23465 26.3991212,5.71666667 25.725,5.71666667 Z" id="Path"></path>
                                </g>
                                <g id="red" transform="translate(129.033333, 11.433333)" fill="#FDC8BF" fill-rule="nonzero">
                                    <path d="M20.825,13.0666667 C21.4991212,13.0666667 22.05,12.6148018 22.05,12.0593245 L22.05,5.90734214 C22.05,5.34970631 21.4991212,4.9 20.825,4.9 C20.1508788,4.9 19.6,5.34970631 19.6,5.90734214 L19.6,12.0578855 C19.6,12.6155213 20.1508788,13.0666667 20.825,13.0666667 Z" id="Path"></path>
                                    <path d="M25.725,13.8833333 C26.3991212,13.8833333 26.95,13.295909 26.95,12.5737885 L26.95,4.57621145 C26.95,3.85128488 26.3991212,3.26666667 25.725,3.26666667 C25.0508788,3.26666667 24.5,3.85128488 24.5,4.57621145 L24.5,12.5719178 C24.5,13.2968443 25.0508788,13.8833333 25.725,13.8833333 Z" id="Path"></path>
                                    <path d="M29.4,2.56231298 L29.4,15.4043537 C29.4,15.9158359 29.9508788,16.3333333 30.625,16.3333333 C31.2991212,16.3333333 31.85,15.917754 31.85,15.4043537 L31.85,2.56231298 C31.85,2.05083072 31.2991212,1.63333333 30.625,1.63333333 C29.9508788,1.63333333 29.4,2.04891267 29.4,2.56231298 Z" id="Path"></path>
                                    <path d="M11.025,13.0666667 C11.6991212,13.0666667 12.25,12.6148018 12.25,12.0593245 L12.25,5.90734214 C12.25,5.34970631 11.6991212,4.9 11.025,4.9 C10.3508788,4.9 9.8,5.34970631 9.8,5.90734214 L9.8,12.0578855 C9.8,12.6155213 10.3508788,13.0666667 11.025,13.0666667 Z" id="Path"></path>
                                    <path d="M1.225,13.8833333 C1.89912121,13.8833333 2.45,13.295909 2.45,12.5737885 L2.45,4.57621145 C2.45,3.85128488 1.89912121,3.26666667 1.225,3.26666667 C0.550878788,3.26666667 0,3.85128488 0,4.57621145 L0,12.5719178 C0,13.2968443 0.550878788,13.8833333 1.225,13.8833333 Z" id="Path"></path>
                                    <path d="M4.9,2.56231298 L4.9,15.4043537 C4.9,15.9158359 5.45087879,16.3333333 6.125,16.3333333 C6.79912121,16.3333333 7.35,15.917754 7.35,15.4043537 L7.35,2.56231298 C7.35,2.05083072 6.79912121,1.63333333 6.125,1.63333333 C5.45087879,1.63333333 4.9,2.04891267 4.9,2.56231298 Z" id="Path"></path>
                                    <path d="M14.7,1.08661009 L14.7,16.0633899 C14.7,16.6635081 15.2484512,17.15 15.925,17.15 C16.6015488,17.15 17.15,16.6635081 17.15,16.0633899 L17.15,1.08661009 C17.15,0.486491909 16.6015488,0 15.925,0 C15.2484512,0 14.7,0.486491909 14.7,1.08661009 Z" id="Path"></path>
                                </g>
                                <g id="green" transform="translate(94.733333, 11.433333)" fill="#B8E5DA" fill-rule="nonzero">
                                    <path d="M20.825,13.8833333 C21.4991212,13.8833333 22.05,13.295909 22.05,12.5737885 L22.05,4.57621145 C22.05,3.85128488 21.4991212,3.26666667 20.825,3.26666667 C20.1508788,3.26666667 19.6,3.85128488 19.6,4.57621145 L19.6,12.5719178 C19.6,13.2968443 20.1508788,13.8833333 20.825,13.8833333 Z" id="Path"></path>
                                    <path d="M30.625,13.0666667 C31.2991212,13.0666667 31.85,12.6148018 31.85,12.0593245 L31.85,5.90734214 C31.85,5.34970631 31.2991212,4.9 30.625,4.9 C29.9508788,4.9 29.4,5.34970631 29.4,5.90734214 L29.4,12.0578855 C29.4,12.6155213 29.9508788,13.0666667 30.625,13.0666667 Z" id="Path"></path>
                                    <path d="M24.5,2.56231298 L24.5,15.4043537 C24.5,15.9158359 25.0508788,16.3333333 25.725,16.3333333 C26.3991212,16.3333333 26.95,15.917754 26.95,15.4043537 L26.95,2.56231298 C26.95,2.05083072 26.3991212,1.63333333 25.725,1.63333333 C25.0508788,1.63333333 24.5,2.04891267 24.5,2.56231298 Z" id="Path"></path>
                                    <path d="M9.8,1.7967859 L9.8,15.3532141 C9.8,15.8949115 10.3508788,16.3333333 11.025,16.3333333 C11.6991212,16.3333333 12.25,15.8942452 12.25,15.3532141 L12.25,1.7967859 C12.25,1.25508846 11.6991212,0.816666667 11.025,0.816666667 C10.3508788,0.816666667 9.8,1.25508846 9.8,1.7967859 Z" id="Path"></path>
                                    <path d="M0,1.08661009 L0,16.0633899 C0,16.6635081 0.548451181,17.15 1.225,17.15 C1.90154882,17.15 2.45,16.6635081 2.45,16.0633899 L2.45,1.08661009 C2.45,0.486491909 1.90154882,0 1.225,0 C0.548451181,0 0,0.486491909 0,1.08661009 Z" id="Path"></path>
                                    <path d="M6.125,4.9 C5.45087879,4.9 4.9,5.37018262 4.9,5.95061986 L4.9,12.0160468 C4.9,12.596484 5.45087879,13.0666667 6.125,13.0666667 C6.79912121,13.0666667 7.35,12.596484 7.35,12.0160468 L7.35,5.95061986 C7.35,5.37089394 6.79912121,4.9 6.125,4.9 Z" id="Path"></path>
                                    <path d="M15.925,4.9 C15.2508788,4.9 14.7,5.37018262 14.7,5.95061986 L14.7,12.0160468 C14.7,12.596484 15.2508788,13.0666667 15.925,13.0666667 C16.5991212,13.0666667 17.15,12.596484 17.15,12.0160468 L17.15,5.95061986 C17.15,5.37089394 16.5991212,4.9 15.925,4.9 Z" id="Path"></path>
                                </g>
                            </g>
                        </g>
                    </g>
                </g>
            </g>
        </g>
    </g>
</svg>