<?xml version="1.0" encoding="UTF-8"?>
<svg width="563px" height="380px" viewBox="0 0 563 380" version="1.1" xmlns="http://www.w3.org/2000/svg" xmlns:xlink="http://www.w3.org/1999/xlink">
    <!-- Generator: Sketch 57.1 (83088) - https://sketch.com -->
    <title>Image-03</title>
    <desc>Created with Sketch.</desc>
    <defs>
        <rect id="path-1" x="0" y="0" width="700" height="480"></rect>
        <circle id="path-3" cx="190.5" cy="190" r="190"></circle>
    </defs>
    <g id="Landing" stroke="none" stroke-width="1" fill="none" fill-rule="evenodd">
        <g id="02-Balance_center" transform="translate(-713.000000, -2160.000000)">
            <g id="02---Slides" transform="translate(0.000000, 819.000000)">
                <g id="Third-slide" transform="translate(152.000000, 1291.000000)">
                    <g id="Image-03" transform="translate(488.000000, 0.000000)">
                        <mask id="mask-2" fill="white">
                            <use xlink:href="#path-1"></use>
                        </mask>
                        <g id="Image-Bg"></g>
                        <g id="Image-assets" mask="url(#mask-2)">
                            <g transform="translate(73.000000, 50.000000)">
                                <g id="Anxiety" stroke="none" fill-rule="evenodd" transform="translate(5.000000, 168.000000)">
                                    <rect id="Rectangle" fill="#E7E7F4" x="0" y="0" width="190" height="49" rx="6"></rect>
                                    <path d="M23.52,30 L23.52,18.56 L24.912,18.56 L24.912,30 L23.52,30 Z M35.504,29.04 C37.184,29.04 38.24,27.776 38.24,25.888 L38.24,25.776 C38.24,23.84 37.168,22.592 35.504,22.592 C33.824,22.592 32.768,23.84 32.768,25.76 L32.768,25.888 C32.768,27.792 33.808,29.04 35.504,29.04 Z M35.488,30.144 C33.104,30.144 31.392,28.336 31.392,25.888 L31.392,25.76 C31.392,23.248 33.136,21.488 35.504,21.488 C37.872,21.488 39.616,23.232 39.616,25.744 L39.616,25.872 C39.616,28.4 37.872,30.144 35.488,30.144 Z M41.968,30 L41.968,22.752 L40.768,22.752 L40.768,21.632 L41.968,21.632 L41.968,20.272 C41.968,18.576 42.8,17.584 44.464,17.584 C44.896,17.584 45.12,17.632 45.456,17.744 L45.456,18.864 C45.216,18.768 44.88,18.688 44.512,18.688 C43.648,18.688 43.296,19.28 43.296,20.128 L43.296,21.632 L45.344,21.632 L45.344,22.752 L43.296,22.752 L43.296,30 L41.968,30 Z M49.84,30.112 C48.32,30.112 47.584,29.216 47.584,27.904 L47.584,22.752 L46.384,22.752 L46.384,21.632 L47.584,21.632 L47.584,19.728 L48.912,19.728 L48.912,21.632 L50.864,21.632 L50.864,22.752 L48.912,22.752 L48.912,27.776 C48.912,28.592 49.28,28.992 49.952,28.992 C50.368,28.992 50.688,28.928 50.976,28.816 L50.976,29.936 C50.704,30.032 50.384,30.112 49.84,30.112 Z M56.4,30.144 C54.032,30.144 52.352,28.48 52.352,25.904 L52.352,25.776 C52.352,23.248 53.968,21.488 56.272,21.488 C58.208,21.488 60.032,22.656 60.032,25.648 L60.032,26.08 L53.728,26.08 C53.792,27.984 54.704,29.04 56.416,29.04 C57.712,29.04 58.464,28.56 58.64,27.584 L59.968,27.584 C59.68,29.264 58.288,30.144 56.4,30.144 Z M53.776,25.008 L58.672,25.008 C58.544,23.28 57.648,22.592 56.272,22.592 C54.912,22.592 54,23.52 53.776,25.008 Z M62.064,30 L62.064,21.632 L63.392,21.632 L63.392,22.96 C63.776,22.176 64.704,21.488 66.08,21.488 C67.808,21.488 69.024,22.432 69.024,24.864 L69.024,30 L67.696,30 L67.696,24.768 C67.696,23.296 67.072,22.64 65.728,22.64 C64.496,22.64 63.392,23.424 63.392,24.928 L63.392,30 L62.064,30 Z M76.16,30 L76.16,22.752 L74.96,22.752 L74.96,21.632 L76.16,21.632 L76.16,20.272 C76.16,18.576 76.992,17.584 78.656,17.584 C79.088,17.584 79.312,17.632 79.648,17.744 L79.648,18.864 C79.408,18.768 79.072,18.688 78.704,18.688 C77.84,18.688 77.488,19.28 77.488,20.128 L77.488,21.632 L79.536,21.632 L79.536,22.752 L77.488,22.752 L77.488,30 L76.16,30 Z M84.432,30.144 C82.064,30.144 80.384,28.48 80.384,25.904 L80.384,25.776 C80.384,23.248 82,21.488 84.304,21.488 C86.24,21.488 88.064,22.656 88.064,25.648 L88.064,26.08 L81.76,26.08 C81.824,27.984 82.736,29.04 84.448,29.04 C85.744,29.04 86.496,28.56 86.672,27.584 L88,27.584 C87.712,29.264 86.32,30.144 84.432,30.144 Z M81.808,25.008 L86.704,25.008 C86.576,23.28 85.68,22.592 84.304,22.592 C82.944,22.592 82.032,23.52 81.808,25.008 Z M93.52,30.144 C91.152,30.144 89.472,28.48 89.472,25.904 L89.472,25.776 C89.472,23.248 91.088,21.488 93.392,21.488 C95.328,21.488 97.152,22.656 97.152,25.648 L97.152,26.08 L90.848,26.08 C90.912,27.984 91.824,29.04 93.536,29.04 C94.832,29.04 95.584,28.56 95.76,27.584 L97.088,27.584 C96.8,29.264 95.408,30.144 93.52,30.144 Z M90.896,25.008 L95.792,25.008 C95.664,23.28 94.768,22.592 93.392,22.592 C92.032,22.592 91.12,23.52 90.896,25.008 Z M99.216,30 L99.216,17.632 L100.56,17.632 L100.56,30 L99.216,30 Z M109.616,30.144 C108.064,30.144 106.832,29.392 106.832,27.68 C106.832,25.744 108.88,25.088 111.024,25.088 L112.224,25.088 L112.224,24.48 C112.224,23.152 111.712,22.592 110.432,22.592 C109.28,22.592 108.64,23.072 108.512,24.096 L107.184,24.096 C107.36,22.192 108.88,21.488 110.496,21.488 C112.096,21.488 113.552,22.144 113.552,24.48 L113.552,30 L112.224,30 L112.224,28.944 C111.6,29.728 110.848,30.144 109.616,30.144 Z M109.744,29.088 C111.152,29.088 112.224,28.368 112.224,27.072 L112.224,26.032 L111.072,26.032 C109.392,26.032 108.16,26.448 108.16,27.68 C108.16,28.544 108.576,29.088 109.744,29.088 Z M116.16,30 L116.16,21.632 L117.488,21.632 L117.488,22.96 C117.872,22.176 118.8,21.488 120.176,21.488 C121.904,21.488 123.12,22.432 123.12,24.864 L123.12,30 L121.792,30 L121.792,24.768 C121.792,23.296 121.168,22.64 119.824,22.64 C118.592,22.64 117.488,23.424 117.488,24.928 L117.488,30 L116.16,30 Z M124.832,30 L127.824,25.696 L125.024,21.632 L126.576,21.632 L128.624,24.672 L130.656,21.632 L132.096,21.632 L129.328,25.6 L132.384,30 L130.816,30 L128.56,26.624 L126.256,30 L124.832,30 Z M134.208,30 L134.208,21.632 L135.536,21.632 L135.536,30 L134.208,30 Z M134.848,19.888 C134.368,19.888 133.968,19.488 133.968,19.008 C133.968,18.528 134.368,18.128 134.848,18.128 C135.328,18.128 135.728,18.528 135.728,19.008 C135.728,19.488 135.328,19.888 134.848,19.888 Z M141.744,29.04 C143.424,29.04 144.48,27.776 144.48,25.888 L144.48,25.776 C144.48,23.84 143.408,22.592 141.744,22.592 C140.064,22.592 139.008,23.84 139.008,25.76 L139.008,25.888 C139.008,27.792 140.048,29.04 141.744,29.04 Z M141.728,30.144 C139.344,30.144 137.632,28.336 137.632,25.888 L137.632,25.76 C137.632,23.248 139.376,21.488 141.744,21.488 C144.112,21.488 145.856,23.232 145.856,25.744 L145.856,25.872 C145.856,28.4 144.112,30.144 141.728,30.144 Z M150.752,30.144 C149.088,30.144 147.84,29.232 147.84,26.928 L147.84,21.632 L149.168,21.632 L149.168,26.864 C149.168,28.336 149.792,28.992 151.104,28.992 C152.288,28.992 153.408,28.208 153.408,26.704 L153.408,21.632 L154.736,21.632 L154.736,30 L153.408,30 L153.408,28.672 C153.024,29.456 152.096,30.144 150.752,30.144 Z M160.016,30.144 C158.016,30.144 156.816,29.136 156.736,27.424 L158.032,27.424 C158.128,28.416 158.656,29.04 160,29.04 C161.264,29.04 161.824,28.608 161.824,27.712 C161.824,26.832 161.168,26.544 159.872,26.304 C157.696,25.904 156.96,25.296 156.96,23.84 C156.96,22.288 158.48,21.488 159.792,21.488 C161.296,21.488 162.592,22.096 162.816,23.904 L161.536,23.904 C161.344,22.992 160.832,22.592 159.776,22.592 C158.816,22.592 158.192,23.072 158.192,23.792 C158.192,24.544 158.608,24.848 160.144,25.12 C161.872,25.44 163.088,25.824 163.088,27.6 C163.088,29.12 162.048,30.144 160.016,30.144 Z M166.016,30.08 C165.456,30.08 164.992,29.632 164.992,29.056 C164.992,28.48 165.456,28.032 166.016,28.032 C166.576,28.032 167.04,28.48 167.04,29.056 C167.04,29.632 166.576,30.08 166.016,30.08 Z" id="Ioftenfeelanxious." fill="#000000" fill-rule="nonzero"></path>
                                </g>
                                <g id="Focus" stroke="none" fill-rule="evenodd" transform="translate(347.000000, 168.000000)">
                                    <rect id="Rectangle" fill="#FFDED9" x="0" y="0" width="216" height="49" rx="6"></rect>
                                    <path d="M27.52,30 L27.52,18.56 L28.912,18.56 L28.912,30 L27.52,30 Z M37.696,30 L35.12,21.632 L36.56,21.632 L38.512,28.368 L40.544,21.632 L41.696,21.632 L43.6,28.368 L45.568,21.632 L46.928,21.632 L44.32,30 L42.848,30 L41.104,23.728 L39.152,30 L37.696,30 Z M50.656,30.144 C49.104,30.144 47.872,29.392 47.872,27.68 C47.872,25.744 49.92,25.088 52.064,25.088 L53.264,25.088 L53.264,24.48 C53.264,23.152 52.752,22.592 51.472,22.592 C50.32,22.592 49.68,23.072 49.552,24.096 L48.224,24.096 C48.4,22.192 49.92,21.488 51.536,21.488 C53.136,21.488 54.592,22.144 54.592,24.48 L54.592,30 L53.264,30 L53.264,28.944 C52.64,29.728 51.888,30.144 50.656,30.144 Z M50.784,29.088 C52.192,29.088 53.264,28.368 53.264,27.072 L53.264,26.032 L52.112,26.032 C50.432,26.032 49.2,26.448 49.2,27.68 C49.2,28.544 49.616,29.088 50.784,29.088 Z M57.2,30 L57.2,21.632 L58.528,21.632 L58.528,22.96 C58.912,22.176 59.84,21.488 61.216,21.488 C62.944,21.488 64.16,22.432 64.16,24.864 L64.16,30 L62.832,30 L62.832,24.768 C62.832,23.296 62.208,22.64 60.864,22.64 C59.632,22.64 58.528,23.424 58.528,24.928 L58.528,30 L57.2,30 Z M69.312,30.112 C67.792,30.112 67.056,29.216 67.056,27.904 L67.056,22.752 L65.856,22.752 L65.856,21.632 L67.056,21.632 L67.056,19.728 L68.384,19.728 L68.384,21.632 L70.336,21.632 L70.336,22.752 L68.384,22.752 L68.384,27.776 C68.384,28.592 68.752,28.992 69.424,28.992 C69.84,28.992 70.16,28.928 70.448,28.816 L70.448,29.936 C70.176,30.032 69.856,30.112 69.312,30.112 Z M79.232,30.112 C77.712,30.112 76.976,29.216 76.976,27.904 L76.976,22.752 L75.776,22.752 L75.776,21.632 L76.976,21.632 L76.976,19.728 L78.304,19.728 L78.304,21.632 L80.256,21.632 L80.256,22.752 L78.304,22.752 L78.304,27.776 C78.304,28.592 78.672,28.992 79.344,28.992 C79.76,28.992 80.08,28.928 80.368,28.816 L80.368,29.936 C80.096,30.032 79.776,30.112 79.232,30.112 Z M85.856,29.04 C87.536,29.04 88.592,27.776 88.592,25.888 L88.592,25.776 C88.592,23.84 87.52,22.592 85.856,22.592 C84.176,22.592 83.12,23.84 83.12,25.76 L83.12,25.888 C83.12,27.792 84.16,29.04 85.856,29.04 Z M85.84,30.144 C83.456,30.144 81.744,28.336 81.744,25.888 L81.744,25.76 C81.744,23.248 83.488,21.488 85.856,21.488 C88.224,21.488 89.968,23.232 89.968,25.744 L89.968,25.872 C89.968,28.4 88.224,30.144 85.84,30.144 Z M96.56,30 L96.56,22.752 L95.36,22.752 L95.36,21.632 L96.56,21.632 L96.56,20.272 C96.56,18.576 97.392,17.584 99.056,17.584 C99.488,17.584 99.712,17.632 100.048,17.744 L100.048,18.864 C99.808,18.768 99.472,18.688 99.104,18.688 C98.24,18.688 97.888,19.28 97.888,20.128 L97.888,21.632 L99.936,21.632 L99.936,22.752 L97.888,22.752 L97.888,30 L96.56,30 Z M104.896,29.04 C106.576,29.04 107.632,27.776 107.632,25.888 L107.632,25.776 C107.632,23.84 106.56,22.592 104.896,22.592 C103.216,22.592 102.16,23.84 102.16,25.76 L102.16,25.888 C102.16,27.792 103.2,29.04 104.896,29.04 Z M104.88,30.144 C102.496,30.144 100.784,28.336 100.784,25.888 L100.784,25.76 C100.784,23.248 102.528,21.488 104.896,21.488 C107.264,21.488 109.008,23.232 109.008,25.744 L109.008,25.872 C109.008,28.4 107.264,30.144 104.88,30.144 Z M114.544,30.144 C112.208,30.144 110.448,28.496 110.448,25.904 L110.448,25.776 C110.448,23.216 112.272,21.488 114.512,21.488 C116.256,21.488 117.888,22.288 118.144,24.416 L116.832,24.416 C116.624,23.088 115.664,22.592 114.512,22.592 C112.992,22.592 111.824,23.808 111.824,25.776 L111.824,25.904 C111.824,27.952 112.944,29.04 114.56,29.04 C115.744,29.04 116.816,28.352 116.96,26.992 L118.192,26.992 C118.016,28.8 116.56,30.144 114.544,30.144 Z M123.024,30.144 C121.36,30.144 120.112,29.232 120.112,26.928 L120.112,21.632 L121.44,21.632 L121.44,26.864 C121.44,28.336 122.064,28.992 123.376,28.992 C124.56,28.992 125.68,28.208 125.68,26.704 L125.68,21.632 L127.008,21.632 L127.008,30 L125.68,30 L125.68,28.672 C125.296,29.456 124.368,30.144 123.024,30.144 Z M132.288,30.144 C130.288,30.144 129.088,29.136 129.008,27.424 L130.304,27.424 C130.4,28.416 130.928,29.04 132.272,29.04 C133.536,29.04 134.096,28.608 134.096,27.712 C134.096,26.832 133.44,26.544 132.144,26.304 C129.968,25.904 129.232,25.296 129.232,23.84 C129.232,22.288 130.752,21.488 132.064,21.488 C133.568,21.488 134.864,22.096 135.088,23.904 L133.808,23.904 C133.616,22.992 133.104,22.592 132.048,22.592 C131.088,22.592 130.464,23.072 130.464,23.792 C130.464,24.544 130.88,24.848 132.416,25.12 C134.144,25.44 135.36,25.824 135.36,27.6 C135.36,29.12 134.32,30.144 132.288,30.144 Z M145.776,30.144 C144.416,30.144 143.424,29.456 142.944,28.624 L142.944,30 L141.616,30 L141.616,17.632 L142.944,17.632 L142.944,23.04 C143.424,22.224 144.56,21.488 145.776,21.488 C147.968,21.488 149.584,23.088 149.584,25.696 L149.584,25.824 C149.584,28.384 148.08,30.144 145.776,30.144 Z M145.648,29.04 C147.312,29.04 148.208,27.92 148.208,25.888 L148.208,25.76 C148.208,23.648 147.04,22.592 145.632,22.592 C144.08,22.592 142.896,23.616 142.896,25.76 L142.896,25.888 C142.896,28.032 144.016,29.04 145.648,29.04 Z M155.072,30.144 C152.704,30.144 151.024,28.48 151.024,25.904 L151.024,25.776 C151.024,23.248 152.64,21.488 154.944,21.488 C156.88,21.488 158.704,22.656 158.704,25.648 L158.704,26.08 L152.4,26.08 C152.464,27.984 153.376,29.04 155.088,29.04 C156.384,29.04 157.136,28.56 157.312,27.584 L158.64,27.584 C158.352,29.264 156.96,30.144 155.072,30.144 Z M152.448,25.008 L157.344,25.008 C157.216,23.28 156.32,22.592 154.944,22.592 C153.584,22.592 152.672,23.52 152.448,25.008 Z M163.28,30.112 C161.76,30.112 161.024,29.216 161.024,27.904 L161.024,22.752 L159.824,22.752 L159.824,21.632 L161.024,21.632 L161.024,19.728 L162.352,19.728 L162.352,21.632 L164.304,21.632 L164.304,22.752 L162.352,22.752 L162.352,27.776 C162.352,28.592 162.72,28.992 163.392,28.992 C163.808,28.992 164.128,28.928 164.416,28.816 L164.416,29.936 C164.144,30.032 163.824,30.112 163.28,30.112 Z M168.96,30.112 C167.44,30.112 166.704,29.216 166.704,27.904 L166.704,22.752 L165.504,22.752 L165.504,21.632 L166.704,21.632 L166.704,19.728 L168.032,19.728 L168.032,21.632 L169.984,21.632 L169.984,22.752 L168.032,22.752 L168.032,27.776 C168.032,28.592 168.4,28.992 169.072,28.992 C169.488,28.992 169.808,28.928 170.096,28.816 L170.096,29.936 C169.824,30.032 169.504,30.112 168.96,30.112 Z M175.52,30.144 C173.152,30.144 171.472,28.48 171.472,25.904 L171.472,25.776 C171.472,23.248 173.088,21.488 175.392,21.488 C177.328,21.488 179.152,22.656 179.152,25.648 L179.152,26.08 L172.848,26.08 C172.912,27.984 173.824,29.04 175.536,29.04 C176.832,29.04 177.584,28.56 177.76,27.584 L179.088,27.584 C178.8,29.264 177.408,30.144 175.52,30.144 Z M172.896,25.008 L177.792,25.008 C177.664,23.28 176.768,22.592 175.392,22.592 C174.032,22.592 173.12,23.52 172.896,25.008 Z M181.184,30 L181.184,21.632 L182.512,21.632 L182.512,23.136 C183.04,22.192 183.76,21.536 185.264,21.488 L185.264,22.736 C183.584,22.816 182.512,23.344 182.512,25.408 L182.512,30 L181.184,30 Z M187.152,30.08 C186.592,30.08 186.128,29.632 186.128,29.056 C186.128,28.48 186.592,28.032 187.152,28.032 C187.712,28.032 188.176,28.48 188.176,29.056 C188.176,29.632 187.712,30.08 187.152,30.08 Z" id="Iwanttofocusbetter." fill="#000000" fill-rule="nonzero"></path>
                                </g>
                                <g id="Mind-wander" stroke="none" fill-rule="evenodd">
                                    <rect id="Rectangle" fill="#FFF0DE" x="0" y="0" width="221" height="49" rx="6"></rect>
                                    <path d="M21.44,30 L21.44,18.56 L23.376,18.56 L26.912,27.472 L30.336,18.56 L32.256,18.56 L32.256,30 L30.864,30 L30.864,20.368 L27.072,30 L26.64,30 L22.72,20.368 L22.72,30 L21.44,30 Z M35.792,32.912 L37.376,29.136 L34.096,21.632 L35.52,21.632 L38.08,27.632 L40.4,21.632 L41.76,21.632 L37.136,32.912 L35.792,32.912 Z M47.744,30 L47.744,21.632 L49.072,21.632 L49.072,22.912 C49.456,22.128 50.368,21.488 51.568,21.488 C52.64,21.488 53.584,21.936 54.016,23.056 C54.592,21.968 55.84,21.488 56.88,21.488 C58.384,21.488 59.696,22.384 59.696,24.816 L59.696,30 L58.368,30 L58.368,24.72 C58.368,23.248 57.744,22.64 56.592,22.64 C55.504,22.64 54.384,23.376 54.384,24.88 L54.384,30 L53.056,30 L53.056,24.72 C53.056,23.248 52.432,22.64 51.28,22.64 C50.192,22.64 49.072,23.376 49.072,24.88 L49.072,30 L47.744,30 Z M62.336,30 L62.336,21.632 L63.664,21.632 L63.664,30 L62.336,30 Z M62.976,19.888 C62.496,19.888 62.096,19.488 62.096,19.008 C62.096,18.528 62.496,18.128 62.976,18.128 C63.456,18.128 63.856,18.528 63.856,19.008 C63.856,19.488 63.456,19.888 62.976,19.888 Z M66.384,30 L66.384,21.632 L67.712,21.632 L67.712,22.96 C68.096,22.176 69.024,21.488 70.4,21.488 C72.128,21.488 73.344,22.432 73.344,24.864 L73.344,30 L72.016,30 L72.016,24.768 C72.016,23.296 71.392,22.64 70.048,22.64 C68.816,22.64 67.712,23.424 67.712,24.928 L67.712,30 L66.384,30 Z M79.104,30.144 C76.912,30.144 75.328,28.592 75.328,25.984 L75.328,25.856 C75.328,23.296 76.928,21.488 79.232,21.488 C80.624,21.488 81.488,22.16 81.968,22.976 L81.968,17.632 L83.296,17.632 L83.296,30 L81.968,30 L81.968,28.56 C81.488,29.376 80.32,30.144 79.104,30.144 Z M79.248,29.04 C80.8,29.04 82.016,28.016 82.016,25.872 L82.016,25.744 C82.016,23.6 80.992,22.592 79.36,22.592 C77.696,22.592 76.704,23.76 76.704,25.792 L76.704,25.92 C76.704,28.032 77.84,29.04 79.248,29.04 Z M93.712,29.04 C95.392,29.04 96.448,27.776 96.448,25.888 L96.448,25.776 C96.448,23.84 95.376,22.592 93.712,22.592 C92.032,22.592 90.976,23.84 90.976,25.76 L90.976,25.888 C90.976,27.792 92.016,29.04 93.712,29.04 Z M93.696,30.144 C91.312,30.144 89.6,28.336 89.6,25.888 L89.6,25.76 C89.6,23.248 91.344,21.488 93.712,21.488 C96.08,21.488 97.824,23.232 97.824,25.744 L97.824,25.872 C97.824,28.4 96.08,30.144 93.696,30.144 Z M100.176,30 L100.176,22.752 L98.976,22.752 L98.976,21.632 L100.176,21.632 L100.176,20.272 C100.176,18.576 101.008,17.584 102.672,17.584 C103.104,17.584 103.328,17.632 103.664,17.744 L103.664,18.864 C103.424,18.768 103.088,18.688 102.72,18.688 C101.856,18.688 101.504,19.28 101.504,20.128 L101.504,21.632 L103.552,21.632 L103.552,22.752 L101.504,22.752 L101.504,30 L100.176,30 Z M108.048,30.112 C106.528,30.112 105.792,29.216 105.792,27.904 L105.792,22.752 L104.592,22.752 L104.592,21.632 L105.792,21.632 L105.792,19.728 L107.12,19.728 L107.12,21.632 L109.072,21.632 L109.072,22.752 L107.12,22.752 L107.12,27.776 C107.12,28.592 107.488,28.992 108.16,28.992 C108.576,28.992 108.896,28.928 109.184,28.816 L109.184,29.936 C108.912,30.032 108.592,30.112 108.048,30.112 Z M114.608,30.144 C112.24,30.144 110.56,28.48 110.56,25.904 L110.56,25.776 C110.56,23.248 112.176,21.488 114.48,21.488 C116.416,21.488 118.24,22.656 118.24,25.648 L118.24,26.08 L111.936,26.08 C112,27.984 112.912,29.04 114.624,29.04 C115.92,29.04 116.672,28.56 116.848,27.584 L118.176,27.584 C117.888,29.264 116.496,30.144 114.608,30.144 Z M111.984,25.008 L116.88,25.008 C116.752,23.28 115.856,22.592 114.48,22.592 C113.12,22.592 112.208,23.52 111.984,25.008 Z M120.272,30 L120.272,21.632 L121.6,21.632 L121.6,22.96 C121.984,22.176 122.912,21.488 124.288,21.488 C126.016,21.488 127.232,22.432 127.232,24.864 L127.232,30 L125.904,30 L125.904,24.768 C125.904,23.296 125.28,22.64 123.936,22.64 C122.704,22.64 121.6,23.424 121.6,24.928 L121.6,30 L120.272,30 Z M135.76,30 L133.184,21.632 L134.624,21.632 L136.576,28.368 L138.608,21.632 L139.76,21.632 L141.664,28.368 L143.632,21.632 L144.992,21.632 L142.384,30 L140.912,30 L139.168,23.728 L137.216,30 L135.76,30 Z M148.72,30.144 C147.168,30.144 145.936,29.392 145.936,27.68 C145.936,25.744 147.984,25.088 150.128,25.088 L151.328,25.088 L151.328,24.48 C151.328,23.152 150.816,22.592 149.536,22.592 C148.384,22.592 147.744,23.072 147.616,24.096 L146.288,24.096 C146.464,22.192 147.984,21.488 149.6,21.488 C151.2,21.488 152.656,22.144 152.656,24.48 L152.656,30 L151.328,30 L151.328,28.944 C150.704,29.728 149.952,30.144 148.72,30.144 Z M148.848,29.088 C150.256,29.088 151.328,28.368 151.328,27.072 L151.328,26.032 L150.176,26.032 C148.496,26.032 147.264,26.448 147.264,27.68 C147.264,28.544 147.68,29.088 148.848,29.088 Z M155.264,30 L155.264,21.632 L156.592,21.632 L156.592,22.96 C156.976,22.176 157.904,21.488 159.28,21.488 C161.008,21.488 162.224,22.432 162.224,24.864 L162.224,30 L160.896,30 L160.896,24.768 C160.896,23.296 160.272,22.64 158.928,22.64 C157.696,22.64 156.592,23.424 156.592,24.928 L156.592,30 L155.264,30 Z M167.984,30.144 C165.792,30.144 164.208,28.592 164.208,25.984 L164.208,25.856 C164.208,23.296 165.808,21.488 168.112,21.488 C169.504,21.488 170.368,22.16 170.848,22.976 L170.848,17.632 L172.176,17.632 L172.176,30 L170.848,30 L170.848,28.56 C170.368,29.376 169.2,30.144 167.984,30.144 Z M168.128,29.04 C169.68,29.04 170.896,28.016 170.896,25.872 L170.896,25.744 C170.896,23.6 169.872,22.592 168.24,22.592 C166.576,22.592 165.584,23.76 165.584,25.792 L165.584,25.92 C165.584,28.032 166.72,29.04 168.128,29.04 Z M178.288,30.144 C175.92,30.144 174.24,28.48 174.24,25.904 L174.24,25.776 C174.24,23.248 175.856,21.488 178.16,21.488 C180.096,21.488 181.92,22.656 181.92,25.648 L181.92,26.08 L175.616,26.08 C175.68,27.984 176.592,29.04 178.304,29.04 C179.6,29.04 180.352,28.56 180.528,27.584 L181.856,27.584 C181.568,29.264 180.176,30.144 178.288,30.144 Z M175.664,25.008 L180.56,25.008 C180.432,23.28 179.536,22.592 178.16,22.592 C176.8,22.592 175.888,23.52 175.664,25.008 Z M183.952,30 L183.952,21.632 L185.28,21.632 L185.28,23.136 C185.808,22.192 186.528,21.536 188.032,21.488 L188.032,22.736 C186.352,22.816 185.28,23.344 185.28,25.408 L185.28,30 L183.952,30 Z M192.48,30.144 C190.48,30.144 189.28,29.136 189.2,27.424 L190.496,27.424 C190.592,28.416 191.12,29.04 192.464,29.04 C193.728,29.04 194.288,28.608 194.288,27.712 C194.288,26.832 193.632,26.544 192.336,26.304 C190.16,25.904 189.424,25.296 189.424,23.84 C189.424,22.288 190.944,21.488 192.256,21.488 C193.76,21.488 195.056,22.096 195.28,23.904 L194,23.904 C193.808,22.992 193.296,22.592 192.24,22.592 C191.28,22.592 190.656,23.072 190.656,23.792 C190.656,24.544 191.072,24.848 192.608,25.12 C194.336,25.44 195.552,25.824 195.552,27.6 C195.552,29.12 194.512,30.144 192.48,30.144 Z M198.48,30.08 C197.92,30.08 197.456,29.632 197.456,29.056 C197.456,28.48 197.92,28.032 198.48,28.032 C199.04,28.032 199.504,28.48 199.504,29.056 C199.504,29.632 199.04,30.08 198.48,30.08 Z" id="Mymindoftenwanders." fill="#000000" fill-rule="nonzero"></path>
                                </g>
                                <polyline id="line1" stroke="#E7E7F4" transform="translate(135.000000, 134.000000) scale(1, -1) translate(-135.000000, -134.000000) " points="100 99 100 169 170 169"></polyline>
                                <polyline id="line3" stroke="#FFF0DE" transform="translate(236.000000, 50.000000) scale(1, -1) rotate(-90.000000) translate(-236.000000, -50.000000) " points="211 34 211 66 261 66"></polyline>
                                <polyline id="line4" stroke="#D7F0EA" transform="translate(326.000000, 50.000000) scale(-1, -1) rotate(-90.000000) translate(-326.000000, -50.000000) " points="301 34 301 66 351 66"></polyline>
                                <g id="Body-Scan" stroke="none" fill-rule="evenodd" transform="translate(340.000000, 0.000000)">
                                    <rect id="Rectangle" fill="#D7F0EA" x="0" y="0" width="190" height="49" rx="6"></rect>
                                    <path d="M21.52,30 L21.52,18.56 L22.912,18.56 L22.912,30 L21.52,30 Z M30.016,32.912 L30.016,21.632 L31.344,21.632 L31.344,23.04 C31.824,22.224 32.96,21.488 34.176,21.488 C36.368,21.488 37.984,23.088 37.984,25.696 L37.984,25.824 C37.984,28.384 36.48,30.144 34.176,30.144 C32.8,30.144 31.824,29.456 31.344,28.624 L31.344,32.912 L30.016,32.912 Z M34.048,29.04 C35.712,29.04 36.608,27.92 36.608,25.888 L36.608,25.76 C36.608,23.648 35.44,22.592 34.032,22.592 C32.48,22.592 31.296,23.616 31.296,25.76 L31.296,25.888 C31.296,28.032 32.416,29.04 34.048,29.04 Z M40.048,30 L40.048,21.632 L41.376,21.632 L41.376,23.136 C41.904,22.192 42.624,21.536 44.128,21.488 L44.128,22.736 C42.448,22.816 41.376,23.344 41.376,25.408 L41.376,30 L40.048,30 Z M49.248,30.144 C46.88,30.144 45.2,28.48 45.2,25.904 L45.2,25.776 C45.2,23.248 46.816,21.488 49.12,21.488 C51.056,21.488 52.88,22.656 52.88,25.648 L52.88,26.08 L46.576,26.08 C46.64,27.984 47.552,29.04 49.264,29.04 C50.56,29.04 51.312,28.56 51.488,27.584 L52.816,27.584 C52.528,29.264 51.136,30.144 49.248,30.144 Z M46.624,25.008 L51.52,25.008 C51.392,23.28 50.496,22.592 49.12,22.592 C47.76,22.592 46.848,23.52 46.624,25.008 Z M55.2,30 L55.2,22.752 L54,22.752 L54,21.632 L55.2,21.632 L55.2,20.272 C55.2,18.576 56.032,17.584 57.696,17.584 C58.128,17.584 58.352,17.632 58.688,17.744 L58.688,18.864 C58.448,18.768 58.112,18.688 57.744,18.688 C56.88,18.688 56.528,19.28 56.528,20.128 L56.528,21.632 L58.576,21.632 L58.576,22.752 L56.528,22.752 L56.528,30 L55.2,30 Z M63.472,30.144 C61.104,30.144 59.424,28.48 59.424,25.904 L59.424,25.776 C59.424,23.248 61.04,21.488 63.344,21.488 C65.28,21.488 67.104,22.656 67.104,25.648 L67.104,26.08 L60.8,26.08 C60.864,27.984 61.776,29.04 63.488,29.04 C64.784,29.04 65.536,28.56 65.712,27.584 L67.04,27.584 C66.752,29.264 65.36,30.144 63.472,30.144 Z M60.848,25.008 L65.744,25.008 C65.616,23.28 64.72,22.592 63.344,22.592 C61.984,22.592 61.072,23.52 60.848,25.008 Z M69.136,30 L69.136,21.632 L70.464,21.632 L70.464,23.136 C70.992,22.192 71.712,21.536 73.216,21.488 L73.216,22.736 C71.536,22.816 70.464,23.344 70.464,25.408 L70.464,30 L69.136,30 Z M79.488,30 L79.488,18.56 L82.928,18.56 C85.056,18.56 86.608,19.264 86.608,21.52 L86.608,21.584 C86.608,22.624 86.192,23.552 84.88,24 C86.544,24.4 87.168,25.248 87.168,26.736 L87.168,26.8 C87.168,28.96 85.696,30 83.408,30 L79.488,30 Z M80.848,28.912 L83.376,28.912 C85.04,28.912 85.808,28.176 85.808,26.784 L85.808,26.72 C85.808,25.312 85.024,24.64 83.184,24.64 L80.848,24.64 L80.848,28.912 Z M80.848,23.552 L82.928,23.552 C84.608,23.552 85.248,22.944 85.248,21.536 L85.248,21.472 C85.248,20.176 84.496,19.648 82.896,19.648 L80.848,19.648 L80.848,23.552 Z M92.832,29.04 C94.512,29.04 95.568,27.776 95.568,25.888 L95.568,25.776 C95.568,23.84 94.496,22.592 92.832,22.592 C91.152,22.592 90.096,23.84 90.096,25.76 L90.096,25.888 C90.096,27.792 91.136,29.04 92.832,29.04 Z M92.816,30.144 C90.432,30.144 88.72,28.336 88.72,25.888 L88.72,25.76 C88.72,23.248 90.464,21.488 92.832,21.488 C95.2,21.488 96.944,23.232 96.944,25.744 L96.944,25.872 C96.944,28.4 95.2,30.144 92.816,30.144 Z M102.16,30.144 C99.968,30.144 98.384,28.592 98.384,25.984 L98.384,25.856 C98.384,23.296 99.984,21.488 102.288,21.488 C103.68,21.488 104.544,22.16 105.024,22.976 L105.024,17.632 L106.352,17.632 L106.352,30 L105.024,30 L105.024,28.56 C104.544,29.376 103.376,30.144 102.16,30.144 Z M102.304,29.04 C103.856,29.04 105.072,28.016 105.072,25.872 L105.072,25.744 C105.072,23.6 104.048,22.592 102.416,22.592 C100.752,22.592 99.76,23.76 99.76,25.792 L99.76,25.92 C99.76,28.032 100.896,29.04 102.304,29.04 Z M109.792,32.912 L111.376,29.136 L108.096,21.632 L109.52,21.632 L112.08,27.632 L114.4,21.632 L115.76,21.632 L111.136,32.912 L109.792,32.912 Z M125.536,30.144 C122.48,30.144 121.376,28.464 121.168,26.512 L122.512,26.512 C122.688,27.872 123.232,29.024 125.536,29.024 C127.008,29.024 128.144,28.16 128.144,26.864 C128.144,25.568 127.552,25.024 125.376,24.672 C122.976,24.304 121.552,23.552 121.552,21.52 C121.552,19.76 123.072,18.416 125.232,18.416 C127.52,18.416 128.944,19.536 129.168,21.568 L127.92,21.568 C127.648,20.128 126.816,19.536 125.232,19.536 C123.664,19.536 122.848,20.32 122.848,21.392 C122.848,22.512 123.264,23.088 125.6,23.44 C128.144,23.84 129.488,24.608 129.488,26.768 C129.488,28.688 127.808,30.144 125.536,30.144 Z M135.248,30.144 C132.912,30.144 131.152,28.496 131.152,25.904 L131.152,25.776 C131.152,23.216 132.976,21.488 135.216,21.488 C136.96,21.488 138.592,22.288 138.848,24.416 L137.536,24.416 C137.328,23.088 136.368,22.592 135.216,22.592 C133.696,22.592 132.528,23.808 132.528,25.776 L132.528,25.904 C132.528,27.952 133.648,29.04 135.264,29.04 C136.448,29.04 137.52,28.352 137.664,26.992 L138.896,26.992 C138.72,28.8 137.264,30.144 135.248,30.144 Z M142.992,30.144 C141.44,30.144 140.208,29.392 140.208,27.68 C140.208,25.744 142.256,25.088 144.4,25.088 L145.6,25.088 L145.6,24.48 C145.6,23.152 145.088,22.592 143.808,22.592 C142.656,22.592 142.016,23.072 141.888,24.096 L140.56,24.096 C140.736,22.192 142.256,21.488 143.872,21.488 C145.472,21.488 146.928,22.144 146.928,24.48 L146.928,30 L145.6,30 L145.6,28.944 C144.976,29.728 144.224,30.144 142.992,30.144 Z M143.12,29.088 C144.528,29.088 145.6,28.368 145.6,27.072 L145.6,26.032 L144.448,26.032 C142.768,26.032 141.536,26.448 141.536,27.68 C141.536,28.544 141.952,29.088 143.12,29.088 Z M149.536,30 L149.536,21.632 L150.864,21.632 L150.864,22.96 C151.248,22.176 152.176,21.488 153.552,21.488 C155.28,21.488 156.496,22.432 156.496,24.864 L156.496,30 L155.168,30 L155.168,24.768 C155.168,23.296 154.544,22.64 153.2,22.64 C151.968,22.64 150.864,23.424 150.864,24.928 L150.864,30 L149.536,30 Z M161.696,30.144 C159.696,30.144 158.496,29.136 158.416,27.424 L159.712,27.424 C159.808,28.416 160.336,29.04 161.68,29.04 C162.944,29.04 163.504,28.608 163.504,27.712 C163.504,26.832 162.848,26.544 161.552,26.304 C159.376,25.904 158.64,25.296 158.64,23.84 C158.64,22.288 160.16,21.488 161.472,21.488 C162.976,21.488 164.272,22.096 164.496,23.904 L163.216,23.904 C163.024,22.992 162.512,22.592 161.456,22.592 C160.496,22.592 159.872,23.072 159.872,23.792 C159.872,24.544 160.288,24.848 161.824,25.12 C163.552,25.44 164.768,25.824 164.768,27.6 C164.768,29.12 163.728,30.144 161.696,30.144 Z M167.696,30.08 C167.136,30.08 166.672,29.632 166.672,29.056 C166.672,28.48 167.136,28.032 167.696,28.032 C168.256,28.032 168.72,28.48 168.72,29.056 C168.72,29.632 168.256,30.08 167.696,30.08 Z" id="IpreferBodyScans." fill="#000000" fill-rule="nonzero"></path>
                                </g>
                                <polyline id="line2" stroke="#FFDED9" transform="translate(420.000000, 134.000000) scale(1, -1) translate(-420.000000, -134.000000) " points="455 99 454.713071 169 385 169"></polyline>
                                <g id="audio" stroke="none" fill-rule="evenodd" transform="translate(170.000000, 75.000000)">
                                    <rect id="Rectangle" stroke="#30C5CA" stroke-width="1.52380952" fill="#FFFFFF" x="0" y="0" width="215" height="48" rx="23.7714286"></rect>
                                    <g id="purple" transform="translate(20.000000, 10.000000)" fill="#D7D7F5" fill-rule="nonzero">
                                        <path d="M37.5,21 C38.3254545,21 39,20.2807048 39,19.3964758 L39,9.60352423 C39,8.71585903 38.3254545,8 37.5,8 C36.6745455,8 36,8.71585903 36,9.60352423 L36,19.394185 C36,20.2818502 36.6745455,21 37.5,21 Z" id="Path"></path>
                                        <path d="M42,7.1375261 L42,22.8624739 C42,23.4887787 42.6745455,24 43.5,24 C44.3254545,24 45,23.4911273 45,22.8624739 L45,7.1375261 C45,6.51122129 44.3254545,6 43.5,6 C42.6745455,6 42,6.50887265 42,7.1375261 Z" id="Path"></path>
                                        <path d="M0,6.200146 L0,22.799854 C0,23.463157 0.674545455,24 1.5,24 C2.32545455,24 3,23.4623411 3,22.799854 L3,6.200146 C3,5.53684301 2.32545455,5 1.5,5 C0.674545455,5 0,5.53684301 0,6.200146 Z" id="Path"></path>
                                        <path d="M24,6.200146 L24,22.799854 C24,23.463157 24.6745455,24 25.5,24 C26.3254545,24 27,23.4623411 27,22.799854 L27,6.200146 C27,5.53684301 26.3254545,5 25.5,5 C24.6745455,5 24,5.53684301 24,6.200146 Z" id="Path"></path>
                                        <path d="M6,1.25493239 L6,27.7450676 C6,28.4377598 6.64875,29 7.5,29 C8.35125,29 9,28.4385226 9,27.7450676 L9,1.25493239 C9,0.562240227 8.35125,0 7.5,0 C6.64875,0 6,0.562240227 6,1.25493239 Z" id="Path"></path>
                                        <path d="M12,5.33054297 L12,23.669457 C12,24.4042956 12.6715729,25 13.5,25 C14.3284271,25 15,24.4042956 15,23.669457 L15,5.33054297 C15,4.59570438 14.3284271,4 13.5,4 C12.6715729,4 12,4.59570438 12,5.33054297 Z" id="Path"></path>
                                        <path d="M19.5,10 C18.6745455,10 18,10.5757338 18,11.2864733 L18,18.7135267 C18,19.4242662 18.6745455,20 19.5,20 C20.3254545,20 21,19.4242662 21,18.7135267 L21,11.2864733 C21,10.5766048 20.3254545,10 19.5,10 Z" id="Path"></path>
                                        <path d="M31.5,10 C30.6745455,10 30,10.5757338 30,11.2864733 L30,18.7135267 C30,19.4242662 30.6745455,20 31.5,20 C32.3254545,20 33,19.4242662 33,18.7135267 L33,11.2864733 C33,10.5766048 32.3254545,10 31.5,10 Z" id="Path"></path>
                                    </g>
                                    <g id="yellow" transform="translate(68.000000, 12.000000)" fill="#F4E3D0" fill-rule="nonzero">
                                        <path d="M1.5,18 C2.32545455,18 3,17.446696 3,16.7665198 L3,9.23348018 C3,8.55066079 2.32545455,8 1.5,8 C0.674545455,8 0,8.55066079 0,9.23348018 L0,16.7647577 C0,17.4475771 0.674545455,18 1.5,18 Z" id="Path"></path>
                                        <path d="M19.5,18 C20.3254545,18 21,17.446696 21,16.7665198 L21,9.23348018 C21,8.55066079 20.3254545,8 19.5,8 C18.6745455,8 18,8.55066079 18,9.23348018 L18,16.7647577 C18,17.4475771 18.6745455,18 19.5,18 Z" id="Path"></path>
                                        <path d="M7.5,19 C8.32545455,19 9,18.2807048 9,17.3964758 L9,7.60352423 C9,6.71585903 8.32545455,6 7.5,6 C6.67454545,6 6,6.71585903 6,7.60352423 L6,17.394185 C6,18.2818502 6.67454545,19 7.5,19 Z" id="Path"></path>
                                        <path d="M12,5.1375261 L12,20.8624739 C12,21.4887787 12.6745455,22 13.5,22 C14.3254545,22 15,21.4911273 15,20.8624739 L15,5.1375261 C15,4.51122129 14.3254545,4 13.5,4 C12.6745455,4 12,4.50887265 12,5.1375261 Z" id="Path"></path>
                                        <path d="M42,1.1251118 L42,24.8748882 C42,25.4959226 42.64875,26 43.5,26 C44.35125,26 45,25.4966065 45,24.8748882 L45,1.1251118 C45,0.504077445 44.35125,0 43.5,0 C42.64875,0 42,0.504077445 42,1.1251118 Z" id="Path"></path>
                                        <path d="M37.5,22 C38.3254545,22 39,21.0040529 39,19.7797357 L39,6.22026432 C39,4.99118943 38.3254545,4 37.5,4 C36.6745455,4 36,4.99118943 36,6.22026432 L36,19.7765639 C36,21.0056388 36.6745455,22 37.5,22 Z" id="Path"></path>
                                        <path d="M24,1.57913947 L24,23.4208605 C24,24.2936276 24.6745455,25 25.5,25 C26.3254545,25 27,24.2925541 27,23.4208605 L27,1.57913947 C27,0.706372381 26.3254545,0 25.5,0 C24.6745455,0 24,0.706372381 24,1.57913947 Z" id="Path"></path>
                                        <path d="M31.5,7 C30.6745455,7 30,7.6333072 30,8.41512063 L30,16.5848794 C30,17.3666928 30.6745455,18 31.5,18 C32.3254545,18 33,17.3666928 33,16.5848794 L33,8.41512063 C33,7.63426531 32.3254545,7 31.5,7 Z" id="Path"></path>
                                    </g>
                                    <g id="red" transform="translate(158.000000, 14.000000)" fill="#FDC8BF" fill-rule="nonzero">
                                        <path d="M25.5,16 C26.3254545,16 27,15.446696 27,14.7665198 L27,7.23348018 C27,6.55066079 26.3254545,6 25.5,6 C24.6745455,6 24,6.55066079 24,7.23348018 L24,14.7647577 C24,15.4475771 24.6745455,16 25.5,16 Z" id="Path"></path>
                                        <path d="M31.5,17 C32.3254545,17 33,16.2807048 33,15.3964758 L33,5.60352423 C33,4.71585903 32.3254545,4 31.5,4 C30.6745455,4 30,4.71585903 30,5.60352423 L30,15.394185 C30,16.2818502 30.6745455,17 31.5,17 Z" id="Path"></path>
                                        <path d="M36,3.1375261 L36,18.8624739 C36,19.4887787 36.6745455,20 37.5,20 C38.3254545,20 39,19.4911273 39,18.8624739 L39,3.1375261 C39,2.51122129 38.3254545,2 37.5,2 C36.6745455,2 36,2.50887265 36,3.1375261 Z" id="Path"></path>
                                        <path d="M13.5,16 C14.3254545,16 15,15.446696 15,14.7665198 L15,7.23348018 C15,6.55066079 14.3254545,6 13.5,6 C12.6745455,6 12,6.55066079 12,7.23348018 L12,14.7647577 C12,15.4475771 12.6745455,16 13.5,16 Z" id="Path"></path>
                                        <path d="M1.5,17 C2.32545455,17 3,16.2807048 3,15.3964758 L3,5.60352423 C3,4.71585903 2.32545455,4 1.5,4 C0.674545455,4 0,4.71585903 0,5.60352423 L0,15.394185 C0,16.2818502 0.674545455,17 1.5,17 Z" id="Path"></path>
                                        <path d="M6,3.1375261 L6,18.8624739 C6,19.4887787 6.67454545,20 7.5,20 C8.32545455,20 9,19.4911273 9,18.8624739 L9,3.1375261 C9,2.51122129 8.32545455,2 7.5,2 C6.67454545,2 6,2.50887265 6,3.1375261 Z" id="Path"></path>
                                        <path d="M18,1.33054297 L18,19.669457 C18,20.4042956 18.6715729,21 19.5,21 C20.3284271,21 21,20.4042956 21,19.669457 L21,1.33054297 C21,0.595704378 20.3284271,0 19.5,0 C18.6715729,0 18,0.595704378 18,1.33054297 Z" id="Path"></path>
                                    </g>
                                    <g id="green" transform="translate(116.000000, 14.000000)" fill="#B8E5DA" fill-rule="nonzero">
                                        <path d="M25.5,17 C26.3254545,17 27,16.2807048 27,15.3964758 L27,5.60352423 C27,4.71585903 26.3254545,4 25.5,4 C24.6745455,4 24,4.71585903 24,5.60352423 L24,15.394185 C24,16.2818502 24.6745455,17 25.5,17 Z" id="Path"></path>
                                        <path d="M37.5,16 C38.3254545,16 39,15.446696 39,14.7665198 L39,7.23348018 C39,6.55066079 38.3254545,6 37.5,6 C36.6745455,6 36,6.55066079 36,7.23348018 L36,14.7647577 C36,15.4475771 36.6745455,16 37.5,16 Z" id="Path"></path>
                                        <path d="M30,3.1375261 L30,18.8624739 C30,19.4887787 30.6745455,20 31.5,20 C32.3254545,20 33,19.4911273 33,18.8624739 L33,3.1375261 C33,2.51122129 32.3254545,2 31.5,2 C30.6745455,2 30,2.50887265 30,3.1375261 Z" id="Path"></path>
                                        <path d="M12,2.200146 L12,18.799854 C12,19.463157 12.6745455,20 13.5,20 C14.3254545,20 15,19.4623411 15,18.799854 L15,2.200146 C15,1.53684301 14.3254545,1 13.5,1 C12.6745455,1 12,1.53684301 12,2.200146 Z" id="Path"></path>
                                        <path d="M0,1.33054297 L0,19.669457 C0,20.4042956 0.671572875,21 1.5,21 C2.32842712,21 3,20.4042956 3,19.669457 L3,1.33054297 C3,0.595704378 2.32842712,0 1.5,0 C0.671572875,0 0,0.595704378 0,1.33054297 Z" id="Path"></path>
                                        <path d="M7.5,6 C6.67454545,6 6,6.57573382 6,7.2864733 L6,14.7135267 C6,15.4242662 6.67454545,16 7.5,16 C8.32545455,16 9,15.4242662 9,14.7135267 L9,7.2864733 C9,6.57660483 8.32545455,6 7.5,6 Z" id="Path"></path>
                                        <path d="M19.5,6 C18.6745455,6 18,6.57573382 18,7.2864733 L18,14.7135267 C18,15.4242662 18.6745455,16 19.5,16 C20.3254545,16 21,15.4242662 21,14.7135267 L21,7.2864733 C21,6.57660483 20.3254545,6 19.5,6 Z" id="Path"></path>
                                    </g>
                                </g>
                                <g id="Group-65" stroke="none" fill-rule="evenodd" transform="translate(86.000000, 0.000000)">
                                    <mask id="mask-4" fill="white">
                                        <use xlink:href="#path-3"></use>
                                    </mask>
                                    <g id="Mask"></g>
                                    <g mask="url(#mask-4)">
                                        <g transform="translate(109.000000, 184.000000)">
                                            <g id="Group-4" stroke="none" stroke-width="1" fill="none" fill-rule="evenodd" transform="translate(1.031447, 105.789985)">
                                                <path d="M1.89880732,141.938466 C1.89880732,126.880529 -0.874949445,73.1133996 2.78506327,41.7466699 C5.97109734,14.4690579 29.4260294,6.46470825 45.6619019,0.605883287 L127.957498,20.8663675 L133.566713,54.1626671 L32.9626394,85.7481562 L27.7096097,141.938466" id="Fill-1" fill="#D7EDF0"></path>
                                                <path d="M1.89880732,141.938466 C1.89880732,126.880529 -0.874949445,73.1133996 2.78506327,41.7466699 C5.97109734,14.4690579 29.4260294,6.46470825 45.6619019,0.605883287 L127.957498,20.8663675 L133.566713,54.1626671 L32.9626394,85.7481562 L27.7096097,141.938466" id="Stroke-3" stroke="#000000" stroke-width="1.40230372"></path>
                                            </g>
                                            <g id="Group-8" stroke="none" stroke-width="1" fill="none" fill-rule="evenodd" transform="translate(44.132005, 4.824117)">
                                                <path d="M37.9571724,86.563736 C53.1581448,86.7151848 75.6062228,84.656603 76.9243883,71.331913 C78.2425538,57.9735677 74.4871845,42.1387541 68.8218774,21.4463603 C63.3556975,1.46353225 38.5517492,0.316447799 38.5517492,0.316447799 L38.910739,0.316447799 C38.910739,0.316447799 14.1067907,1.46353225 8.63780618,21.4463603 C2.97530374,42.1387541 -0.782870242,57.9735677 0.538099866,71.331913 C1.85626537,84.656603 24.3043434,86.7151848 39.5053158,86.563736" id="Fill-5" fill="#000000"></path>
                                                <path d="M37.9571724,86.563736 C53.1581448,86.7151848 75.6062228,84.656603 76.9243883,71.331913 C78.2425538,57.9735677 74.4871845,42.1387541 68.8218774,21.4463603 C63.3556975,1.46353225 38.5517492,0.316447799 38.5517492,0.316447799 L38.910739,0.316447799 C38.910739,0.316447799 14.1067907,1.46353225 8.63780618,21.4463603 C2.97530374,42.1387541 -0.782870242,57.9735677 0.538099866,71.331913 C1.85626537,84.656603 24.3043434,86.7151848 39.5053158,86.563736" id="Stroke-7" stroke="#000000" stroke-width="1.40230372"></path>
                                            </g>
                                            <path d="M126.699824,110.973549 C122.854707,110.157408 113.607917,104.898769 110.744412,103.24966 C101.407874,97.8788367 97.1308479,88.7274026 96.9205024,79.8956938 L67.4048136,79.8956938 C66.9700994,85.2300571 66.8466967,99.0904271 46.4431775,106.455326 L81.9074387,132.294175 C81.9074387,132.294175 102.801764,134.47055 104.97814,132.294175 C107.15732,130.114995 126.699824,110.973549 126.699824,110.973549" id="Fill-9" stroke="none" fill="#D7EDF0" fill-rule="evenodd"></path>
                                            <path d="M126.699824,110.973549 C122.854707,110.157408 113.607917,104.898769 110.744412,103.24966 C101.407874,97.8788367 97.1308479,88.7274026 96.9205024,79.8956938 L67.4048136,79.8956938 C66.9700994,85.2300571 66.8466967,99.0904271 46.4431775,106.455326 L81.9074387,132.294175 C81.9074387,132.294175 102.801764,134.47055 104.97814,132.294175 C107.15732,130.114995 126.699824,110.973549 126.699824,110.973549 Z" id="Stroke-11" stroke="#000000" stroke-width="1.40230372" fill="none"></path>
                                            <polygon id="Fill-13" stroke="none" fill="#000000" fill-rule="evenodd" points="31.1939659 190.677688 1.93910559 196.98525 1.93910559 191.538702"></polygon>
                                            <polygon id="Stroke-15" stroke="#000000" stroke-width="1.40230372" fill="none" points="31.1939659 190.677688 1.93910559 196.98525 1.93910559 191.538702"></polygon>
                                            <g id="Group-20" stroke="none" stroke-width="1" fill="none" fill-rule="evenodd" transform="translate(111.442584, 146.827651)">
                                                <path d="M50.1779689,100.900801 C50.1779689,85.8428639 52.9517257,32.0757345 49.291713,0.709004763 L0.564463176,38.888126 L19.1141368,44.710491 L24.364362,100.900801" id="Fill-17" fill="#D7EDF0"></path>
                                                <path d="M50.1779689,100.900801 C50.1779689,85.8428639 52.9517257,32.0757345 49.291713,0.709004763 L0.564463176,38.888126 L19.1141368,44.710491 L24.364362,100.900801" id="Stroke-19" stroke="#000000" stroke-width="1.40230372"></path>
                                            </g>
                                            <path d="M138.241625,146.792593 C138.241625,146.792593 139.744895,154.690367 138.342591,167.240986 C136.586907,182.924351 131.289003,193.570641 130.820634,201.429151 C130.34946,209.29327 129.084582,247.177907 129.084582,247.177907 L82.1522809,247.177907 L82.1606947,247.177907 L35.2283937,247.177907 C35.2283937,247.177907 33.9635157,209.29327 33.4951463,201.429151 C33.0239722,193.570641 27.7260688,182.924351 25.9731891,167.240986 C24.5680808,154.690367 26.0713504,146.792593 26.0713504,146.792593" id="Fill-21" stroke="none" fill="#30C5CA" fill-rule="evenodd"></path>
                                            <g id="Group-26" stroke="none" stroke-width="1" fill="none" fill-rule="evenodd" transform="translate(0.000000, 104.758539)">
                                                <path d="M133.612901,84.8508742 L163.7989,85.9194296 C163.7989,85.9194296 163.826937,68.976796 160.674558,42.7733487 C157.395972,15.506955 134.053225,7.48858235 117.803329,1.632562 C116.560888,1.18943402 115.388562,0.721064575 114.314397,0.227453664 C107.875019,6.92485625 95.9806784,11.420642 82.3502862,11.420642 L82.1483545,11.420642 C68.5207669,11.420642 56.6264267,6.92485625 50.187048,0.227453664 C49.1100787,0.721064575 47.9405574,1.18943402 46.6981163,1.632562 C30.4482208,7.48858235 7.10547297,15.506955 3.82408226,42.7733487 C0.671703484,68.976796 0.699745216,85.9194296 0.699745216,85.9194296 L30.8885441,84.8508742" id="Fill-23" fill="#30C5CA"></path>
                                                <path d="M133.612901,84.8508742 L163.7989,85.9194296 C163.7989,85.9194296 163.826937,68.976796 160.674558,42.7733487 C157.395972,15.506955 134.053225,7.48858235 117.803329,1.632562 C116.560888,1.18943402 115.388562,0.721064575 114.314397,0.227453664 C107.875019,6.92485625 95.9806784,11.420642 82.3502862,11.420642 L82.1483545,11.420642 C68.5207669,11.420642 56.6264267,6.92485625 50.187048,0.227453664 C49.1100787,0.721064575 47.9405574,1.18943402 46.6981163,1.632562 C30.4482208,7.48858235 7.10547297,15.506955 3.82408226,42.7733487 C0.671703484,68.976796 0.699745216,85.9194296 0.699745216,85.9194296 L30.8885441,84.8508742" id="Stroke-25" stroke="#000000" stroke-width="1.40230372"></path>
                                            </g>
                                            <path d="M35.2283937,247.177907 C35.2283937,247.177907 33.9635157,209.29327 33.4951463,201.429151 C33.0239722,193.570641 27.7260688,182.924351 25.9731891,167.240986 C24.5680808,154.690367 26.0713504,146.792593 26.0713504,146.792593" id="Stroke-27" stroke="#000000" stroke-width="1.40230372" fill="none"></path>
                                            <path d="M138.241625,146.792593 C138.241625,146.792593 139.744895,154.690367 138.342591,167.240986 C136.586907,182.924351 131.289003,193.570641 130.820634,201.429151 C130.34946,209.29327 129.084582,247.177907 129.084582,247.177907" id="Stroke-29" stroke="#000000" stroke-width="1.40230372" fill="none"></path>
                                            <polygon id="Fill-31" stroke="none" fill="#000000" fill-rule="evenodd" points="133.371705 190.677688 162.626565 196.98525 162.626565 191.538702"></polygon>
                                            <polygon id="Stroke-33" stroke="#000000" stroke-width="1.40230372" fill="none" points="133.371705 190.677688 162.626565 196.98525 162.626565 191.538702"></polygon>
                                            <path d="M83.1176268,13.0231947 C71.0241595,13.0231947 62.4953482,18.2369599 60.296536,27.7081193 C57.1329388,41.3216838 58.3585522,58.7130546 59.7047638,62.0084684 C64.8512185,79.1109646 70.7969863,86.7058416 83.1176268,86.7058416 C95.0708637,86.7058416 101.384035,79.1109646 106.533294,62.0084684 C107.910357,58.631721 109.396799,41.3244884 105.1366,26.9677029 C102.665741,18.6352142 94.2435045,13.0231947 83.1176268,13.0231947" id="Fill-35" stroke="none" fill="#D7EDF0" fill-rule="evenodd"></path>
                                            <path d="M83.1176268,13.0231947 C71.0241595,13.0231947 62.4953482,18.2369599 60.296536,27.7081193 C57.1329388,41.3216838 58.3585522,58.7130546 59.7047638,62.0084684 C64.8512185,79.1109646 70.7969863,86.7058416 83.1176268,86.7058416 C95.0708637,86.7058416 101.384035,79.1109646 106.533294,62.0084684 C107.910357,58.631721 109.396799,41.3244884 105.1366,26.9677029 C102.665741,18.6352142 94.2435045,13.0231947 83.1176268,13.0231947 Z" id="Stroke-37" stroke="#000000" stroke-width="1.40230372" fill="none" stroke-linecap="round" stroke-linejoin="round"></path>
                                            <path d="M51.4261236,45.2405618 C51.5439171,45.4256659 58.9508853,51.1302386 59.1696447,51.1302386 C60.246614,51.1330421 63.4719125,46.0314611 65.6398741,40.5764996 C68.3575387,33.7360621 69.2606223,27.5631211 69.2606223,27.5631211 C69.2606223,27.5631211 78.2409754,37.8868811 83.7155691,41.2608239 C95.968899,48.8136317 102.986027,49.9326701 105.883186,50.583339 C106.696523,50.7684431 109.388946,49.5568527 109.764763,48.8136317 L112.718015,40.1053256 L108.1437,17.8872254 L99.2138299,13.3129106 L84.1839385,9.82678358 L69.226967,13.0240361 L58.91723,18.7594583 L50.6520519,39.6706114 L51.4261236,45.2405618 Z" id="Fill-39" stroke="none" fill="#000000" fill-rule="evenodd"></path>
                                            <path d="M51.4261236,45.2405618 C51.5439171,45.4256659 58.9508853,51.1302386 59.1696447,51.1302386 C60.246614,51.1330421 63.4719125,46.0314611 65.6398741,40.5764996 C68.3575387,33.7360621 69.2606223,27.5631211 69.2606223,27.5631211 C69.2606223,27.5631211 78.2409754,37.8868811 83.7155691,41.2608239 C95.968899,48.8136317 102.986027,49.9326701 105.883186,50.583339 C106.696523,50.7684431 109.388946,49.5568527 109.764763,48.8136317 L112.718015,40.1053256 L108.1437,17.8872254 L99.2138299,13.3129106 L84.1839385,9.82678358 L69.226967,13.0240361 L58.91723,18.7594583 L50.6520519,39.6706114 L51.4261236,45.2405618 Z" id="Stroke-41" stroke="#000000" stroke-width="1.40230372" fill="none"></path>
                                            <path d="M59.5303172,52.0905351 C57.8363343,50.2731494 54.487633,49.0503406 53.6013771,50.5143457 C52.2271194,52.7804685 53.5565034,55.3158336 54.7624846,57.1360239 C55.9684658,58.9534095 60.6044819,62.478801 60.6044819,62.478801 L63.2099622,57.0546902 L59.5303172,52.0905351 Z" id="Fill-43" stroke="none" fill="#D2ECEF" fill-rule="evenodd"></path>
                                            <path d="M105.425755,52.4795341 C107.119738,50.6621485 111.391155,49.0494992 112.280216,50.5163089 C113.651669,52.7796271 112.325089,55.3177968 111.119108,57.1351825 C109.913127,58.9553727 105.277111,62.4779597 105.277111,62.4779597 L102.668826,57.0538489 L105.425755,52.4795341 Z" id="Fill-45" stroke="none" fill="#D2ECEF" fill-rule="evenodd"></path>
                                            <path d="M49.1212972,51.9289897 C47.2253825,47.4949053 46.1764593,42.6120837 46.1764593,37.4824567 C46.1764593,17.1658803 62.6423097,0.700030019 82.9560814,0.700030019 C103.269853,0.700030019 119.735703,17.1658803 119.735703,37.4824567 C119.735703,43.3160402 118.378273,48.832703 115.960702,53.7323523" id="Stroke-47" stroke="#000000" stroke-width="1.40230372" fill="none" stroke-linecap="round" stroke-linejoin="round"></path>
                                            <g id="Group-52" stroke="none" stroke-width="1" fill="none" fill-rule="evenodd" transform="translate(41.327397, 40.252567)">
                                                <path d="M16.7501332,24.8858428 C15.5581751,25.3037293 14.2792741,25.5505348 12.9498901,25.5897993 C6.04214198,25.7833172 0.281478284,20.3451834 0.0851557628,13.4374352 C-0.111166759,6.52968706 5.32977169,0.77182797 12.2347152,0.575505448 C13.5669038,0.536240944 14.8570232,0.710126606 16.0714182,1.06070254" id="Fill-49" fill="#FFFFFF"></path>
                                                <path d="M16.7501332,24.8858428 C15.5581751,25.3037293 14.2792741,25.5505348 12.9498901,25.5897993 C6.04214198,25.7833172 0.281478284,20.3451834 0.0851557628,13.4374352 C-0.111166759,6.52968706 5.32977169,0.77182797 12.2347152,0.575505448 C13.5669038,0.536240944 14.8570232,0.710126606 16.0714182,1.06070254" id="Stroke-51" stroke="#000000" stroke-width="1.40230372" stroke-linecap="round" stroke-linejoin="round"></path>
                                            </g>
                                            <path d="M56.9559681,67.0777963 L56.9559681,67.0777963 C55.4863538,67.1226701 54.2495219,65.9531488 54.2074528,64.4807298 L53.5708069,42.1897098 C53.5315424,40.7200955 54.6982591,39.480459 56.170678,39.4411945 C57.6402923,39.3991254 58.8771242,40.5658421 58.9191933,42.0354564 L59.5530346,64.3320856 C59.5951037,65.7988953 58.4255824,67.0357272 56.9559681,67.0777963" id="Fill-53" stroke="none" fill="#30C5CA" fill-rule="evenodd"></path>
                                            <path d="M56.9559681,67.0777963 L56.9559681,67.0777963 C55.4863538,67.1226701 54.2495219,65.9531488 54.2074528,64.4807298 L53.5708069,42.1897098 C53.5315424,40.7200955 54.6982591,39.480459 56.170678,39.4411945 C57.6402923,39.3991254 58.8771242,40.5658421 58.9191933,42.0354564 L59.5530346,64.3320856 C59.5951037,65.7988953 58.4255824,67.0357272 56.9559681,67.0777963 Z" id="Stroke-55" stroke="#000000" stroke-width="1.40230372" fill="none" stroke-linecap="round" stroke-linejoin="round"></path>
                                            <g id="Group-60" stroke="none" stroke-width="1" fill="none" fill-rule="evenodd" transform="translate(105.833369, 40.252567)">
                                                <path d="M0.571474694,24.6942881 C1.76343286,25.1149792 3.04233386,25.3589801 4.37171779,25.3982446 C11.2794659,25.5945671 17.0401296,20.1536287 17.2364522,13.2458805 C17.4327747,6.33813237 11.9918362,0.580273281 5.08408808,0.38395076 C3.75470415,0.344686255 2.46458472,0.518571917 1.2501897,0.869147848" id="Fill-57" fill="#FFFFFF"></path>
                                                <path d="M0.571474694,24.6942881 C1.76343286,25.1149792 3.04233386,25.3589801 4.37171779,25.3982446 C11.2794659,25.5945671 17.0401296,20.1536287 17.2364522,13.2458805 C17.4327747,6.33813237 11.9918362,0.580273281 5.08408808,0.38395076 C3.75470415,0.344686255 2.46458472,0.518571917 1.2501897,0.869147848" id="Stroke-59" stroke="#000000" stroke-width="1.40230372" stroke-linecap="round" stroke-linejoin="round"></path>
                                            </g>
                                            <path d="M107.526406,66.8887658 L107.526406,66.8887658 C108.99602,66.9308349 110.232852,65.7613136 110.274921,64.2888947 L110.911567,41.9978747 C110.950832,40.5282604 109.784115,39.2914285 108.311696,39.2493594 C106.842082,39.2072903 105.60525,40.3768116 105.563181,41.8464259 L104.929339,64.1402505 C104.88727,65.6098648 106.056792,66.8438921 107.526406,66.8887658" id="Fill-61" stroke="none" fill="#30C5CA" fill-rule="evenodd"></path>
                                            <path d="M107.526406,66.8887658 L107.526406,66.8887658 C108.99602,66.9308349 110.232852,65.7613136 110.274921,64.2888947 L110.911567,41.9978747 C110.950832,40.5282604 109.784115,39.2914285 108.311696,39.2493594 C106.842082,39.2072903 105.60525,40.3768116 105.563181,41.8464259 L104.929339,64.1402505 C104.88727,65.6098648 106.056792,66.8438921 107.526406,66.8887658 Z" id="Stroke-63" stroke="#000000" stroke-width="1.40230372" fill="none" stroke-linecap="round" stroke-linejoin="round"></path>
                                        </g>
                                    </g>
                                </g>
                            </g>
                        </g>
                    </g>
                </g>
            </g>
        </g>
    </g>
</svg>